%TF.GenerationSoftware,KiCad,Pcbnew,9.0.6*%
%TF.CreationDate,2026-03-31T23:29:36+13:00*%
%TF.ProjectId,.75-keyboard-PCB,2e37352d-6b65-4796-926f-6172642d5043,rev?*%
%TF.SameCoordinates,Original*%
%TF.FileFunction,Legend,Bot*%
%TF.FilePolarity,Positive*%
%FSLAX46Y46*%
G04 Gerber Fmt 4.6, Leading zero omitted, Abs format (unit mm)*
G04 Created by KiCad (PCBNEW 9.0.6) date 2026-03-31 23:29:36*
%MOMM*%
%LPD*%
G01*
G04 APERTURE LIST*
%ADD10C,0.150000*%
%ADD11C,0.120000*%
G04 APERTURE END LIST*
D10*
X53234819Y-104366666D02*
X53949104Y-104366666D01*
X53949104Y-104366666D02*
X54091961Y-104319047D01*
X54091961Y-104319047D02*
X54187200Y-104223809D01*
X54187200Y-104223809D02*
X54234819Y-104080952D01*
X54234819Y-104080952D02*
X54234819Y-103985714D01*
X53330057Y-104795238D02*
X53282438Y-104842857D01*
X53282438Y-104842857D02*
X53234819Y-104938095D01*
X53234819Y-104938095D02*
X53234819Y-105176190D01*
X53234819Y-105176190D02*
X53282438Y-105271428D01*
X53282438Y-105271428D02*
X53330057Y-105319047D01*
X53330057Y-105319047D02*
X53425295Y-105366666D01*
X53425295Y-105366666D02*
X53520533Y-105366666D01*
X53520533Y-105366666D02*
X53663390Y-105319047D01*
X53663390Y-105319047D02*
X54234819Y-104747619D01*
X54234819Y-104747619D02*
X54234819Y-105366666D01*
X53114819Y-93686666D02*
X53829104Y-93686666D01*
X53829104Y-93686666D02*
X53971961Y-93639047D01*
X53971961Y-93639047D02*
X54067200Y-93543809D01*
X54067200Y-93543809D02*
X54114819Y-93400952D01*
X54114819Y-93400952D02*
X54114819Y-93305714D01*
X53114819Y-94067619D02*
X53114819Y-94686666D01*
X53114819Y-94686666D02*
X53495771Y-94353333D01*
X53495771Y-94353333D02*
X53495771Y-94496190D01*
X53495771Y-94496190D02*
X53543390Y-94591428D01*
X53543390Y-94591428D02*
X53591009Y-94639047D01*
X53591009Y-94639047D02*
X53686247Y-94686666D01*
X53686247Y-94686666D02*
X53924342Y-94686666D01*
X53924342Y-94686666D02*
X54019580Y-94639047D01*
X54019580Y-94639047D02*
X54067200Y-94591428D01*
X54067200Y-94591428D02*
X54114819Y-94496190D01*
X54114819Y-94496190D02*
X54114819Y-94210476D01*
X54114819Y-94210476D02*
X54067200Y-94115238D01*
X54067200Y-94115238D02*
X54019580Y-94067619D01*
D11*
%TO.C,J2*%
X53850000Y-108540000D02*
X53850000Y-109870000D01*
X53850000Y-109870000D02*
X55180000Y-109870000D01*
X56450000Y-107210000D02*
X56450000Y-109870000D01*
X56450000Y-107210000D02*
X104770000Y-107210000D01*
X56450000Y-109870000D02*
X104770000Y-109870000D01*
X104770000Y-107210000D02*
X104770000Y-109870000D01*
%TO.C,J3*%
X53850000Y-90760000D02*
X53850000Y-92090000D01*
X53850000Y-92090000D02*
X55180000Y-92090000D01*
X56450000Y-89430000D02*
X56450000Y-92090000D01*
X56450000Y-89430000D02*
X104770000Y-89430000D01*
X56450000Y-92090000D02*
X104770000Y-92090000D01*
X104770000Y-89430000D02*
X104770000Y-92090000D01*
%TD*%
M02*
