%TF.GenerationSoftware,KiCad,Pcbnew,9.0.6*%
%TF.CreationDate,2026-03-31T23:29:36+13:00*%
%TF.ProjectId,.75-keyboard-PCB,2e37352d-6b65-4796-926f-6172642d5043,rev?*%
%TF.SameCoordinates,Original*%
%TF.FileFunction,Legend,Top*%
%TF.FilePolarity,Positive*%
%FSLAX46Y46*%
G04 Gerber Fmt 4.6, Leading zero omitted, Abs format (unit mm)*
G04 Created by KiCad (PCBNEW 9.0.6) date 2026-03-31 23:29:36*
%MOMM*%
%LPD*%
G01*
G04 APERTURE LIST*
%ADD10C,0.150000*%
%ADD11C,0.120000*%
G04 APERTURE END LIST*
D10*
X108870863Y-110563944D02*
X109108958Y-111563944D01*
X109108958Y-111563944D02*
X109299434Y-110849658D01*
X109299434Y-110849658D02*
X109489910Y-111563944D01*
X109489910Y-111563944D02*
X109728006Y-110563944D01*
X110632767Y-111563944D02*
X110061339Y-111563944D01*
X110347053Y-111563944D02*
X110347053Y-110563944D01*
X110347053Y-110563944D02*
X110251815Y-110706801D01*
X110251815Y-110706801D02*
X110156577Y-110802039D01*
X110156577Y-110802039D02*
X110061339Y-110849658D01*
X166163720Y-110563944D02*
X166735148Y-110563944D01*
X166449434Y-111563944D02*
X166449434Y-110563944D01*
X167592291Y-111563944D02*
X167020863Y-111563944D01*
X167306577Y-111563944D02*
X167306577Y-110563944D01*
X167306577Y-110563944D02*
X167211339Y-110706801D01*
X167211339Y-110706801D02*
X167116101Y-110802039D01*
X167116101Y-110802039D02*
X167020863Y-110849658D01*
X199025030Y-149663944D02*
X199025030Y-148663944D01*
X199025030Y-148663944D02*
X199596458Y-149663944D01*
X199596458Y-149663944D02*
X199596458Y-148663944D01*
X200596458Y-149663944D02*
X200025030Y-149663944D01*
X200310744Y-149663944D02*
X200310744Y-148663944D01*
X200310744Y-148663944D02*
X200215506Y-148806801D01*
X200215506Y-148806801D02*
X200120268Y-148902039D01*
X200120268Y-148902039D02*
X200025030Y-148949658D01*
X201215506Y-148663944D02*
X201310744Y-148663944D01*
X201310744Y-148663944D02*
X201405982Y-148711563D01*
X201405982Y-148711563D02*
X201453601Y-148759182D01*
X201453601Y-148759182D02*
X201501220Y-148854420D01*
X201501220Y-148854420D02*
X201548839Y-149044896D01*
X201548839Y-149044896D02*
X201548839Y-149282991D01*
X201548839Y-149282991D02*
X201501220Y-149473467D01*
X201501220Y-149473467D02*
X201453601Y-149568705D01*
X201453601Y-149568705D02*
X201405982Y-149616325D01*
X201405982Y-149616325D02*
X201310744Y-149663944D01*
X201310744Y-149663944D02*
X201215506Y-149663944D01*
X201215506Y-149663944D02*
X201120268Y-149616325D01*
X201120268Y-149616325D02*
X201072649Y-149568705D01*
X201072649Y-149568705D02*
X201025030Y-149473467D01*
X201025030Y-149473467D02*
X200977411Y-149282991D01*
X200977411Y-149282991D02*
X200977411Y-149044896D01*
X200977411Y-149044896D02*
X201025030Y-148854420D01*
X201025030Y-148854420D02*
X201072649Y-148759182D01*
X201072649Y-148759182D02*
X201120268Y-148711563D01*
X201120268Y-148711563D02*
X201215506Y-148663944D01*
X251388720Y-168428229D02*
X251864910Y-168428229D01*
X251293482Y-168713944D02*
X251626815Y-167713944D01*
X251626815Y-167713944D02*
X251960148Y-168713944D01*
X252436339Y-168713944D02*
X252341101Y-168666325D01*
X252341101Y-168666325D02*
X252293482Y-168571086D01*
X252293482Y-168571086D02*
X252293482Y-167713944D01*
X252674435Y-168047277D02*
X253055387Y-168047277D01*
X252817292Y-167713944D02*
X252817292Y-168571086D01*
X252817292Y-168571086D02*
X252864911Y-168666325D01*
X252864911Y-168666325D02*
X252960149Y-168713944D01*
X252960149Y-168713944D02*
X253055387Y-168713944D01*
X253341102Y-167809182D02*
X253388721Y-167761563D01*
X253388721Y-167761563D02*
X253483959Y-167713944D01*
X253483959Y-167713944D02*
X253722054Y-167713944D01*
X253722054Y-167713944D02*
X253817292Y-167761563D01*
X253817292Y-167761563D02*
X253864911Y-167809182D01*
X253864911Y-167809182D02*
X253912530Y-167904420D01*
X253912530Y-167904420D02*
X253912530Y-167999658D01*
X253912530Y-167999658D02*
X253864911Y-168142515D01*
X253864911Y-168142515D02*
X253293483Y-168713944D01*
X253293483Y-168713944D02*
X253912530Y-168713944D01*
X61336905Y-92298866D02*
X61384524Y-92251247D01*
X61384524Y-92251247D02*
X61479762Y-92203628D01*
X61479762Y-92203628D02*
X61670238Y-92298866D01*
X61670238Y-92298866D02*
X61765476Y-92251247D01*
X61765476Y-92251247D02*
X61813095Y-92203628D01*
X62717857Y-92679819D02*
X62146429Y-92679819D01*
X62432143Y-92679819D02*
X62432143Y-91679819D01*
X62432143Y-91679819D02*
X62336905Y-91822676D01*
X62336905Y-91822676D02*
X62241667Y-91917914D01*
X62241667Y-91917914D02*
X62146429Y-91965533D01*
X223599435Y-111563944D02*
X223599435Y-110563944D01*
X224599434Y-111563944D02*
X224028006Y-111563944D01*
X224313720Y-111563944D02*
X224313720Y-110563944D01*
X224313720Y-110563944D02*
X224218482Y-110706801D01*
X224218482Y-110706801D02*
X224123244Y-110802039D01*
X224123244Y-110802039D02*
X224028006Y-110849658D01*
X345707143Y-130529819D02*
X345707143Y-129529819D01*
X345707143Y-129529819D02*
X346088095Y-129529819D01*
X346088095Y-129529819D02*
X346183333Y-129577438D01*
X346183333Y-129577438D02*
X346230952Y-129625057D01*
X346230952Y-129625057D02*
X346278571Y-129720295D01*
X346278571Y-129720295D02*
X346278571Y-129863152D01*
X346278571Y-129863152D02*
X346230952Y-129958390D01*
X346230952Y-129958390D02*
X346183333Y-130006009D01*
X346183333Y-130006009D02*
X346088095Y-130053628D01*
X346088095Y-130053628D02*
X345707143Y-130053628D01*
X347135714Y-129863152D02*
X347135714Y-130672676D01*
X347135714Y-130672676D02*
X347088095Y-130767914D01*
X347088095Y-130767914D02*
X347040476Y-130815533D01*
X347040476Y-130815533D02*
X346945238Y-130863152D01*
X346945238Y-130863152D02*
X346802381Y-130863152D01*
X346802381Y-130863152D02*
X346707143Y-130815533D01*
X347135714Y-130482200D02*
X347040476Y-130529819D01*
X347040476Y-130529819D02*
X346850000Y-130529819D01*
X346850000Y-130529819D02*
X346754762Y-130482200D01*
X346754762Y-130482200D02*
X346707143Y-130434580D01*
X346707143Y-130434580D02*
X346659524Y-130339342D01*
X346659524Y-130339342D02*
X346659524Y-130053628D01*
X346659524Y-130053628D02*
X346707143Y-129958390D01*
X346707143Y-129958390D02*
X346754762Y-129910771D01*
X346754762Y-129910771D02*
X346850000Y-129863152D01*
X346850000Y-129863152D02*
X347040476Y-129863152D01*
X347040476Y-129863152D02*
X347135714Y-129910771D01*
X347611905Y-130529819D02*
X347611905Y-129529819D01*
X347611905Y-129529819D02*
X347850000Y-129529819D01*
X347850000Y-129529819D02*
X347992857Y-129577438D01*
X347992857Y-129577438D02*
X348088095Y-129672676D01*
X348088095Y-129672676D02*
X348135714Y-129767914D01*
X348135714Y-129767914D02*
X348183333Y-129958390D01*
X348183333Y-129958390D02*
X348183333Y-130101247D01*
X348183333Y-130101247D02*
X348135714Y-130291723D01*
X348135714Y-130291723D02*
X348088095Y-130386961D01*
X348088095Y-130386961D02*
X347992857Y-130482200D01*
X347992857Y-130482200D02*
X347850000Y-130529819D01*
X347850000Y-130529819D02*
X347611905Y-130529819D01*
X348611905Y-129863152D02*
X348611905Y-130529819D01*
X348611905Y-129958390D02*
X348659524Y-129910771D01*
X348659524Y-129910771D02*
X348754762Y-129863152D01*
X348754762Y-129863152D02*
X348897619Y-129863152D01*
X348897619Y-129863152D02*
X348992857Y-129910771D01*
X348992857Y-129910771D02*
X349040476Y-130006009D01*
X349040476Y-130006009D02*
X349040476Y-130529819D01*
X350040476Y-130529819D02*
X349469048Y-130529819D01*
X349754762Y-130529819D02*
X349754762Y-129529819D01*
X349754762Y-129529819D02*
X349659524Y-129672676D01*
X349659524Y-129672676D02*
X349564286Y-129767914D01*
X349564286Y-129767914D02*
X349469048Y-129815533D01*
X161353601Y-148663944D02*
X161686934Y-149663944D01*
X161686934Y-149663944D02*
X162020267Y-148663944D01*
X162877410Y-149663944D02*
X162305982Y-149663944D01*
X162591696Y-149663944D02*
X162591696Y-148663944D01*
X162591696Y-148663944D02*
X162496458Y-148806801D01*
X162496458Y-148806801D02*
X162401220Y-148902039D01*
X162401220Y-148902039D02*
X162305982Y-148949658D01*
X137660149Y-91847277D02*
X137660149Y-92513944D01*
X137660149Y-91942515D02*
X137707768Y-91894896D01*
X137707768Y-91894896D02*
X137803006Y-91847277D01*
X137803006Y-91847277D02*
X137945863Y-91847277D01*
X137945863Y-91847277D02*
X138041101Y-91894896D01*
X138041101Y-91894896D02*
X138088720Y-91990134D01*
X138088720Y-91990134D02*
X138088720Y-92513944D01*
X138993482Y-91847277D02*
X138993482Y-92513944D01*
X138755387Y-91466325D02*
X138517292Y-92180610D01*
X138517292Y-92180610D02*
X139136339Y-92180610D01*
X256936935Y-149568705D02*
X256984554Y-149616325D01*
X256984554Y-149616325D02*
X256936935Y-149663944D01*
X256936935Y-149663944D02*
X256889316Y-149616325D01*
X256889316Y-149616325D02*
X256936935Y-149568705D01*
X256936935Y-149568705D02*
X256936935Y-149663944D01*
X257936934Y-149663944D02*
X257365506Y-149663944D01*
X257651220Y-149663944D02*
X257651220Y-148663944D01*
X257651220Y-148663944D02*
X257555982Y-148806801D01*
X257555982Y-148806801D02*
X257460744Y-148902039D01*
X257460744Y-148902039D02*
X257365506Y-148949658D01*
X65246458Y-110563944D02*
X65817886Y-110563944D01*
X65532172Y-111563944D02*
X65532172Y-110563944D01*
X66579791Y-111563944D02*
X66579791Y-111040134D01*
X66579791Y-111040134D02*
X66532172Y-110944896D01*
X66532172Y-110944896D02*
X66436934Y-110897277D01*
X66436934Y-110897277D02*
X66246458Y-110897277D01*
X66246458Y-110897277D02*
X66151220Y-110944896D01*
X66579791Y-111516325D02*
X66484553Y-111563944D01*
X66484553Y-111563944D02*
X66246458Y-111563944D01*
X66246458Y-111563944D02*
X66151220Y-111516325D01*
X66151220Y-111516325D02*
X66103601Y-111421086D01*
X66103601Y-111421086D02*
X66103601Y-111325848D01*
X66103601Y-111325848D02*
X66151220Y-111230610D01*
X66151220Y-111230610D02*
X66246458Y-111182991D01*
X66246458Y-111182991D02*
X66484553Y-111182991D01*
X66484553Y-111182991D02*
X66579791Y-111135372D01*
X67055982Y-111563944D02*
X67055982Y-110563944D01*
X67055982Y-110944896D02*
X67151220Y-110897277D01*
X67151220Y-110897277D02*
X67341696Y-110897277D01*
X67341696Y-110897277D02*
X67436934Y-110944896D01*
X67436934Y-110944896D02*
X67484553Y-110992515D01*
X67484553Y-110992515D02*
X67532172Y-111087753D01*
X67532172Y-111087753D02*
X67532172Y-111373467D01*
X67532172Y-111373467D02*
X67484553Y-111468705D01*
X67484553Y-111468705D02*
X67436934Y-111516325D01*
X67436934Y-111516325D02*
X67341696Y-111563944D01*
X67341696Y-111563944D02*
X67151220Y-111563944D01*
X67151220Y-111563944D02*
X67055982Y-111516325D01*
X68484553Y-111563944D02*
X67913125Y-111563944D01*
X68198839Y-111563944D02*
X68198839Y-110563944D01*
X68198839Y-110563944D02*
X68103601Y-110706801D01*
X68103601Y-110706801D02*
X68008363Y-110802039D01*
X68008363Y-110802039D02*
X67913125Y-110849658D01*
X213860149Y-91847277D02*
X213860149Y-92513944D01*
X213860149Y-91942515D02*
X213907768Y-91894896D01*
X213907768Y-91894896D02*
X214003006Y-91847277D01*
X214003006Y-91847277D02*
X214145863Y-91847277D01*
X214145863Y-91847277D02*
X214241101Y-91894896D01*
X214241101Y-91894896D02*
X214288720Y-91990134D01*
X214288720Y-91990134D02*
X214288720Y-92513944D01*
X214907768Y-91942515D02*
X214812530Y-91894896D01*
X214812530Y-91894896D02*
X214764911Y-91847277D01*
X214764911Y-91847277D02*
X214717292Y-91752039D01*
X214717292Y-91752039D02*
X214717292Y-91704420D01*
X214717292Y-91704420D02*
X214764911Y-91609182D01*
X214764911Y-91609182D02*
X214812530Y-91561563D01*
X214812530Y-91561563D02*
X214907768Y-91513944D01*
X214907768Y-91513944D02*
X215098244Y-91513944D01*
X215098244Y-91513944D02*
X215193482Y-91561563D01*
X215193482Y-91561563D02*
X215241101Y-91609182D01*
X215241101Y-91609182D02*
X215288720Y-91704420D01*
X215288720Y-91704420D02*
X215288720Y-91752039D01*
X215288720Y-91752039D02*
X215241101Y-91847277D01*
X215241101Y-91847277D02*
X215193482Y-91894896D01*
X215193482Y-91894896D02*
X215098244Y-91942515D01*
X215098244Y-91942515D02*
X214907768Y-91942515D01*
X214907768Y-91942515D02*
X214812530Y-91990134D01*
X214812530Y-91990134D02*
X214764911Y-92037753D01*
X214764911Y-92037753D02*
X214717292Y-92132991D01*
X214717292Y-92132991D02*
X214717292Y-92323467D01*
X214717292Y-92323467D02*
X214764911Y-92418705D01*
X214764911Y-92418705D02*
X214812530Y-92466325D01*
X214812530Y-92466325D02*
X214907768Y-92513944D01*
X214907768Y-92513944D02*
X215098244Y-92513944D01*
X215098244Y-92513944D02*
X215193482Y-92466325D01*
X215193482Y-92466325D02*
X215241101Y-92418705D01*
X215241101Y-92418705D02*
X215288720Y-92323467D01*
X215288720Y-92323467D02*
X215288720Y-92132991D01*
X215288720Y-92132991D02*
X215241101Y-92037753D01*
X215241101Y-92037753D02*
X215193482Y-91990134D01*
X215193482Y-91990134D02*
X215098244Y-91942515D01*
X156710149Y-91847277D02*
X156710149Y-92513944D01*
X156710149Y-91942515D02*
X156757768Y-91894896D01*
X156757768Y-91894896D02*
X156853006Y-91847277D01*
X156853006Y-91847277D02*
X156995863Y-91847277D01*
X156995863Y-91847277D02*
X157091101Y-91894896D01*
X157091101Y-91894896D02*
X157138720Y-91990134D01*
X157138720Y-91990134D02*
X157138720Y-92513944D01*
X158091101Y-91513944D02*
X157614911Y-91513944D01*
X157614911Y-91513944D02*
X157567292Y-91990134D01*
X157567292Y-91990134D02*
X157614911Y-91942515D01*
X157614911Y-91942515D02*
X157710149Y-91894896D01*
X157710149Y-91894896D02*
X157948244Y-91894896D01*
X157948244Y-91894896D02*
X158043482Y-91942515D01*
X158043482Y-91942515D02*
X158091101Y-91990134D01*
X158091101Y-91990134D02*
X158138720Y-92085372D01*
X158138720Y-92085372D02*
X158138720Y-92323467D01*
X158138720Y-92323467D02*
X158091101Y-92418705D01*
X158091101Y-92418705D02*
X158043482Y-92466325D01*
X158043482Y-92466325D02*
X157948244Y-92513944D01*
X157948244Y-92513944D02*
X157710149Y-92513944D01*
X157710149Y-92513944D02*
X157614911Y-92466325D01*
X157614911Y-92466325D02*
X157567292Y-92418705D01*
X195167291Y-72940134D02*
X194833958Y-72940134D01*
X194833958Y-73463944D02*
X194833958Y-72463944D01*
X194833958Y-72463944D02*
X195310148Y-72463944D01*
X195595863Y-72463944D02*
X196262529Y-72463944D01*
X196262529Y-72463944D02*
X195833958Y-73463944D01*
X80510149Y-91847277D02*
X80510149Y-92513944D01*
X80510149Y-91942515D02*
X80557768Y-91894896D01*
X80557768Y-91894896D02*
X80653006Y-91847277D01*
X80653006Y-91847277D02*
X80795863Y-91847277D01*
X80795863Y-91847277D02*
X80891101Y-91894896D01*
X80891101Y-91894896D02*
X80938720Y-91990134D01*
X80938720Y-91990134D02*
X80938720Y-92513944D01*
X81938720Y-92513944D02*
X81367292Y-92513944D01*
X81653006Y-92513944D02*
X81653006Y-91513944D01*
X81653006Y-91513944D02*
X81557768Y-91656801D01*
X81557768Y-91656801D02*
X81462530Y-91752039D01*
X81462530Y-91752039D02*
X81367292Y-91799658D01*
X237934554Y-149616325D02*
X237934554Y-149663944D01*
X237934554Y-149663944D02*
X237886935Y-149759182D01*
X237886935Y-149759182D02*
X237839316Y-149806801D01*
X238886934Y-149663944D02*
X238315506Y-149663944D01*
X238601220Y-149663944D02*
X238601220Y-148663944D01*
X238601220Y-148663944D02*
X238505982Y-148806801D01*
X238505982Y-148806801D02*
X238410744Y-148902039D01*
X238410744Y-148902039D02*
X238315506Y-148949658D01*
X90630386Y-111659182D02*
X90535148Y-111611563D01*
X90535148Y-111611563D02*
X90439910Y-111516325D01*
X90439910Y-111516325D02*
X90297053Y-111373467D01*
X90297053Y-111373467D02*
X90201815Y-111325848D01*
X90201815Y-111325848D02*
X90106577Y-111325848D01*
X90154196Y-111563944D02*
X90058958Y-111516325D01*
X90058958Y-111516325D02*
X89963720Y-111421086D01*
X89963720Y-111421086D02*
X89916101Y-111230610D01*
X89916101Y-111230610D02*
X89916101Y-110897277D01*
X89916101Y-110897277D02*
X89963720Y-110706801D01*
X89963720Y-110706801D02*
X90058958Y-110611563D01*
X90058958Y-110611563D02*
X90154196Y-110563944D01*
X90154196Y-110563944D02*
X90344672Y-110563944D01*
X90344672Y-110563944D02*
X90439910Y-110611563D01*
X90439910Y-110611563D02*
X90535148Y-110706801D01*
X90535148Y-110706801D02*
X90582767Y-110897277D01*
X90582767Y-110897277D02*
X90582767Y-111230610D01*
X90582767Y-111230610D02*
X90535148Y-111421086D01*
X90535148Y-111421086D02*
X90439910Y-111516325D01*
X90439910Y-111516325D02*
X90344672Y-111563944D01*
X90344672Y-111563944D02*
X90154196Y-111563944D01*
X91535148Y-111563944D02*
X90963720Y-111563944D01*
X91249434Y-111563944D02*
X91249434Y-110563944D01*
X91249434Y-110563944D02*
X91154196Y-110706801D01*
X91154196Y-110706801D02*
X91058958Y-110802039D01*
X91058958Y-110802039D02*
X90963720Y-110849658D01*
X104203601Y-148663944D02*
X104870267Y-148663944D01*
X104870267Y-148663944D02*
X104203601Y-149663944D01*
X104203601Y-149663944D02*
X104870267Y-149663944D01*
X105775029Y-149663944D02*
X105203601Y-149663944D01*
X105489315Y-149663944D02*
X105489315Y-148663944D01*
X105489315Y-148663944D02*
X105394077Y-148806801D01*
X105394077Y-148806801D02*
X105298839Y-148902039D01*
X105298839Y-148902039D02*
X105203601Y-148949658D01*
X276415505Y-148616325D02*
X275558363Y-149902039D01*
X277272648Y-149663944D02*
X276701220Y-149663944D01*
X276986934Y-149663944D02*
X276986934Y-148663944D01*
X276986934Y-148663944D02*
X276891696Y-148806801D01*
X276891696Y-148806801D02*
X276796458Y-148902039D01*
X276796458Y-148902039D02*
X276701220Y-148949658D01*
X113776220Y-130566325D02*
X113919077Y-130613944D01*
X113919077Y-130613944D02*
X114157172Y-130613944D01*
X114157172Y-130613944D02*
X114252410Y-130566325D01*
X114252410Y-130566325D02*
X114300029Y-130518705D01*
X114300029Y-130518705D02*
X114347648Y-130423467D01*
X114347648Y-130423467D02*
X114347648Y-130328229D01*
X114347648Y-130328229D02*
X114300029Y-130232991D01*
X114300029Y-130232991D02*
X114252410Y-130185372D01*
X114252410Y-130185372D02*
X114157172Y-130137753D01*
X114157172Y-130137753D02*
X113966696Y-130090134D01*
X113966696Y-130090134D02*
X113871458Y-130042515D01*
X113871458Y-130042515D02*
X113823839Y-129994896D01*
X113823839Y-129994896D02*
X113776220Y-129899658D01*
X113776220Y-129899658D02*
X113776220Y-129804420D01*
X113776220Y-129804420D02*
X113823839Y-129709182D01*
X113823839Y-129709182D02*
X113871458Y-129661563D01*
X113871458Y-129661563D02*
X113966696Y-129613944D01*
X113966696Y-129613944D02*
X114204791Y-129613944D01*
X114204791Y-129613944D02*
X114347648Y-129661563D01*
X115300029Y-130613944D02*
X114728601Y-130613944D01*
X115014315Y-130613944D02*
X115014315Y-129613944D01*
X115014315Y-129613944D02*
X114919077Y-129756801D01*
X114919077Y-129756801D02*
X114823839Y-129852039D01*
X114823839Y-129852039D02*
X114728601Y-129899658D01*
X247721458Y-130613944D02*
X247245268Y-130613944D01*
X247245268Y-130613944D02*
X247245268Y-129613944D01*
X248578601Y-130613944D02*
X248007173Y-130613944D01*
X248292887Y-130613944D02*
X248292887Y-129613944D01*
X248292887Y-129613944D02*
X248197649Y-129756801D01*
X248197649Y-129756801D02*
X248102411Y-129852039D01*
X248102411Y-129852039D02*
X248007173Y-129899658D01*
X314777708Y-130090134D02*
X315111041Y-130090134D01*
X315253898Y-130613944D02*
X314777708Y-130613944D01*
X314777708Y-130613944D02*
X314777708Y-129613944D01*
X314777708Y-129613944D02*
X315253898Y-129613944D01*
X315682470Y-129947277D02*
X315682470Y-130613944D01*
X315682470Y-130042515D02*
X315730089Y-129994896D01*
X315730089Y-129994896D02*
X315825327Y-129947277D01*
X315825327Y-129947277D02*
X315968184Y-129947277D01*
X315968184Y-129947277D02*
X316063422Y-129994896D01*
X316063422Y-129994896D02*
X316111041Y-130090134D01*
X316111041Y-130090134D02*
X316111041Y-130613944D01*
X316444375Y-129947277D02*
X316825327Y-129947277D01*
X316587232Y-129613944D02*
X316587232Y-130471086D01*
X316587232Y-130471086D02*
X316634851Y-130566325D01*
X316634851Y-130566325D02*
X316730089Y-130613944D01*
X316730089Y-130613944D02*
X316825327Y-130613944D01*
X317539613Y-130566325D02*
X317444375Y-130613944D01*
X317444375Y-130613944D02*
X317253899Y-130613944D01*
X317253899Y-130613944D02*
X317158661Y-130566325D01*
X317158661Y-130566325D02*
X317111042Y-130471086D01*
X317111042Y-130471086D02*
X317111042Y-130090134D01*
X317111042Y-130090134D02*
X317158661Y-129994896D01*
X317158661Y-129994896D02*
X317253899Y-129947277D01*
X317253899Y-129947277D02*
X317444375Y-129947277D01*
X317444375Y-129947277D02*
X317539613Y-129994896D01*
X317539613Y-129994896D02*
X317587232Y-130090134D01*
X317587232Y-130090134D02*
X317587232Y-130185372D01*
X317587232Y-130185372D02*
X317111042Y-130280610D01*
X318015804Y-130613944D02*
X318015804Y-129947277D01*
X318015804Y-130137753D02*
X318063423Y-130042515D01*
X318063423Y-130042515D02*
X318111042Y-129994896D01*
X318111042Y-129994896D02*
X318206280Y-129947277D01*
X318206280Y-129947277D02*
X318301518Y-129947277D01*
X319158661Y-130613944D02*
X318587233Y-130613944D01*
X318872947Y-130613944D02*
X318872947Y-129613944D01*
X318872947Y-129613944D02*
X318777709Y-129756801D01*
X318777709Y-129756801D02*
X318682471Y-129852039D01*
X318682471Y-129852039D02*
X318587233Y-129899658D01*
X228100030Y-130613944D02*
X228100030Y-129613944D01*
X228671458Y-130613944D02*
X228242887Y-130042515D01*
X228671458Y-129613944D02*
X228100030Y-130185372D01*
X229623839Y-130613944D02*
X229052411Y-130613944D01*
X229338125Y-130613944D02*
X229338125Y-129613944D01*
X229338125Y-129613944D02*
X229242887Y-129756801D01*
X229242887Y-129756801D02*
X229147649Y-129852039D01*
X229147649Y-129852039D02*
X229052411Y-129899658D01*
X99917291Y-72940134D02*
X99583958Y-72940134D01*
X99583958Y-73463944D02*
X99583958Y-72463944D01*
X99583958Y-72463944D02*
X100060148Y-72463944D01*
X100393482Y-72559182D02*
X100441101Y-72511563D01*
X100441101Y-72511563D02*
X100536339Y-72463944D01*
X100536339Y-72463944D02*
X100774434Y-72463944D01*
X100774434Y-72463944D02*
X100869672Y-72511563D01*
X100869672Y-72511563D02*
X100917291Y-72559182D01*
X100917291Y-72559182D02*
X100964910Y-72654420D01*
X100964910Y-72654420D02*
X100964910Y-72749658D01*
X100964910Y-72749658D02*
X100917291Y-72892515D01*
X100917291Y-72892515D02*
X100345863Y-73463944D01*
X100345863Y-73463944D02*
X100964910Y-73463944D01*
X345590476Y-92704819D02*
X345590476Y-91704819D01*
X345590476Y-92181009D02*
X346161904Y-92181009D01*
X346161904Y-92704819D02*
X346161904Y-91704819D01*
X346780952Y-92704819D02*
X346685714Y-92657200D01*
X346685714Y-92657200D02*
X346638095Y-92609580D01*
X346638095Y-92609580D02*
X346590476Y-92514342D01*
X346590476Y-92514342D02*
X346590476Y-92228628D01*
X346590476Y-92228628D02*
X346638095Y-92133390D01*
X346638095Y-92133390D02*
X346685714Y-92085771D01*
X346685714Y-92085771D02*
X346780952Y-92038152D01*
X346780952Y-92038152D02*
X346923809Y-92038152D01*
X346923809Y-92038152D02*
X347019047Y-92085771D01*
X347019047Y-92085771D02*
X347066666Y-92133390D01*
X347066666Y-92133390D02*
X347114285Y-92228628D01*
X347114285Y-92228628D02*
X347114285Y-92514342D01*
X347114285Y-92514342D02*
X347066666Y-92609580D01*
X347066666Y-92609580D02*
X347019047Y-92657200D01*
X347019047Y-92657200D02*
X346923809Y-92704819D01*
X346923809Y-92704819D02*
X346780952Y-92704819D01*
X347542857Y-92704819D02*
X347542857Y-92038152D01*
X347542857Y-92133390D02*
X347590476Y-92085771D01*
X347590476Y-92085771D02*
X347685714Y-92038152D01*
X347685714Y-92038152D02*
X347828571Y-92038152D01*
X347828571Y-92038152D02*
X347923809Y-92085771D01*
X347923809Y-92085771D02*
X347971428Y-92181009D01*
X347971428Y-92181009D02*
X347971428Y-92704819D01*
X347971428Y-92181009D02*
X348019047Y-92085771D01*
X348019047Y-92085771D02*
X348114285Y-92038152D01*
X348114285Y-92038152D02*
X348257142Y-92038152D01*
X348257142Y-92038152D02*
X348352381Y-92085771D01*
X348352381Y-92085771D02*
X348400000Y-92181009D01*
X348400000Y-92181009D02*
X348400000Y-92704819D01*
X349257142Y-92657200D02*
X349161904Y-92704819D01*
X349161904Y-92704819D02*
X348971428Y-92704819D01*
X348971428Y-92704819D02*
X348876190Y-92657200D01*
X348876190Y-92657200D02*
X348828571Y-92561961D01*
X348828571Y-92561961D02*
X348828571Y-92181009D01*
X348828571Y-92181009D02*
X348876190Y-92085771D01*
X348876190Y-92085771D02*
X348971428Y-92038152D01*
X348971428Y-92038152D02*
X349161904Y-92038152D01*
X349161904Y-92038152D02*
X349257142Y-92085771D01*
X349257142Y-92085771D02*
X349304761Y-92181009D01*
X349304761Y-92181009D02*
X349304761Y-92276247D01*
X349304761Y-92276247D02*
X348828571Y-92371485D01*
X350257142Y-92704819D02*
X349685714Y-92704819D01*
X349971428Y-92704819D02*
X349971428Y-91704819D01*
X349971428Y-91704819D02*
X349876190Y-91847676D01*
X349876190Y-91847676D02*
X349780952Y-91942914D01*
X349780952Y-91942914D02*
X349685714Y-91990533D01*
X270914910Y-168190134D02*
X270581577Y-168190134D01*
X270581577Y-168713944D02*
X270581577Y-167713944D01*
X270581577Y-167713944D02*
X271057767Y-167713944D01*
X271438720Y-168047277D02*
X271438720Y-168713944D01*
X271438720Y-168142515D02*
X271486339Y-168094896D01*
X271486339Y-168094896D02*
X271581577Y-168047277D01*
X271581577Y-168047277D02*
X271724434Y-168047277D01*
X271724434Y-168047277D02*
X271819672Y-168094896D01*
X271819672Y-168094896D02*
X271867291Y-168190134D01*
X271867291Y-168190134D02*
X271867291Y-168713944D01*
X272867291Y-168713944D02*
X272295863Y-168713944D01*
X272581577Y-168713944D02*
X272581577Y-167713944D01*
X272581577Y-167713944D02*
X272486339Y-167856801D01*
X272486339Y-167856801D02*
X272391101Y-167952039D01*
X272391101Y-167952039D02*
X272295863Y-167999658D01*
X251960149Y-91847277D02*
X251960149Y-92513944D01*
X251960149Y-91942515D02*
X252007768Y-91894896D01*
X252007768Y-91894896D02*
X252103006Y-91847277D01*
X252103006Y-91847277D02*
X252245863Y-91847277D01*
X252245863Y-91847277D02*
X252341101Y-91894896D01*
X252341101Y-91894896D02*
X252388720Y-91990134D01*
X252388720Y-91990134D02*
X252388720Y-92513944D01*
X253055387Y-91513944D02*
X253150625Y-91513944D01*
X253150625Y-91513944D02*
X253245863Y-91561563D01*
X253245863Y-91561563D02*
X253293482Y-91609182D01*
X253293482Y-91609182D02*
X253341101Y-91704420D01*
X253341101Y-91704420D02*
X253388720Y-91894896D01*
X253388720Y-91894896D02*
X253388720Y-92132991D01*
X253388720Y-92132991D02*
X253341101Y-92323467D01*
X253341101Y-92323467D02*
X253293482Y-92418705D01*
X253293482Y-92418705D02*
X253245863Y-92466325D01*
X253245863Y-92466325D02*
X253150625Y-92513944D01*
X253150625Y-92513944D02*
X253055387Y-92513944D01*
X253055387Y-92513944D02*
X252960149Y-92466325D01*
X252960149Y-92466325D02*
X252912530Y-92418705D01*
X252912530Y-92418705D02*
X252864911Y-92323467D01*
X252864911Y-92323467D02*
X252817292Y-92132991D01*
X252817292Y-92132991D02*
X252817292Y-91894896D01*
X252817292Y-91894896D02*
X252864911Y-91704420D01*
X252864911Y-91704420D02*
X252912530Y-91609182D01*
X252912530Y-91609182D02*
X252960149Y-91561563D01*
X252960149Y-91561563D02*
X253055387Y-91513944D01*
X132373839Y-130613944D02*
X132373839Y-129613944D01*
X132373839Y-129613944D02*
X132611934Y-129613944D01*
X132611934Y-129613944D02*
X132754791Y-129661563D01*
X132754791Y-129661563D02*
X132850029Y-129756801D01*
X132850029Y-129756801D02*
X132897648Y-129852039D01*
X132897648Y-129852039D02*
X132945267Y-130042515D01*
X132945267Y-130042515D02*
X132945267Y-130185372D01*
X132945267Y-130185372D02*
X132897648Y-130375848D01*
X132897648Y-130375848D02*
X132850029Y-130471086D01*
X132850029Y-130471086D02*
X132754791Y-130566325D01*
X132754791Y-130566325D02*
X132611934Y-130613944D01*
X132611934Y-130613944D02*
X132373839Y-130613944D01*
X133278601Y-129613944D02*
X133897648Y-129613944D01*
X133897648Y-129613944D02*
X133564315Y-129994896D01*
X133564315Y-129994896D02*
X133707172Y-129994896D01*
X133707172Y-129994896D02*
X133802410Y-130042515D01*
X133802410Y-130042515D02*
X133850029Y-130090134D01*
X133850029Y-130090134D02*
X133897648Y-130185372D01*
X133897648Y-130185372D02*
X133897648Y-130423467D01*
X133897648Y-130423467D02*
X133850029Y-130518705D01*
X133850029Y-130518705D02*
X133802410Y-130566325D01*
X133802410Y-130566325D02*
X133707172Y-130613944D01*
X133707172Y-130613944D02*
X133421458Y-130613944D01*
X133421458Y-130613944D02*
X133326220Y-130566325D01*
X133326220Y-130566325D02*
X133278601Y-130518705D01*
X134516696Y-129613944D02*
X134611934Y-129613944D01*
X134611934Y-129613944D02*
X134707172Y-129661563D01*
X134707172Y-129661563D02*
X134754791Y-129709182D01*
X134754791Y-129709182D02*
X134802410Y-129804420D01*
X134802410Y-129804420D02*
X134850029Y-129994896D01*
X134850029Y-129994896D02*
X134850029Y-130232991D01*
X134850029Y-130232991D02*
X134802410Y-130423467D01*
X134802410Y-130423467D02*
X134754791Y-130518705D01*
X134754791Y-130518705D02*
X134707172Y-130566325D01*
X134707172Y-130566325D02*
X134611934Y-130613944D01*
X134611934Y-130613944D02*
X134516696Y-130613944D01*
X134516696Y-130613944D02*
X134421458Y-130566325D01*
X134421458Y-130566325D02*
X134373839Y-130518705D01*
X134373839Y-130518705D02*
X134326220Y-130423467D01*
X134326220Y-130423467D02*
X134278601Y-130232991D01*
X134278601Y-130232991D02*
X134278601Y-129994896D01*
X134278601Y-129994896D02*
X134326220Y-129804420D01*
X134326220Y-129804420D02*
X134373839Y-129709182D01*
X134373839Y-129709182D02*
X134421458Y-129661563D01*
X134421458Y-129661563D02*
X134516696Y-129613944D01*
X204263720Y-110563944D02*
X204263720Y-111373467D01*
X204263720Y-111373467D02*
X204311339Y-111468705D01*
X204311339Y-111468705D02*
X204358958Y-111516325D01*
X204358958Y-111516325D02*
X204454196Y-111563944D01*
X204454196Y-111563944D02*
X204644672Y-111563944D01*
X204644672Y-111563944D02*
X204739910Y-111516325D01*
X204739910Y-111516325D02*
X204787529Y-111468705D01*
X204787529Y-111468705D02*
X204835148Y-111373467D01*
X204835148Y-111373467D02*
X204835148Y-110563944D01*
X205835148Y-111563944D02*
X205263720Y-111563944D01*
X205549434Y-111563944D02*
X205549434Y-110563944D01*
X205549434Y-110563944D02*
X205454196Y-110706801D01*
X205454196Y-110706801D02*
X205358958Y-110802039D01*
X205358958Y-110802039D02*
X205263720Y-110849658D01*
X307443482Y-73463944D02*
X307443482Y-72463944D01*
X307919672Y-72797277D02*
X307919672Y-73463944D01*
X307919672Y-72892515D02*
X307967291Y-72844896D01*
X307967291Y-72844896D02*
X308062529Y-72797277D01*
X308062529Y-72797277D02*
X308205386Y-72797277D01*
X308205386Y-72797277D02*
X308300624Y-72844896D01*
X308300624Y-72844896D02*
X308348243Y-72940134D01*
X308348243Y-72940134D02*
X308348243Y-73463944D01*
X308776815Y-73416325D02*
X308872053Y-73463944D01*
X308872053Y-73463944D02*
X309062529Y-73463944D01*
X309062529Y-73463944D02*
X309157767Y-73416325D01*
X309157767Y-73416325D02*
X309205386Y-73321086D01*
X309205386Y-73321086D02*
X309205386Y-73273467D01*
X309205386Y-73273467D02*
X309157767Y-73178229D01*
X309157767Y-73178229D02*
X309062529Y-73130610D01*
X309062529Y-73130610D02*
X308919672Y-73130610D01*
X308919672Y-73130610D02*
X308824434Y-73082991D01*
X308824434Y-73082991D02*
X308776815Y-72987753D01*
X308776815Y-72987753D02*
X308776815Y-72940134D01*
X308776815Y-72940134D02*
X308824434Y-72844896D01*
X308824434Y-72844896D02*
X308919672Y-72797277D01*
X308919672Y-72797277D02*
X309062529Y-72797277D01*
X309062529Y-72797277D02*
X309157767Y-72844896D01*
X310014910Y-73416325D02*
X309919672Y-73463944D01*
X309919672Y-73463944D02*
X309729196Y-73463944D01*
X309729196Y-73463944D02*
X309633958Y-73416325D01*
X309633958Y-73416325D02*
X309586339Y-73321086D01*
X309586339Y-73321086D02*
X309586339Y-72940134D01*
X309586339Y-72940134D02*
X309633958Y-72844896D01*
X309633958Y-72844896D02*
X309729196Y-72797277D01*
X309729196Y-72797277D02*
X309919672Y-72797277D01*
X309919672Y-72797277D02*
X310014910Y-72844896D01*
X310014910Y-72844896D02*
X310062529Y-72940134D01*
X310062529Y-72940134D02*
X310062529Y-73035372D01*
X310062529Y-73035372D02*
X309586339Y-73130610D01*
X310491101Y-73463944D02*
X310491101Y-72797277D01*
X310491101Y-72987753D02*
X310538720Y-72892515D01*
X310538720Y-72892515D02*
X310586339Y-72844896D01*
X310586339Y-72844896D02*
X310681577Y-72797277D01*
X310681577Y-72797277D02*
X310776815Y-72797277D01*
X310967292Y-72797277D02*
X311348244Y-72797277D01*
X311110149Y-72463944D02*
X311110149Y-73321086D01*
X311110149Y-73321086D02*
X311157768Y-73416325D01*
X311157768Y-73416325D02*
X311253006Y-73463944D01*
X311253006Y-73463944D02*
X311348244Y-73463944D01*
X312205387Y-73463944D02*
X311633959Y-73463944D01*
X311919673Y-73463944D02*
X311919673Y-72463944D01*
X311919673Y-72463944D02*
X311824435Y-72606801D01*
X311824435Y-72606801D02*
X311729197Y-72702039D01*
X311729197Y-72702039D02*
X311633959Y-72749658D01*
X138017291Y-72940134D02*
X137683958Y-72940134D01*
X137683958Y-73463944D02*
X137683958Y-72463944D01*
X137683958Y-72463944D02*
X138160148Y-72463944D01*
X138969672Y-72797277D02*
X138969672Y-73463944D01*
X138731577Y-72416325D02*
X138493482Y-73130610D01*
X138493482Y-73130610D02*
X139112529Y-73130610D01*
X309705387Y-168047277D02*
X308943482Y-168332991D01*
X308943482Y-168332991D02*
X309705387Y-168618705D01*
X310705386Y-168713944D02*
X310133958Y-168713944D01*
X310419672Y-168713944D02*
X310419672Y-167713944D01*
X310419672Y-167713944D02*
X310324434Y-167856801D01*
X310324434Y-167856801D02*
X310229196Y-167952039D01*
X310229196Y-167952039D02*
X310133958Y-167999658D01*
X176117291Y-72940134D02*
X175783958Y-72940134D01*
X175783958Y-73463944D02*
X175783958Y-72463944D01*
X175783958Y-72463944D02*
X176260148Y-72463944D01*
X177069672Y-72463944D02*
X176879196Y-72463944D01*
X176879196Y-72463944D02*
X176783958Y-72511563D01*
X176783958Y-72511563D02*
X176736339Y-72559182D01*
X176736339Y-72559182D02*
X176641101Y-72702039D01*
X176641101Y-72702039D02*
X176593482Y-72892515D01*
X176593482Y-72892515D02*
X176593482Y-73273467D01*
X176593482Y-73273467D02*
X176641101Y-73368705D01*
X176641101Y-73368705D02*
X176688720Y-73416325D01*
X176688720Y-73416325D02*
X176783958Y-73463944D01*
X176783958Y-73463944D02*
X176974434Y-73463944D01*
X176974434Y-73463944D02*
X177069672Y-73416325D01*
X177069672Y-73416325D02*
X177117291Y-73368705D01*
X177117291Y-73368705D02*
X177164910Y-73273467D01*
X177164910Y-73273467D02*
X177164910Y-73035372D01*
X177164910Y-73035372D02*
X177117291Y-72940134D01*
X177117291Y-72940134D02*
X177069672Y-72892515D01*
X177069672Y-72892515D02*
X176974434Y-72844896D01*
X176974434Y-72844896D02*
X176783958Y-72844896D01*
X176783958Y-72844896D02*
X176688720Y-72892515D01*
X176688720Y-72892515D02*
X176641101Y-72940134D01*
X176641101Y-72940134D02*
X176593482Y-73035372D01*
X94773839Y-130328229D02*
X95250029Y-130328229D01*
X94678601Y-130613944D02*
X95011934Y-129613944D01*
X95011934Y-129613944D02*
X95345267Y-130613944D01*
X95630982Y-129709182D02*
X95678601Y-129661563D01*
X95678601Y-129661563D02*
X95773839Y-129613944D01*
X95773839Y-129613944D02*
X96011934Y-129613944D01*
X96011934Y-129613944D02*
X96107172Y-129661563D01*
X96107172Y-129661563D02*
X96154791Y-129709182D01*
X96154791Y-129709182D02*
X96202410Y-129804420D01*
X96202410Y-129804420D02*
X96202410Y-129899658D01*
X96202410Y-129899658D02*
X96154791Y-130042515D01*
X96154791Y-130042515D02*
X95583363Y-130613944D01*
X95583363Y-130613944D02*
X96202410Y-130613944D01*
X67798809Y-130209580D02*
X67751190Y-130257200D01*
X67751190Y-130257200D02*
X67608333Y-130304819D01*
X67608333Y-130304819D02*
X67513095Y-130304819D01*
X67513095Y-130304819D02*
X67370238Y-130257200D01*
X67370238Y-130257200D02*
X67275000Y-130161961D01*
X67275000Y-130161961D02*
X67227381Y-130066723D01*
X67227381Y-130066723D02*
X67179762Y-129876247D01*
X67179762Y-129876247D02*
X67179762Y-129733390D01*
X67179762Y-129733390D02*
X67227381Y-129542914D01*
X67227381Y-129542914D02*
X67275000Y-129447676D01*
X67275000Y-129447676D02*
X67370238Y-129352438D01*
X67370238Y-129352438D02*
X67513095Y-129304819D01*
X67513095Y-129304819D02*
X67608333Y-129304819D01*
X67608333Y-129304819D02*
X67751190Y-129352438D01*
X67751190Y-129352438D02*
X67798809Y-129400057D01*
X68655952Y-130304819D02*
X68655952Y-129781009D01*
X68655952Y-129781009D02*
X68608333Y-129685771D01*
X68608333Y-129685771D02*
X68513095Y-129638152D01*
X68513095Y-129638152D02*
X68322619Y-129638152D01*
X68322619Y-129638152D02*
X68227381Y-129685771D01*
X68655952Y-130257200D02*
X68560714Y-130304819D01*
X68560714Y-130304819D02*
X68322619Y-130304819D01*
X68322619Y-130304819D02*
X68227381Y-130257200D01*
X68227381Y-130257200D02*
X68179762Y-130161961D01*
X68179762Y-130161961D02*
X68179762Y-130066723D01*
X68179762Y-130066723D02*
X68227381Y-129971485D01*
X68227381Y-129971485D02*
X68322619Y-129923866D01*
X68322619Y-129923866D02*
X68560714Y-129923866D01*
X68560714Y-129923866D02*
X68655952Y-129876247D01*
X69132143Y-129638152D02*
X69132143Y-130638152D01*
X69132143Y-129685771D02*
X69227381Y-129638152D01*
X69227381Y-129638152D02*
X69417857Y-129638152D01*
X69417857Y-129638152D02*
X69513095Y-129685771D01*
X69513095Y-129685771D02*
X69560714Y-129733390D01*
X69560714Y-129733390D02*
X69608333Y-129828628D01*
X69608333Y-129828628D02*
X69608333Y-130114342D01*
X69608333Y-130114342D02*
X69560714Y-130209580D01*
X69560714Y-130209580D02*
X69513095Y-130257200D01*
X69513095Y-130257200D02*
X69417857Y-130304819D01*
X69417857Y-130304819D02*
X69227381Y-130304819D01*
X69227381Y-130304819D02*
X69132143Y-130257200D01*
X69989286Y-130257200D02*
X70084524Y-130304819D01*
X70084524Y-130304819D02*
X70275000Y-130304819D01*
X70275000Y-130304819D02*
X70370238Y-130257200D01*
X70370238Y-130257200D02*
X70417857Y-130161961D01*
X70417857Y-130161961D02*
X70417857Y-130114342D01*
X70417857Y-130114342D02*
X70370238Y-130019104D01*
X70370238Y-130019104D02*
X70275000Y-129971485D01*
X70275000Y-129971485D02*
X70132143Y-129971485D01*
X70132143Y-129971485D02*
X70036905Y-129923866D01*
X70036905Y-129923866D02*
X69989286Y-129828628D01*
X69989286Y-129828628D02*
X69989286Y-129781009D01*
X69989286Y-129781009D02*
X70036905Y-129685771D01*
X70036905Y-129685771D02*
X70132143Y-129638152D01*
X70132143Y-129638152D02*
X70275000Y-129638152D01*
X70275000Y-129638152D02*
X70370238Y-129685771D01*
X71370238Y-130304819D02*
X70798810Y-130304819D01*
X71084524Y-130304819D02*
X71084524Y-129304819D01*
X71084524Y-129304819D02*
X70989286Y-129447676D01*
X70989286Y-129447676D02*
X70894048Y-129542914D01*
X70894048Y-129542914D02*
X70798810Y-129590533D01*
X347067857Y-168238152D02*
X347829762Y-168523866D01*
X347829762Y-168523866D02*
X347067857Y-168809580D01*
X348829761Y-168904819D02*
X348258333Y-168904819D01*
X348544047Y-168904819D02*
X348544047Y-167904819D01*
X348544047Y-167904819D02*
X348448809Y-168047676D01*
X348448809Y-168047676D02*
X348353571Y-168142914D01*
X348353571Y-168142914D02*
X348258333Y-168190533D01*
X218503601Y-149663944D02*
X218503601Y-148663944D01*
X218503601Y-148663944D02*
X218836934Y-149378229D01*
X218836934Y-149378229D02*
X219170267Y-148663944D01*
X219170267Y-148663944D02*
X219170267Y-149663944D01*
X220170267Y-149663944D02*
X219598839Y-149663944D01*
X219884553Y-149663944D02*
X219884553Y-148663944D01*
X219884553Y-148663944D02*
X219789315Y-148806801D01*
X219789315Y-148806801D02*
X219694077Y-148902039D01*
X219694077Y-148902039D02*
X219598839Y-148949658D01*
X242554196Y-110563944D02*
X242744672Y-110563944D01*
X242744672Y-110563944D02*
X242839910Y-110611563D01*
X242839910Y-110611563D02*
X242935148Y-110706801D01*
X242935148Y-110706801D02*
X242982767Y-110897277D01*
X242982767Y-110897277D02*
X242982767Y-111230610D01*
X242982767Y-111230610D02*
X242935148Y-111421086D01*
X242935148Y-111421086D02*
X242839910Y-111516325D01*
X242839910Y-111516325D02*
X242744672Y-111563944D01*
X242744672Y-111563944D02*
X242554196Y-111563944D01*
X242554196Y-111563944D02*
X242458958Y-111516325D01*
X242458958Y-111516325D02*
X242363720Y-111421086D01*
X242363720Y-111421086D02*
X242316101Y-111230610D01*
X242316101Y-111230610D02*
X242316101Y-110897277D01*
X242316101Y-110897277D02*
X242363720Y-110706801D01*
X242363720Y-110706801D02*
X242458958Y-110611563D01*
X242458958Y-110611563D02*
X242554196Y-110563944D01*
X243935148Y-111563944D02*
X243363720Y-111563944D01*
X243649434Y-111563944D02*
X243649434Y-110563944D01*
X243649434Y-110563944D02*
X243554196Y-110706801D01*
X243554196Y-110706801D02*
X243458958Y-110802039D01*
X243458958Y-110802039D02*
X243363720Y-110849658D01*
X261481905Y-111610819D02*
X261481905Y-110610819D01*
X261481905Y-110610819D02*
X261862857Y-110610819D01*
X261862857Y-110610819D02*
X261958095Y-110658438D01*
X261958095Y-110658438D02*
X262005714Y-110706057D01*
X262005714Y-110706057D02*
X262053333Y-110801295D01*
X262053333Y-110801295D02*
X262053333Y-110944152D01*
X262053333Y-110944152D02*
X262005714Y-111039390D01*
X262005714Y-111039390D02*
X261958095Y-111087009D01*
X261958095Y-111087009D02*
X261862857Y-111134628D01*
X261862857Y-111134628D02*
X261481905Y-111134628D01*
X263005714Y-111610819D02*
X262434286Y-111610819D01*
X262720000Y-111610819D02*
X262720000Y-110610819D01*
X262720000Y-110610819D02*
X262624762Y-110753676D01*
X262624762Y-110753676D02*
X262529524Y-110848914D01*
X262529524Y-110848914D02*
X262434286Y-110896533D01*
X99359524Y-91988152D02*
X99359524Y-92654819D01*
X99359524Y-92083390D02*
X99407143Y-92035771D01*
X99407143Y-92035771D02*
X99502381Y-91988152D01*
X99502381Y-91988152D02*
X99645238Y-91988152D01*
X99645238Y-91988152D02*
X99740476Y-92035771D01*
X99740476Y-92035771D02*
X99788095Y-92131009D01*
X99788095Y-92131009D02*
X99788095Y-92654819D01*
X100216667Y-91750057D02*
X100264286Y-91702438D01*
X100264286Y-91702438D02*
X100359524Y-91654819D01*
X100359524Y-91654819D02*
X100597619Y-91654819D01*
X100597619Y-91654819D02*
X100692857Y-91702438D01*
X100692857Y-91702438D02*
X100740476Y-91750057D01*
X100740476Y-91750057D02*
X100788095Y-91845295D01*
X100788095Y-91845295D02*
X100788095Y-91940533D01*
X100788095Y-91940533D02*
X100740476Y-92083390D01*
X100740476Y-92083390D02*
X100169048Y-92654819D01*
X100169048Y-92654819D02*
X100788095Y-92654819D01*
X194810149Y-91847277D02*
X194810149Y-92513944D01*
X194810149Y-91942515D02*
X194857768Y-91894896D01*
X194857768Y-91894896D02*
X194953006Y-91847277D01*
X194953006Y-91847277D02*
X195095863Y-91847277D01*
X195095863Y-91847277D02*
X195191101Y-91894896D01*
X195191101Y-91894896D02*
X195238720Y-91990134D01*
X195238720Y-91990134D02*
X195238720Y-92513944D01*
X195619673Y-91513944D02*
X196286339Y-91513944D01*
X196286339Y-91513944D02*
X195857768Y-92513944D01*
X233267291Y-72940134D02*
X232933958Y-72940134D01*
X232933958Y-73463944D02*
X232933958Y-72463944D01*
X232933958Y-72463944D02*
X233410148Y-72463944D01*
X233838720Y-73463944D02*
X234029196Y-73463944D01*
X234029196Y-73463944D02*
X234124434Y-73416325D01*
X234124434Y-73416325D02*
X234172053Y-73368705D01*
X234172053Y-73368705D02*
X234267291Y-73225848D01*
X234267291Y-73225848D02*
X234314910Y-73035372D01*
X234314910Y-73035372D02*
X234314910Y-72654420D01*
X234314910Y-72654420D02*
X234267291Y-72559182D01*
X234267291Y-72559182D02*
X234219672Y-72511563D01*
X234219672Y-72511563D02*
X234124434Y-72463944D01*
X234124434Y-72463944D02*
X233933958Y-72463944D01*
X233933958Y-72463944D02*
X233838720Y-72511563D01*
X233838720Y-72511563D02*
X233791101Y-72559182D01*
X233791101Y-72559182D02*
X233743482Y-72654420D01*
X233743482Y-72654420D02*
X233743482Y-72892515D01*
X233743482Y-72892515D02*
X233791101Y-72987753D01*
X233791101Y-72987753D02*
X233838720Y-73035372D01*
X233838720Y-73035372D02*
X233933958Y-73082991D01*
X233933958Y-73082991D02*
X234124434Y-73082991D01*
X234124434Y-73082991D02*
X234219672Y-73035372D01*
X234219672Y-73035372D02*
X234267291Y-72987753D01*
X234267291Y-72987753D02*
X234314910Y-72892515D01*
X266509554Y-130566325D02*
X266509554Y-130613944D01*
X266509554Y-130613944D02*
X266461935Y-130709182D01*
X266461935Y-130709182D02*
X266414316Y-130756801D01*
X266461935Y-129994896D02*
X266509554Y-130042515D01*
X266509554Y-130042515D02*
X266461935Y-130090134D01*
X266461935Y-130090134D02*
X266414316Y-130042515D01*
X266414316Y-130042515D02*
X266461935Y-129994896D01*
X266461935Y-129994896D02*
X266461935Y-130090134D01*
X267461934Y-130613944D02*
X266890506Y-130613944D01*
X267176220Y-130613944D02*
X267176220Y-129613944D01*
X267176220Y-129613944D02*
X267080982Y-129756801D01*
X267080982Y-129756801D02*
X266985744Y-129852039D01*
X266985744Y-129852039D02*
X266890506Y-129899658D01*
X270843482Y-92132991D02*
X271605387Y-92132991D01*
X272605386Y-92513944D02*
X272033958Y-92513944D01*
X272319672Y-92513944D02*
X272319672Y-91513944D01*
X272319672Y-91513944D02*
X272224434Y-91656801D01*
X272224434Y-91656801D02*
X272129196Y-91752039D01*
X272129196Y-91752039D02*
X272033958Y-91799658D01*
X110894970Y-168428229D02*
X111371160Y-168428229D01*
X110799732Y-168713944D02*
X111133065Y-167713944D01*
X111133065Y-167713944D02*
X111466398Y-168713944D01*
X111942589Y-168713944D02*
X111847351Y-168666325D01*
X111847351Y-168666325D02*
X111799732Y-168571086D01*
X111799732Y-168571086D02*
X111799732Y-167713944D01*
X112180685Y-168047277D02*
X112561637Y-168047277D01*
X112323542Y-167713944D02*
X112323542Y-168571086D01*
X112323542Y-168571086D02*
X112371161Y-168666325D01*
X112371161Y-168666325D02*
X112466399Y-168713944D01*
X112466399Y-168713944D02*
X112561637Y-168713944D01*
X113418780Y-168713944D02*
X112847352Y-168713944D01*
X113133066Y-168713944D02*
X113133066Y-167713944D01*
X113133066Y-167713944D02*
X113037828Y-167856801D01*
X113037828Y-167856801D02*
X112942590Y-167952039D01*
X112942590Y-167952039D02*
X112847352Y-167999658D01*
X142946458Y-149568705D02*
X142898839Y-149616325D01*
X142898839Y-149616325D02*
X142755982Y-149663944D01*
X142755982Y-149663944D02*
X142660744Y-149663944D01*
X142660744Y-149663944D02*
X142517887Y-149616325D01*
X142517887Y-149616325D02*
X142422649Y-149521086D01*
X142422649Y-149521086D02*
X142375030Y-149425848D01*
X142375030Y-149425848D02*
X142327411Y-149235372D01*
X142327411Y-149235372D02*
X142327411Y-149092515D01*
X142327411Y-149092515D02*
X142375030Y-148902039D01*
X142375030Y-148902039D02*
X142422649Y-148806801D01*
X142422649Y-148806801D02*
X142517887Y-148711563D01*
X142517887Y-148711563D02*
X142660744Y-148663944D01*
X142660744Y-148663944D02*
X142755982Y-148663944D01*
X142755982Y-148663944D02*
X142898839Y-148711563D01*
X142898839Y-148711563D02*
X142946458Y-148759182D01*
X143898839Y-149663944D02*
X143327411Y-149663944D01*
X143613125Y-149663944D02*
X143613125Y-148663944D01*
X143613125Y-148663944D02*
X143517887Y-148806801D01*
X143517887Y-148806801D02*
X143422649Y-148902039D01*
X143422649Y-148902039D02*
X143327411Y-148949658D01*
X128135149Y-111040134D02*
X128468482Y-111040134D01*
X128611339Y-111563944D02*
X128135149Y-111563944D01*
X128135149Y-111563944D02*
X128135149Y-110563944D01*
X128135149Y-110563944D02*
X128611339Y-110563944D01*
X129563720Y-111563944D02*
X128992292Y-111563944D01*
X129278006Y-111563944D02*
X129278006Y-110563944D01*
X129278006Y-110563944D02*
X129182768Y-110706801D01*
X129182768Y-110706801D02*
X129087530Y-110802039D01*
X129087530Y-110802039D02*
X128992292Y-110849658D01*
X346305387Y-149140134D02*
X346638720Y-149140134D01*
X346781577Y-149663944D02*
X346305387Y-149663944D01*
X346305387Y-149663944D02*
X346305387Y-148663944D01*
X346305387Y-148663944D02*
X346781577Y-148663944D01*
X347210149Y-148997277D02*
X347210149Y-149663944D01*
X347210149Y-149092515D02*
X347257768Y-149044896D01*
X347257768Y-149044896D02*
X347353006Y-148997277D01*
X347353006Y-148997277D02*
X347495863Y-148997277D01*
X347495863Y-148997277D02*
X347591101Y-149044896D01*
X347591101Y-149044896D02*
X347638720Y-149140134D01*
X347638720Y-149140134D02*
X347638720Y-149663944D01*
X348543482Y-149663944D02*
X348543482Y-148663944D01*
X348543482Y-149616325D02*
X348448244Y-149663944D01*
X348448244Y-149663944D02*
X348257768Y-149663944D01*
X348257768Y-149663944D02*
X348162530Y-149616325D01*
X348162530Y-149616325D02*
X348114911Y-149568705D01*
X348114911Y-149568705D02*
X348067292Y-149473467D01*
X348067292Y-149473467D02*
X348067292Y-149187753D01*
X348067292Y-149187753D02*
X348114911Y-149092515D01*
X348114911Y-149092515D02*
X348162530Y-149044896D01*
X348162530Y-149044896D02*
X348257768Y-148997277D01*
X348257768Y-148997277D02*
X348448244Y-148997277D01*
X348448244Y-148997277D02*
X348543482Y-149044896D01*
X349543482Y-149663944D02*
X348972054Y-149663944D01*
X349257768Y-149663944D02*
X349257768Y-148663944D01*
X349257768Y-148663944D02*
X349162530Y-148806801D01*
X349162530Y-148806801D02*
X349067292Y-148902039D01*
X349067292Y-148902039D02*
X348972054Y-148949658D01*
X86749137Y-167713944D02*
X86987232Y-168713944D01*
X86987232Y-168713944D02*
X87177708Y-167999658D01*
X87177708Y-167999658D02*
X87368184Y-168713944D01*
X87368184Y-168713944D02*
X87606280Y-167713944D01*
X87987232Y-168713944D02*
X87987232Y-168047277D01*
X87987232Y-167713944D02*
X87939613Y-167761563D01*
X87939613Y-167761563D02*
X87987232Y-167809182D01*
X87987232Y-167809182D02*
X88034851Y-167761563D01*
X88034851Y-167761563D02*
X87987232Y-167713944D01*
X87987232Y-167713944D02*
X87987232Y-167809182D01*
X88463422Y-168047277D02*
X88463422Y-168713944D01*
X88463422Y-168142515D02*
X88511041Y-168094896D01*
X88511041Y-168094896D02*
X88606279Y-168047277D01*
X88606279Y-168047277D02*
X88749136Y-168047277D01*
X88749136Y-168047277D02*
X88844374Y-168094896D01*
X88844374Y-168094896D02*
X88891993Y-168190134D01*
X88891993Y-168190134D02*
X88891993Y-168713944D01*
X89891993Y-168713944D02*
X89320565Y-168713944D01*
X89606279Y-168713944D02*
X89606279Y-167713944D01*
X89606279Y-167713944D02*
X89511041Y-167856801D01*
X89511041Y-167856801D02*
X89415803Y-167952039D01*
X89415803Y-167952039D02*
X89320565Y-167999658D01*
X327422053Y-73463944D02*
X327422053Y-72463944D01*
X327422053Y-72463944D02*
X327660148Y-72463944D01*
X327660148Y-72463944D02*
X327803005Y-72511563D01*
X327803005Y-72511563D02*
X327898243Y-72606801D01*
X327898243Y-72606801D02*
X327945862Y-72702039D01*
X327945862Y-72702039D02*
X327993481Y-72892515D01*
X327993481Y-72892515D02*
X327993481Y-73035372D01*
X327993481Y-73035372D02*
X327945862Y-73225848D01*
X327945862Y-73225848D02*
X327898243Y-73321086D01*
X327898243Y-73321086D02*
X327803005Y-73416325D01*
X327803005Y-73416325D02*
X327660148Y-73463944D01*
X327660148Y-73463944D02*
X327422053Y-73463944D01*
X328803005Y-73416325D02*
X328707767Y-73463944D01*
X328707767Y-73463944D02*
X328517291Y-73463944D01*
X328517291Y-73463944D02*
X328422053Y-73416325D01*
X328422053Y-73416325D02*
X328374434Y-73321086D01*
X328374434Y-73321086D02*
X328374434Y-72940134D01*
X328374434Y-72940134D02*
X328422053Y-72844896D01*
X328422053Y-72844896D02*
X328517291Y-72797277D01*
X328517291Y-72797277D02*
X328707767Y-72797277D01*
X328707767Y-72797277D02*
X328803005Y-72844896D01*
X328803005Y-72844896D02*
X328850624Y-72940134D01*
X328850624Y-72940134D02*
X328850624Y-73035372D01*
X328850624Y-73035372D02*
X328374434Y-73130610D01*
X329422053Y-73463944D02*
X329326815Y-73416325D01*
X329326815Y-73416325D02*
X329279196Y-73321086D01*
X329279196Y-73321086D02*
X329279196Y-72463944D01*
X330326815Y-73463944D02*
X329755387Y-73463944D01*
X330041101Y-73463944D02*
X330041101Y-72463944D01*
X330041101Y-72463944D02*
X329945863Y-72606801D01*
X329945863Y-72606801D02*
X329850625Y-72702039D01*
X329850625Y-72702039D02*
X329755387Y-72749658D01*
X328183958Y-148759182D02*
X328374434Y-148616325D01*
X328374434Y-148616325D02*
X328564910Y-148759182D01*
X329422053Y-149663944D02*
X328850625Y-149663944D01*
X329136339Y-149663944D02*
X329136339Y-148663944D01*
X329136339Y-148663944D02*
X329041101Y-148806801D01*
X329041101Y-148806801D02*
X328945863Y-148902039D01*
X328945863Y-148902039D02*
X328850625Y-148949658D01*
X285559554Y-129613944D02*
X285464316Y-129804420D01*
X286511934Y-130613944D02*
X285940506Y-130613944D01*
X286226220Y-130613944D02*
X286226220Y-129613944D01*
X286226220Y-129613944D02*
X286130982Y-129756801D01*
X286130982Y-129756801D02*
X286035744Y-129852039D01*
X286035744Y-129852039D02*
X285940506Y-129899658D01*
X299608333Y-111738152D02*
X299846428Y-111738152D01*
X299846428Y-111738152D02*
X299846428Y-110309580D01*
X299846428Y-110309580D02*
X299608333Y-110309580D01*
X300894047Y-111404819D02*
X300322619Y-111404819D01*
X300608333Y-111404819D02*
X300608333Y-110404819D01*
X300608333Y-110404819D02*
X300513095Y-110547676D01*
X300513095Y-110547676D02*
X300417857Y-110642914D01*
X300417857Y-110642914D02*
X300322619Y-110690533D01*
X60626815Y-72940134D02*
X60960148Y-72940134D01*
X61103005Y-73463944D02*
X60626815Y-73463944D01*
X60626815Y-73463944D02*
X60626815Y-72463944D01*
X60626815Y-72463944D02*
X61103005Y-72463944D01*
X61483958Y-73416325D02*
X61579196Y-73463944D01*
X61579196Y-73463944D02*
X61769672Y-73463944D01*
X61769672Y-73463944D02*
X61864910Y-73416325D01*
X61864910Y-73416325D02*
X61912529Y-73321086D01*
X61912529Y-73321086D02*
X61912529Y-73273467D01*
X61912529Y-73273467D02*
X61864910Y-73178229D01*
X61864910Y-73178229D02*
X61769672Y-73130610D01*
X61769672Y-73130610D02*
X61626815Y-73130610D01*
X61626815Y-73130610D02*
X61531577Y-73082991D01*
X61531577Y-73082991D02*
X61483958Y-72987753D01*
X61483958Y-72987753D02*
X61483958Y-72940134D01*
X61483958Y-72940134D02*
X61531577Y-72844896D01*
X61531577Y-72844896D02*
X61626815Y-72797277D01*
X61626815Y-72797277D02*
X61769672Y-72797277D01*
X61769672Y-72797277D02*
X61864910Y-72844896D01*
X62769672Y-73416325D02*
X62674434Y-73463944D01*
X62674434Y-73463944D02*
X62483958Y-73463944D01*
X62483958Y-73463944D02*
X62388720Y-73416325D01*
X62388720Y-73416325D02*
X62341101Y-73368705D01*
X62341101Y-73368705D02*
X62293482Y-73273467D01*
X62293482Y-73273467D02*
X62293482Y-72987753D01*
X62293482Y-72987753D02*
X62341101Y-72892515D01*
X62341101Y-72892515D02*
X62388720Y-72844896D01*
X62388720Y-72844896D02*
X62483958Y-72797277D01*
X62483958Y-72797277D02*
X62674434Y-72797277D01*
X62674434Y-72797277D02*
X62769672Y-72844896D01*
X63722053Y-73463944D02*
X63150625Y-73463944D01*
X63436339Y-73463944D02*
X63436339Y-72463944D01*
X63436339Y-72463944D02*
X63341101Y-72606801D01*
X63341101Y-72606801D02*
X63245863Y-72702039D01*
X63245863Y-72702039D02*
X63150625Y-72749658D01*
X289726814Y-168618705D02*
X289679195Y-168666325D01*
X289679195Y-168666325D02*
X289536338Y-168713944D01*
X289536338Y-168713944D02*
X289441100Y-168713944D01*
X289441100Y-168713944D02*
X289298243Y-168666325D01*
X289298243Y-168666325D02*
X289203005Y-168571086D01*
X289203005Y-168571086D02*
X289155386Y-168475848D01*
X289155386Y-168475848D02*
X289107767Y-168285372D01*
X289107767Y-168285372D02*
X289107767Y-168142515D01*
X289107767Y-168142515D02*
X289155386Y-167952039D01*
X289155386Y-167952039D02*
X289203005Y-167856801D01*
X289203005Y-167856801D02*
X289298243Y-167761563D01*
X289298243Y-167761563D02*
X289441100Y-167713944D01*
X289441100Y-167713944D02*
X289536338Y-167713944D01*
X289536338Y-167713944D02*
X289679195Y-167761563D01*
X289679195Y-167761563D02*
X289726814Y-167809182D01*
X290012529Y-168047277D02*
X290393481Y-168047277D01*
X290155386Y-167713944D02*
X290155386Y-168571086D01*
X290155386Y-168571086D02*
X290203005Y-168666325D01*
X290203005Y-168666325D02*
X290298243Y-168713944D01*
X290298243Y-168713944D02*
X290393481Y-168713944D01*
X290726815Y-168713944D02*
X290726815Y-168047277D01*
X290726815Y-168237753D02*
X290774434Y-168142515D01*
X290774434Y-168142515D02*
X290822053Y-168094896D01*
X290822053Y-168094896D02*
X290917291Y-168047277D01*
X290917291Y-168047277D02*
X291012529Y-168047277D01*
X291488720Y-168713944D02*
X291393482Y-168666325D01*
X291393482Y-168666325D02*
X291345863Y-168571086D01*
X291345863Y-168571086D02*
X291345863Y-167713944D01*
X291822054Y-167809182D02*
X291869673Y-167761563D01*
X291869673Y-167761563D02*
X291964911Y-167713944D01*
X291964911Y-167713944D02*
X292203006Y-167713944D01*
X292203006Y-167713944D02*
X292298244Y-167761563D01*
X292298244Y-167761563D02*
X292345863Y-167809182D01*
X292345863Y-167809182D02*
X292393482Y-167904420D01*
X292393482Y-167904420D02*
X292393482Y-167999658D01*
X292393482Y-167999658D02*
X292345863Y-168142515D01*
X292345863Y-168142515D02*
X291774435Y-168713944D01*
X291774435Y-168713944D02*
X292393482Y-168713944D01*
X323183362Y-110468705D02*
X324040505Y-111754420D01*
X324707172Y-111563944D02*
X324135744Y-111563944D01*
X324421458Y-111563944D02*
X324421458Y-110563944D01*
X324421458Y-110563944D02*
X324326220Y-110706801D01*
X324326220Y-110706801D02*
X324230982Y-110802039D01*
X324230982Y-110802039D02*
X324135744Y-110849658D01*
X280939285Y-111763152D02*
X280701190Y-111763152D01*
X280701190Y-111763152D02*
X280701190Y-110334580D01*
X280701190Y-110334580D02*
X280939285Y-110334580D01*
X281844047Y-111429819D02*
X281272619Y-111429819D01*
X281558333Y-111429819D02*
X281558333Y-110429819D01*
X281558333Y-110429819D02*
X281463095Y-110572676D01*
X281463095Y-110572676D02*
X281367857Y-110667914D01*
X281367857Y-110667914D02*
X281272619Y-110715533D01*
X251841101Y-72940134D02*
X251507768Y-72940134D01*
X251507768Y-73463944D02*
X251507768Y-72463944D01*
X251507768Y-72463944D02*
X251983958Y-72463944D01*
X252888720Y-73463944D02*
X252317292Y-73463944D01*
X252603006Y-73463944D02*
X252603006Y-72463944D01*
X252603006Y-72463944D02*
X252507768Y-72606801D01*
X252507768Y-72606801D02*
X252412530Y-72702039D01*
X252412530Y-72702039D02*
X252317292Y-72749658D01*
X253507768Y-72463944D02*
X253603006Y-72463944D01*
X253603006Y-72463944D02*
X253698244Y-72511563D01*
X253698244Y-72511563D02*
X253745863Y-72559182D01*
X253745863Y-72559182D02*
X253793482Y-72654420D01*
X253793482Y-72654420D02*
X253841101Y-72844896D01*
X253841101Y-72844896D02*
X253841101Y-73082991D01*
X253841101Y-73082991D02*
X253793482Y-73273467D01*
X253793482Y-73273467D02*
X253745863Y-73368705D01*
X253745863Y-73368705D02*
X253698244Y-73416325D01*
X253698244Y-73416325D02*
X253603006Y-73463944D01*
X253603006Y-73463944D02*
X253507768Y-73463944D01*
X253507768Y-73463944D02*
X253412530Y-73416325D01*
X253412530Y-73416325D02*
X253364911Y-73368705D01*
X253364911Y-73368705D02*
X253317292Y-73273467D01*
X253317292Y-73273467D02*
X253269673Y-73082991D01*
X253269673Y-73082991D02*
X253269673Y-72844896D01*
X253269673Y-72844896D02*
X253317292Y-72654420D01*
X253317292Y-72654420D02*
X253364911Y-72559182D01*
X253364911Y-72559182D02*
X253412530Y-72511563D01*
X253412530Y-72511563D02*
X253507768Y-72463944D01*
X147708958Y-111563944D02*
X147375625Y-111087753D01*
X147137530Y-111563944D02*
X147137530Y-110563944D01*
X147137530Y-110563944D02*
X147518482Y-110563944D01*
X147518482Y-110563944D02*
X147613720Y-110611563D01*
X147613720Y-110611563D02*
X147661339Y-110659182D01*
X147661339Y-110659182D02*
X147708958Y-110754420D01*
X147708958Y-110754420D02*
X147708958Y-110897277D01*
X147708958Y-110897277D02*
X147661339Y-110992515D01*
X147661339Y-110992515D02*
X147613720Y-111040134D01*
X147613720Y-111040134D02*
X147518482Y-111087753D01*
X147518482Y-111087753D02*
X147137530Y-111087753D01*
X148661339Y-111563944D02*
X148089911Y-111563944D01*
X148375625Y-111563944D02*
X148375625Y-110563944D01*
X148375625Y-110563944D02*
X148280387Y-110706801D01*
X148280387Y-110706801D02*
X148185149Y-110802039D01*
X148185149Y-110802039D02*
X148089911Y-110849658D01*
X300633065Y-149616325D02*
X300775922Y-149663944D01*
X300775922Y-149663944D02*
X301014017Y-149663944D01*
X301014017Y-149663944D02*
X301109255Y-149616325D01*
X301109255Y-149616325D02*
X301156874Y-149568705D01*
X301156874Y-149568705D02*
X301204493Y-149473467D01*
X301204493Y-149473467D02*
X301204493Y-149378229D01*
X301204493Y-149378229D02*
X301156874Y-149282991D01*
X301156874Y-149282991D02*
X301109255Y-149235372D01*
X301109255Y-149235372D02*
X301014017Y-149187753D01*
X301014017Y-149187753D02*
X300823541Y-149140134D01*
X300823541Y-149140134D02*
X300728303Y-149092515D01*
X300728303Y-149092515D02*
X300680684Y-149044896D01*
X300680684Y-149044896D02*
X300633065Y-148949658D01*
X300633065Y-148949658D02*
X300633065Y-148854420D01*
X300633065Y-148854420D02*
X300680684Y-148759182D01*
X300680684Y-148759182D02*
X300728303Y-148711563D01*
X300728303Y-148711563D02*
X300823541Y-148663944D01*
X300823541Y-148663944D02*
X301061636Y-148663944D01*
X301061636Y-148663944D02*
X301204493Y-148711563D01*
X301633065Y-149663944D02*
X301633065Y-148663944D01*
X302061636Y-149663944D02*
X302061636Y-149140134D01*
X302061636Y-149140134D02*
X302014017Y-149044896D01*
X302014017Y-149044896D02*
X301918779Y-148997277D01*
X301918779Y-148997277D02*
X301775922Y-148997277D01*
X301775922Y-148997277D02*
X301680684Y-149044896D01*
X301680684Y-149044896D02*
X301633065Y-149092515D01*
X302537827Y-149663944D02*
X302537827Y-148997277D01*
X302537827Y-148663944D02*
X302490208Y-148711563D01*
X302490208Y-148711563D02*
X302537827Y-148759182D01*
X302537827Y-148759182D02*
X302585446Y-148711563D01*
X302585446Y-148711563D02*
X302537827Y-148663944D01*
X302537827Y-148663944D02*
X302537827Y-148759182D01*
X302871160Y-148997277D02*
X303252112Y-148997277D01*
X303014017Y-149663944D02*
X303014017Y-148806801D01*
X303014017Y-148806801D02*
X303061636Y-148711563D01*
X303061636Y-148711563D02*
X303156874Y-148663944D01*
X303156874Y-148663944D02*
X303252112Y-148663944D01*
X303442589Y-148997277D02*
X303823541Y-148997277D01*
X303585446Y-148663944D02*
X303585446Y-149521086D01*
X303585446Y-149521086D02*
X303633065Y-149616325D01*
X303633065Y-149616325D02*
X303728303Y-149663944D01*
X303728303Y-149663944D02*
X303823541Y-149663944D01*
X304109256Y-148759182D02*
X304156875Y-148711563D01*
X304156875Y-148711563D02*
X304252113Y-148663944D01*
X304252113Y-148663944D02*
X304490208Y-148663944D01*
X304490208Y-148663944D02*
X304585446Y-148711563D01*
X304585446Y-148711563D02*
X304633065Y-148759182D01*
X304633065Y-148759182D02*
X304680684Y-148854420D01*
X304680684Y-148854420D02*
X304680684Y-148949658D01*
X304680684Y-148949658D02*
X304633065Y-149092515D01*
X304633065Y-149092515D02*
X304061637Y-149663944D01*
X304061637Y-149663944D02*
X304680684Y-149663944D01*
X118967291Y-72940134D02*
X118633958Y-72940134D01*
X118633958Y-73463944D02*
X118633958Y-72463944D01*
X118633958Y-72463944D02*
X119110148Y-72463944D01*
X119395863Y-72463944D02*
X120014910Y-72463944D01*
X120014910Y-72463944D02*
X119681577Y-72844896D01*
X119681577Y-72844896D02*
X119824434Y-72844896D01*
X119824434Y-72844896D02*
X119919672Y-72892515D01*
X119919672Y-72892515D02*
X119967291Y-72940134D01*
X119967291Y-72940134D02*
X120014910Y-73035372D01*
X120014910Y-73035372D02*
X120014910Y-73273467D01*
X120014910Y-73273467D02*
X119967291Y-73368705D01*
X119967291Y-73368705D02*
X119919672Y-73416325D01*
X119919672Y-73416325D02*
X119824434Y-73463944D01*
X119824434Y-73463944D02*
X119538720Y-73463944D01*
X119538720Y-73463944D02*
X119443482Y-73416325D01*
X119443482Y-73416325D02*
X119395863Y-73368705D01*
X341676815Y-73137944D02*
X342010148Y-74137944D01*
X342010148Y-74137944D02*
X342343481Y-73137944D01*
X342819672Y-74137944D02*
X342724434Y-74090325D01*
X342724434Y-74090325D02*
X342676815Y-74042705D01*
X342676815Y-74042705D02*
X342629196Y-73947467D01*
X342629196Y-73947467D02*
X342629196Y-73661753D01*
X342629196Y-73661753D02*
X342676815Y-73566515D01*
X342676815Y-73566515D02*
X342724434Y-73518896D01*
X342724434Y-73518896D02*
X342819672Y-73471277D01*
X342819672Y-73471277D02*
X342962529Y-73471277D01*
X342962529Y-73471277D02*
X343057767Y-73518896D01*
X343057767Y-73518896D02*
X343105386Y-73566515D01*
X343105386Y-73566515D02*
X343153005Y-73661753D01*
X343153005Y-73661753D02*
X343153005Y-73947467D01*
X343153005Y-73947467D02*
X343105386Y-74042705D01*
X343105386Y-74042705D02*
X343057767Y-74090325D01*
X343057767Y-74090325D02*
X342962529Y-74137944D01*
X342962529Y-74137944D02*
X342819672Y-74137944D01*
X343724434Y-74137944D02*
X343629196Y-74090325D01*
X343629196Y-74090325D02*
X343581577Y-73995086D01*
X343581577Y-73995086D02*
X343581577Y-73137944D01*
X344629196Y-74137944D02*
X344057768Y-74137944D01*
X344343482Y-74137944D02*
X344343482Y-73137944D01*
X344343482Y-73137944D02*
X344248244Y-73280801D01*
X344248244Y-73280801D02*
X344153006Y-73376039D01*
X344153006Y-73376039D02*
X344057768Y-73423658D01*
X63508064Y-168618705D02*
X63460445Y-168666325D01*
X63460445Y-168666325D02*
X63317588Y-168713944D01*
X63317588Y-168713944D02*
X63222350Y-168713944D01*
X63222350Y-168713944D02*
X63079493Y-168666325D01*
X63079493Y-168666325D02*
X62984255Y-168571086D01*
X62984255Y-168571086D02*
X62936636Y-168475848D01*
X62936636Y-168475848D02*
X62889017Y-168285372D01*
X62889017Y-168285372D02*
X62889017Y-168142515D01*
X62889017Y-168142515D02*
X62936636Y-167952039D01*
X62936636Y-167952039D02*
X62984255Y-167856801D01*
X62984255Y-167856801D02*
X63079493Y-167761563D01*
X63079493Y-167761563D02*
X63222350Y-167713944D01*
X63222350Y-167713944D02*
X63317588Y-167713944D01*
X63317588Y-167713944D02*
X63460445Y-167761563D01*
X63460445Y-167761563D02*
X63508064Y-167809182D01*
X63793779Y-168047277D02*
X64174731Y-168047277D01*
X63936636Y-167713944D02*
X63936636Y-168571086D01*
X63936636Y-168571086D02*
X63984255Y-168666325D01*
X63984255Y-168666325D02*
X64079493Y-168713944D01*
X64079493Y-168713944D02*
X64174731Y-168713944D01*
X64508065Y-168713944D02*
X64508065Y-168047277D01*
X64508065Y-168237753D02*
X64555684Y-168142515D01*
X64555684Y-168142515D02*
X64603303Y-168094896D01*
X64603303Y-168094896D02*
X64698541Y-168047277D01*
X64698541Y-168047277D02*
X64793779Y-168047277D01*
X65269970Y-168713944D02*
X65174732Y-168666325D01*
X65174732Y-168666325D02*
X65127113Y-168571086D01*
X65127113Y-168571086D02*
X65127113Y-167713944D01*
X66174732Y-168713944D02*
X65603304Y-168713944D01*
X65889018Y-168713944D02*
X65889018Y-167713944D01*
X65889018Y-167713944D02*
X65793780Y-167856801D01*
X65793780Y-167856801D02*
X65698542Y-167952039D01*
X65698542Y-167952039D02*
X65603304Y-167999658D01*
X289941101Y-72940134D02*
X289607768Y-72940134D01*
X289607768Y-73463944D02*
X289607768Y-72463944D01*
X289607768Y-72463944D02*
X290083958Y-72463944D01*
X290988720Y-73463944D02*
X290417292Y-73463944D01*
X290703006Y-73463944D02*
X290703006Y-72463944D01*
X290703006Y-72463944D02*
X290607768Y-72606801D01*
X290607768Y-72606801D02*
X290512530Y-72702039D01*
X290512530Y-72702039D02*
X290417292Y-72749658D01*
X291369673Y-72559182D02*
X291417292Y-72511563D01*
X291417292Y-72511563D02*
X291512530Y-72463944D01*
X291512530Y-72463944D02*
X291750625Y-72463944D01*
X291750625Y-72463944D02*
X291845863Y-72511563D01*
X291845863Y-72511563D02*
X291893482Y-72559182D01*
X291893482Y-72559182D02*
X291941101Y-72654420D01*
X291941101Y-72654420D02*
X291941101Y-72749658D01*
X291941101Y-72749658D02*
X291893482Y-72892515D01*
X291893482Y-72892515D02*
X291322054Y-73463944D01*
X291322054Y-73463944D02*
X291941101Y-73463944D01*
X328041101Y-167713944D02*
X328374434Y-168713944D01*
X328374434Y-168713944D02*
X328707767Y-167713944D01*
X328993482Y-167809182D02*
X329041101Y-167761563D01*
X329041101Y-167761563D02*
X329136339Y-167713944D01*
X329136339Y-167713944D02*
X329374434Y-167713944D01*
X329374434Y-167713944D02*
X329469672Y-167761563D01*
X329469672Y-167761563D02*
X329517291Y-167809182D01*
X329517291Y-167809182D02*
X329564910Y-167904420D01*
X329564910Y-167904420D02*
X329564910Y-167999658D01*
X329564910Y-167999658D02*
X329517291Y-168142515D01*
X329517291Y-168142515D02*
X328945863Y-168713944D01*
X328945863Y-168713944D02*
X329564910Y-168713944D01*
X189976220Y-130613944D02*
X189976220Y-129613944D01*
X189976220Y-130090134D02*
X190547648Y-130090134D01*
X190547648Y-130613944D02*
X190547648Y-129613944D01*
X191071458Y-130613944D02*
X191261934Y-130613944D01*
X191261934Y-130613944D02*
X191357172Y-130566325D01*
X191357172Y-130566325D02*
X191404791Y-130518705D01*
X191404791Y-130518705D02*
X191500029Y-130375848D01*
X191500029Y-130375848D02*
X191547648Y-130185372D01*
X191547648Y-130185372D02*
X191547648Y-129804420D01*
X191547648Y-129804420D02*
X191500029Y-129709182D01*
X191500029Y-129709182D02*
X191452410Y-129661563D01*
X191452410Y-129661563D02*
X191357172Y-129613944D01*
X191357172Y-129613944D02*
X191166696Y-129613944D01*
X191166696Y-129613944D02*
X191071458Y-129661563D01*
X191071458Y-129661563D02*
X191023839Y-129709182D01*
X191023839Y-129709182D02*
X190976220Y-129804420D01*
X190976220Y-129804420D02*
X190976220Y-130042515D01*
X190976220Y-130042515D02*
X191023839Y-130137753D01*
X191023839Y-130137753D02*
X191071458Y-130185372D01*
X191071458Y-130185372D02*
X191166696Y-130232991D01*
X191166696Y-130232991D02*
X191357172Y-130232991D01*
X191357172Y-130232991D02*
X191452410Y-130185372D01*
X191452410Y-130185372D02*
X191500029Y-130137753D01*
X191500029Y-130137753D02*
X191547648Y-130042515D01*
X171473839Y-129661563D02*
X171378601Y-129613944D01*
X171378601Y-129613944D02*
X171235744Y-129613944D01*
X171235744Y-129613944D02*
X171092887Y-129661563D01*
X171092887Y-129661563D02*
X170997649Y-129756801D01*
X170997649Y-129756801D02*
X170950030Y-129852039D01*
X170950030Y-129852039D02*
X170902411Y-130042515D01*
X170902411Y-130042515D02*
X170902411Y-130185372D01*
X170902411Y-130185372D02*
X170950030Y-130375848D01*
X170950030Y-130375848D02*
X170997649Y-130471086D01*
X170997649Y-130471086D02*
X171092887Y-130566325D01*
X171092887Y-130566325D02*
X171235744Y-130613944D01*
X171235744Y-130613944D02*
X171330982Y-130613944D01*
X171330982Y-130613944D02*
X171473839Y-130566325D01*
X171473839Y-130566325D02*
X171521458Y-130518705D01*
X171521458Y-130518705D02*
X171521458Y-130185372D01*
X171521458Y-130185372D02*
X171330982Y-130185372D01*
X172473839Y-130613944D02*
X171902411Y-130613944D01*
X172188125Y-130613944D02*
X172188125Y-129613944D01*
X172188125Y-129613944D02*
X172092887Y-129756801D01*
X172092887Y-129756801D02*
X171997649Y-129852039D01*
X171997649Y-129852039D02*
X171902411Y-129899658D01*
X151828601Y-130090134D02*
X151495268Y-130090134D01*
X151495268Y-130613944D02*
X151495268Y-129613944D01*
X151495268Y-129613944D02*
X151971458Y-129613944D01*
X152876220Y-130613944D02*
X152304792Y-130613944D01*
X152590506Y-130613944D02*
X152590506Y-129613944D01*
X152590506Y-129613944D02*
X152495268Y-129756801D01*
X152495268Y-129756801D02*
X152400030Y-129852039D01*
X152400030Y-129852039D02*
X152304792Y-129899658D01*
X153209554Y-129613944D02*
X153828601Y-129613944D01*
X153828601Y-129613944D02*
X153495268Y-129994896D01*
X153495268Y-129994896D02*
X153638125Y-129994896D01*
X153638125Y-129994896D02*
X153733363Y-130042515D01*
X153733363Y-130042515D02*
X153780982Y-130090134D01*
X153780982Y-130090134D02*
X153828601Y-130185372D01*
X153828601Y-130185372D02*
X153828601Y-130423467D01*
X153828601Y-130423467D02*
X153780982Y-130518705D01*
X153780982Y-130518705D02*
X153733363Y-130566325D01*
X153733363Y-130566325D02*
X153638125Y-130613944D01*
X153638125Y-130613944D02*
X153352411Y-130613944D01*
X153352411Y-130613944D02*
X153257173Y-130566325D01*
X153257173Y-130566325D02*
X153209554Y-130518705D01*
X232910149Y-91847277D02*
X232910149Y-92513944D01*
X232910149Y-91942515D02*
X232957768Y-91894896D01*
X232957768Y-91894896D02*
X233053006Y-91847277D01*
X233053006Y-91847277D02*
X233195863Y-91847277D01*
X233195863Y-91847277D02*
X233291101Y-91894896D01*
X233291101Y-91894896D02*
X233338720Y-91990134D01*
X233338720Y-91990134D02*
X233338720Y-92513944D01*
X233862530Y-92513944D02*
X234053006Y-92513944D01*
X234053006Y-92513944D02*
X234148244Y-92466325D01*
X234148244Y-92466325D02*
X234195863Y-92418705D01*
X234195863Y-92418705D02*
X234291101Y-92275848D01*
X234291101Y-92275848D02*
X234338720Y-92085372D01*
X234338720Y-92085372D02*
X234338720Y-91704420D01*
X234338720Y-91704420D02*
X234291101Y-91609182D01*
X234291101Y-91609182D02*
X234243482Y-91561563D01*
X234243482Y-91561563D02*
X234148244Y-91513944D01*
X234148244Y-91513944D02*
X233957768Y-91513944D01*
X233957768Y-91513944D02*
X233862530Y-91561563D01*
X233862530Y-91561563D02*
X233814911Y-91609182D01*
X233814911Y-91609182D02*
X233767292Y-91704420D01*
X233767292Y-91704420D02*
X233767292Y-91942515D01*
X233767292Y-91942515D02*
X233814911Y-92037753D01*
X233814911Y-92037753D02*
X233862530Y-92085372D01*
X233862530Y-92085372D02*
X233957768Y-92132991D01*
X233957768Y-92132991D02*
X234148244Y-92132991D01*
X234148244Y-92132991D02*
X234243482Y-92085372D01*
X234243482Y-92085372D02*
X234291101Y-92037753D01*
X234291101Y-92037753D02*
X234338720Y-91942515D01*
X344558333Y-111429819D02*
X344558333Y-110429819D01*
X344558333Y-110429819D02*
X344939285Y-110429819D01*
X344939285Y-110429819D02*
X345034523Y-110477438D01*
X345034523Y-110477438D02*
X345082142Y-110525057D01*
X345082142Y-110525057D02*
X345129761Y-110620295D01*
X345129761Y-110620295D02*
X345129761Y-110763152D01*
X345129761Y-110763152D02*
X345082142Y-110858390D01*
X345082142Y-110858390D02*
X345034523Y-110906009D01*
X345034523Y-110906009D02*
X344939285Y-110953628D01*
X344939285Y-110953628D02*
X344558333Y-110953628D01*
X345986904Y-110763152D02*
X345986904Y-111572676D01*
X345986904Y-111572676D02*
X345939285Y-111667914D01*
X345939285Y-111667914D02*
X345891666Y-111715533D01*
X345891666Y-111715533D02*
X345796428Y-111763152D01*
X345796428Y-111763152D02*
X345653571Y-111763152D01*
X345653571Y-111763152D02*
X345558333Y-111715533D01*
X345986904Y-111382200D02*
X345891666Y-111429819D01*
X345891666Y-111429819D02*
X345701190Y-111429819D01*
X345701190Y-111429819D02*
X345605952Y-111382200D01*
X345605952Y-111382200D02*
X345558333Y-111334580D01*
X345558333Y-111334580D02*
X345510714Y-111239342D01*
X345510714Y-111239342D02*
X345510714Y-110953628D01*
X345510714Y-110953628D02*
X345558333Y-110858390D01*
X345558333Y-110858390D02*
X345605952Y-110810771D01*
X345605952Y-110810771D02*
X345701190Y-110763152D01*
X345701190Y-110763152D02*
X345891666Y-110763152D01*
X345891666Y-110763152D02*
X345986904Y-110810771D01*
X346463095Y-110429819D02*
X346463095Y-111239342D01*
X346463095Y-111239342D02*
X346510714Y-111334580D01*
X346510714Y-111334580D02*
X346558333Y-111382200D01*
X346558333Y-111382200D02*
X346653571Y-111429819D01*
X346653571Y-111429819D02*
X346844047Y-111429819D01*
X346844047Y-111429819D02*
X346939285Y-111382200D01*
X346939285Y-111382200D02*
X346986904Y-111334580D01*
X346986904Y-111334580D02*
X347034523Y-111239342D01*
X347034523Y-111239342D02*
X347034523Y-110429819D01*
X347510714Y-110763152D02*
X347510714Y-111763152D01*
X347510714Y-110810771D02*
X347605952Y-110763152D01*
X347605952Y-110763152D02*
X347796428Y-110763152D01*
X347796428Y-110763152D02*
X347891666Y-110810771D01*
X347891666Y-110810771D02*
X347939285Y-110858390D01*
X347939285Y-110858390D02*
X347986904Y-110953628D01*
X347986904Y-110953628D02*
X347986904Y-111239342D01*
X347986904Y-111239342D02*
X347939285Y-111334580D01*
X347939285Y-111334580D02*
X347891666Y-111382200D01*
X347891666Y-111382200D02*
X347796428Y-111429819D01*
X347796428Y-111429819D02*
X347605952Y-111429819D01*
X347605952Y-111429819D02*
X347510714Y-111382200D01*
X348939285Y-111429819D02*
X348367857Y-111429819D01*
X348653571Y-111429819D02*
X348653571Y-110429819D01*
X348653571Y-110429819D02*
X348558333Y-110572676D01*
X348558333Y-110572676D02*
X348463095Y-110667914D01*
X348463095Y-110667914D02*
X348367857Y-110715533D01*
X180808363Y-149140134D02*
X180951220Y-149187753D01*
X180951220Y-149187753D02*
X180998839Y-149235372D01*
X180998839Y-149235372D02*
X181046458Y-149330610D01*
X181046458Y-149330610D02*
X181046458Y-149473467D01*
X181046458Y-149473467D02*
X180998839Y-149568705D01*
X180998839Y-149568705D02*
X180951220Y-149616325D01*
X180951220Y-149616325D02*
X180855982Y-149663944D01*
X180855982Y-149663944D02*
X180475030Y-149663944D01*
X180475030Y-149663944D02*
X180475030Y-148663944D01*
X180475030Y-148663944D02*
X180808363Y-148663944D01*
X180808363Y-148663944D02*
X180903601Y-148711563D01*
X180903601Y-148711563D02*
X180951220Y-148759182D01*
X180951220Y-148759182D02*
X180998839Y-148854420D01*
X180998839Y-148854420D02*
X180998839Y-148949658D01*
X180998839Y-148949658D02*
X180951220Y-149044896D01*
X180951220Y-149044896D02*
X180903601Y-149092515D01*
X180903601Y-149092515D02*
X180808363Y-149140134D01*
X180808363Y-149140134D02*
X180475030Y-149140134D01*
X181998839Y-149663944D02*
X181427411Y-149663944D01*
X181713125Y-149663944D02*
X181713125Y-148663944D01*
X181713125Y-148663944D02*
X181617887Y-148806801D01*
X181617887Y-148806801D02*
X181522649Y-148902039D01*
X181522649Y-148902039D02*
X181427411Y-148949658D01*
X181076190Y-168457200D02*
X181219047Y-168504819D01*
X181219047Y-168504819D02*
X181457142Y-168504819D01*
X181457142Y-168504819D02*
X181552380Y-168457200D01*
X181552380Y-168457200D02*
X181599999Y-168409580D01*
X181599999Y-168409580D02*
X181647618Y-168314342D01*
X181647618Y-168314342D02*
X181647618Y-168219104D01*
X181647618Y-168219104D02*
X181599999Y-168123866D01*
X181599999Y-168123866D02*
X181552380Y-168076247D01*
X181552380Y-168076247D02*
X181457142Y-168028628D01*
X181457142Y-168028628D02*
X181266666Y-167981009D01*
X181266666Y-167981009D02*
X181171428Y-167933390D01*
X181171428Y-167933390D02*
X181123809Y-167885771D01*
X181123809Y-167885771D02*
X181076190Y-167790533D01*
X181076190Y-167790533D02*
X181076190Y-167695295D01*
X181076190Y-167695295D02*
X181123809Y-167600057D01*
X181123809Y-167600057D02*
X181171428Y-167552438D01*
X181171428Y-167552438D02*
X181266666Y-167504819D01*
X181266666Y-167504819D02*
X181504761Y-167504819D01*
X181504761Y-167504819D02*
X181647618Y-167552438D01*
X182076190Y-167838152D02*
X182076190Y-168838152D01*
X182076190Y-167885771D02*
X182171428Y-167838152D01*
X182171428Y-167838152D02*
X182361904Y-167838152D01*
X182361904Y-167838152D02*
X182457142Y-167885771D01*
X182457142Y-167885771D02*
X182504761Y-167933390D01*
X182504761Y-167933390D02*
X182552380Y-168028628D01*
X182552380Y-168028628D02*
X182552380Y-168314342D01*
X182552380Y-168314342D02*
X182504761Y-168409580D01*
X182504761Y-168409580D02*
X182457142Y-168457200D01*
X182457142Y-168457200D02*
X182361904Y-168504819D01*
X182361904Y-168504819D02*
X182171428Y-168504819D01*
X182171428Y-168504819D02*
X182076190Y-168457200D01*
X183409523Y-168504819D02*
X183409523Y-167981009D01*
X183409523Y-167981009D02*
X183361904Y-167885771D01*
X183361904Y-167885771D02*
X183266666Y-167838152D01*
X183266666Y-167838152D02*
X183076190Y-167838152D01*
X183076190Y-167838152D02*
X182980952Y-167885771D01*
X183409523Y-168457200D02*
X183314285Y-168504819D01*
X183314285Y-168504819D02*
X183076190Y-168504819D01*
X183076190Y-168504819D02*
X182980952Y-168457200D01*
X182980952Y-168457200D02*
X182933333Y-168361961D01*
X182933333Y-168361961D02*
X182933333Y-168266723D01*
X182933333Y-168266723D02*
X182980952Y-168171485D01*
X182980952Y-168171485D02*
X183076190Y-168123866D01*
X183076190Y-168123866D02*
X183314285Y-168123866D01*
X183314285Y-168123866D02*
X183409523Y-168076247D01*
X184314285Y-168457200D02*
X184219047Y-168504819D01*
X184219047Y-168504819D02*
X184028571Y-168504819D01*
X184028571Y-168504819D02*
X183933333Y-168457200D01*
X183933333Y-168457200D02*
X183885714Y-168409580D01*
X183885714Y-168409580D02*
X183838095Y-168314342D01*
X183838095Y-168314342D02*
X183838095Y-168028628D01*
X183838095Y-168028628D02*
X183885714Y-167933390D01*
X183885714Y-167933390D02*
X183933333Y-167885771D01*
X183933333Y-167885771D02*
X184028571Y-167838152D01*
X184028571Y-167838152D02*
X184219047Y-167838152D01*
X184219047Y-167838152D02*
X184314285Y-167885771D01*
X185123809Y-168457200D02*
X185028571Y-168504819D01*
X185028571Y-168504819D02*
X184838095Y-168504819D01*
X184838095Y-168504819D02*
X184742857Y-168457200D01*
X184742857Y-168457200D02*
X184695238Y-168361961D01*
X184695238Y-168361961D02*
X184695238Y-167981009D01*
X184695238Y-167981009D02*
X184742857Y-167885771D01*
X184742857Y-167885771D02*
X184838095Y-167838152D01*
X184838095Y-167838152D02*
X185028571Y-167838152D01*
X185028571Y-167838152D02*
X185123809Y-167885771D01*
X185123809Y-167885771D02*
X185171428Y-167981009D01*
X185171428Y-167981009D02*
X185171428Y-168076247D01*
X185171428Y-168076247D02*
X184695238Y-168171485D01*
X186123809Y-168504819D02*
X185552381Y-168504819D01*
X185838095Y-168504819D02*
X185838095Y-167504819D01*
X185838095Y-167504819D02*
X185742857Y-167647676D01*
X185742857Y-167647676D02*
X185647619Y-167742914D01*
X185647619Y-167742914D02*
X185552381Y-167790533D01*
X72033065Y-149616325D02*
X72175922Y-149663944D01*
X72175922Y-149663944D02*
X72414017Y-149663944D01*
X72414017Y-149663944D02*
X72509255Y-149616325D01*
X72509255Y-149616325D02*
X72556874Y-149568705D01*
X72556874Y-149568705D02*
X72604493Y-149473467D01*
X72604493Y-149473467D02*
X72604493Y-149378229D01*
X72604493Y-149378229D02*
X72556874Y-149282991D01*
X72556874Y-149282991D02*
X72509255Y-149235372D01*
X72509255Y-149235372D02*
X72414017Y-149187753D01*
X72414017Y-149187753D02*
X72223541Y-149140134D01*
X72223541Y-149140134D02*
X72128303Y-149092515D01*
X72128303Y-149092515D02*
X72080684Y-149044896D01*
X72080684Y-149044896D02*
X72033065Y-148949658D01*
X72033065Y-148949658D02*
X72033065Y-148854420D01*
X72033065Y-148854420D02*
X72080684Y-148759182D01*
X72080684Y-148759182D02*
X72128303Y-148711563D01*
X72128303Y-148711563D02*
X72223541Y-148663944D01*
X72223541Y-148663944D02*
X72461636Y-148663944D01*
X72461636Y-148663944D02*
X72604493Y-148711563D01*
X73033065Y-149663944D02*
X73033065Y-148663944D01*
X73461636Y-149663944D02*
X73461636Y-149140134D01*
X73461636Y-149140134D02*
X73414017Y-149044896D01*
X73414017Y-149044896D02*
X73318779Y-148997277D01*
X73318779Y-148997277D02*
X73175922Y-148997277D01*
X73175922Y-148997277D02*
X73080684Y-149044896D01*
X73080684Y-149044896D02*
X73033065Y-149092515D01*
X73937827Y-149663944D02*
X73937827Y-148997277D01*
X73937827Y-148663944D02*
X73890208Y-148711563D01*
X73890208Y-148711563D02*
X73937827Y-148759182D01*
X73937827Y-148759182D02*
X73985446Y-148711563D01*
X73985446Y-148711563D02*
X73937827Y-148663944D01*
X73937827Y-148663944D02*
X73937827Y-148759182D01*
X74271160Y-148997277D02*
X74652112Y-148997277D01*
X74414017Y-149663944D02*
X74414017Y-148806801D01*
X74414017Y-148806801D02*
X74461636Y-148711563D01*
X74461636Y-148711563D02*
X74556874Y-148663944D01*
X74556874Y-148663944D02*
X74652112Y-148663944D01*
X74842589Y-148997277D02*
X75223541Y-148997277D01*
X74985446Y-148663944D02*
X74985446Y-149521086D01*
X74985446Y-149521086D02*
X75033065Y-149616325D01*
X75033065Y-149616325D02*
X75128303Y-149663944D01*
X75128303Y-149663944D02*
X75223541Y-149663944D01*
X76080684Y-149663944D02*
X75509256Y-149663944D01*
X75794970Y-149663944D02*
X75794970Y-148663944D01*
X75794970Y-148663944D02*
X75699732Y-148806801D01*
X75699732Y-148806801D02*
X75604494Y-148902039D01*
X75604494Y-148902039D02*
X75509256Y-148949658D01*
X175760149Y-91847277D02*
X175760149Y-92513944D01*
X175760149Y-91942515D02*
X175807768Y-91894896D01*
X175807768Y-91894896D02*
X175903006Y-91847277D01*
X175903006Y-91847277D02*
X176045863Y-91847277D01*
X176045863Y-91847277D02*
X176141101Y-91894896D01*
X176141101Y-91894896D02*
X176188720Y-91990134D01*
X176188720Y-91990134D02*
X176188720Y-92513944D01*
X177093482Y-91513944D02*
X176903006Y-91513944D01*
X176903006Y-91513944D02*
X176807768Y-91561563D01*
X176807768Y-91561563D02*
X176760149Y-91609182D01*
X176760149Y-91609182D02*
X176664911Y-91752039D01*
X176664911Y-91752039D02*
X176617292Y-91942515D01*
X176617292Y-91942515D02*
X176617292Y-92323467D01*
X176617292Y-92323467D02*
X176664911Y-92418705D01*
X176664911Y-92418705D02*
X176712530Y-92466325D01*
X176712530Y-92466325D02*
X176807768Y-92513944D01*
X176807768Y-92513944D02*
X176998244Y-92513944D01*
X176998244Y-92513944D02*
X177093482Y-92466325D01*
X177093482Y-92466325D02*
X177141101Y-92418705D01*
X177141101Y-92418705D02*
X177188720Y-92323467D01*
X177188720Y-92323467D02*
X177188720Y-92085372D01*
X177188720Y-92085372D02*
X177141101Y-91990134D01*
X177141101Y-91990134D02*
X177093482Y-91942515D01*
X177093482Y-91942515D02*
X176998244Y-91894896D01*
X176998244Y-91894896D02*
X176807768Y-91894896D01*
X176807768Y-91894896D02*
X176712530Y-91942515D01*
X176712530Y-91942515D02*
X176664911Y-91990134D01*
X176664911Y-91990134D02*
X176617292Y-92085372D01*
X123253601Y-148663944D02*
X123920267Y-149663944D01*
X123920267Y-148663944D02*
X123253601Y-149663944D01*
X124825029Y-149663944D02*
X124253601Y-149663944D01*
X124539315Y-149663944D02*
X124539315Y-148663944D01*
X124539315Y-148663944D02*
X124444077Y-148806801D01*
X124444077Y-148806801D02*
X124348839Y-148902039D01*
X124348839Y-148902039D02*
X124253601Y-148949658D01*
X209454791Y-129613944D02*
X209454791Y-130328229D01*
X209454791Y-130328229D02*
X209407172Y-130471086D01*
X209407172Y-130471086D02*
X209311934Y-130566325D01*
X209311934Y-130566325D02*
X209169077Y-130613944D01*
X209169077Y-130613944D02*
X209073839Y-130613944D01*
X210454791Y-130613944D02*
X209883363Y-130613944D01*
X210169077Y-130613944D02*
X210169077Y-129613944D01*
X210169077Y-129613944D02*
X210073839Y-129756801D01*
X210073839Y-129756801D02*
X209978601Y-129852039D01*
X209978601Y-129852039D02*
X209883363Y-129899658D01*
X214217291Y-72940134D02*
X213883958Y-72940134D01*
X213883958Y-73463944D02*
X213883958Y-72463944D01*
X213883958Y-72463944D02*
X214360148Y-72463944D01*
X214883958Y-72892515D02*
X214788720Y-72844896D01*
X214788720Y-72844896D02*
X214741101Y-72797277D01*
X214741101Y-72797277D02*
X214693482Y-72702039D01*
X214693482Y-72702039D02*
X214693482Y-72654420D01*
X214693482Y-72654420D02*
X214741101Y-72559182D01*
X214741101Y-72559182D02*
X214788720Y-72511563D01*
X214788720Y-72511563D02*
X214883958Y-72463944D01*
X214883958Y-72463944D02*
X215074434Y-72463944D01*
X215074434Y-72463944D02*
X215169672Y-72511563D01*
X215169672Y-72511563D02*
X215217291Y-72559182D01*
X215217291Y-72559182D02*
X215264910Y-72654420D01*
X215264910Y-72654420D02*
X215264910Y-72702039D01*
X215264910Y-72702039D02*
X215217291Y-72797277D01*
X215217291Y-72797277D02*
X215169672Y-72844896D01*
X215169672Y-72844896D02*
X215074434Y-72892515D01*
X215074434Y-72892515D02*
X214883958Y-72892515D01*
X214883958Y-72892515D02*
X214788720Y-72940134D01*
X214788720Y-72940134D02*
X214741101Y-72987753D01*
X214741101Y-72987753D02*
X214693482Y-73082991D01*
X214693482Y-73082991D02*
X214693482Y-73273467D01*
X214693482Y-73273467D02*
X214741101Y-73368705D01*
X214741101Y-73368705D02*
X214788720Y-73416325D01*
X214788720Y-73416325D02*
X214883958Y-73463944D01*
X214883958Y-73463944D02*
X215074434Y-73463944D01*
X215074434Y-73463944D02*
X215169672Y-73416325D01*
X215169672Y-73416325D02*
X215217291Y-73368705D01*
X215217291Y-73368705D02*
X215264910Y-73273467D01*
X215264910Y-73273467D02*
X215264910Y-73082991D01*
X215264910Y-73082991D02*
X215217291Y-72987753D01*
X215217291Y-72987753D02*
X215169672Y-72940134D01*
X215169672Y-72940134D02*
X215074434Y-72892515D01*
X315467856Y-91556009D02*
X315610713Y-91603628D01*
X315610713Y-91603628D02*
X315658332Y-91651247D01*
X315658332Y-91651247D02*
X315705951Y-91746485D01*
X315705951Y-91746485D02*
X315705951Y-91889342D01*
X315705951Y-91889342D02*
X315658332Y-91984580D01*
X315658332Y-91984580D02*
X315610713Y-92032200D01*
X315610713Y-92032200D02*
X315515475Y-92079819D01*
X315515475Y-92079819D02*
X315134523Y-92079819D01*
X315134523Y-92079819D02*
X315134523Y-91079819D01*
X315134523Y-91079819D02*
X315467856Y-91079819D01*
X315467856Y-91079819D02*
X315563094Y-91127438D01*
X315563094Y-91127438D02*
X315610713Y-91175057D01*
X315610713Y-91175057D02*
X315658332Y-91270295D01*
X315658332Y-91270295D02*
X315658332Y-91365533D01*
X315658332Y-91365533D02*
X315610713Y-91460771D01*
X315610713Y-91460771D02*
X315563094Y-91508390D01*
X315563094Y-91508390D02*
X315467856Y-91556009D01*
X315467856Y-91556009D02*
X315134523Y-91556009D01*
X316563094Y-92079819D02*
X316563094Y-91556009D01*
X316563094Y-91556009D02*
X316515475Y-91460771D01*
X316515475Y-91460771D02*
X316420237Y-91413152D01*
X316420237Y-91413152D02*
X316229761Y-91413152D01*
X316229761Y-91413152D02*
X316134523Y-91460771D01*
X316563094Y-92032200D02*
X316467856Y-92079819D01*
X316467856Y-92079819D02*
X316229761Y-92079819D01*
X316229761Y-92079819D02*
X316134523Y-92032200D01*
X316134523Y-92032200D02*
X316086904Y-91936961D01*
X316086904Y-91936961D02*
X316086904Y-91841723D01*
X316086904Y-91841723D02*
X316134523Y-91746485D01*
X316134523Y-91746485D02*
X316229761Y-91698866D01*
X316229761Y-91698866D02*
X316467856Y-91698866D01*
X316467856Y-91698866D02*
X316563094Y-91651247D01*
X317467856Y-92032200D02*
X317372618Y-92079819D01*
X317372618Y-92079819D02*
X317182142Y-92079819D01*
X317182142Y-92079819D02*
X317086904Y-92032200D01*
X317086904Y-92032200D02*
X317039285Y-91984580D01*
X317039285Y-91984580D02*
X316991666Y-91889342D01*
X316991666Y-91889342D02*
X316991666Y-91603628D01*
X316991666Y-91603628D02*
X317039285Y-91508390D01*
X317039285Y-91508390D02*
X317086904Y-91460771D01*
X317086904Y-91460771D02*
X317182142Y-91413152D01*
X317182142Y-91413152D02*
X317372618Y-91413152D01*
X317372618Y-91413152D02*
X317467856Y-91460771D01*
X317896428Y-92079819D02*
X317896428Y-91079819D01*
X317991666Y-91698866D02*
X318277380Y-92079819D01*
X318277380Y-91413152D02*
X317896428Y-91794104D01*
X318658333Y-92032200D02*
X318753571Y-92079819D01*
X318753571Y-92079819D02*
X318944047Y-92079819D01*
X318944047Y-92079819D02*
X319039285Y-92032200D01*
X319039285Y-92032200D02*
X319086904Y-91936961D01*
X319086904Y-91936961D02*
X319086904Y-91889342D01*
X319086904Y-91889342D02*
X319039285Y-91794104D01*
X319039285Y-91794104D02*
X318944047Y-91746485D01*
X318944047Y-91746485D02*
X318801190Y-91746485D01*
X318801190Y-91746485D02*
X318705952Y-91698866D01*
X318705952Y-91698866D02*
X318658333Y-91603628D01*
X318658333Y-91603628D02*
X318658333Y-91556009D01*
X318658333Y-91556009D02*
X318705952Y-91460771D01*
X318705952Y-91460771D02*
X318801190Y-91413152D01*
X318801190Y-91413152D02*
X318944047Y-91413152D01*
X318944047Y-91413152D02*
X319039285Y-91460771D01*
X319515476Y-91413152D02*
X319515476Y-92413152D01*
X319515476Y-91460771D02*
X319610714Y-91413152D01*
X319610714Y-91413152D02*
X319801190Y-91413152D01*
X319801190Y-91413152D02*
X319896428Y-91460771D01*
X319896428Y-91460771D02*
X319944047Y-91508390D01*
X319944047Y-91508390D02*
X319991666Y-91603628D01*
X319991666Y-91603628D02*
X319991666Y-91889342D01*
X319991666Y-91889342D02*
X319944047Y-91984580D01*
X319944047Y-91984580D02*
X319896428Y-92032200D01*
X319896428Y-92032200D02*
X319801190Y-92079819D01*
X319801190Y-92079819D02*
X319610714Y-92079819D01*
X319610714Y-92079819D02*
X319515476Y-92032200D01*
X320848809Y-92079819D02*
X320848809Y-91556009D01*
X320848809Y-91556009D02*
X320801190Y-91460771D01*
X320801190Y-91460771D02*
X320705952Y-91413152D01*
X320705952Y-91413152D02*
X320515476Y-91413152D01*
X320515476Y-91413152D02*
X320420238Y-91460771D01*
X320848809Y-92032200D02*
X320753571Y-92079819D01*
X320753571Y-92079819D02*
X320515476Y-92079819D01*
X320515476Y-92079819D02*
X320420238Y-92032200D01*
X320420238Y-92032200D02*
X320372619Y-91936961D01*
X320372619Y-91936961D02*
X320372619Y-91841723D01*
X320372619Y-91841723D02*
X320420238Y-91746485D01*
X320420238Y-91746485D02*
X320515476Y-91698866D01*
X320515476Y-91698866D02*
X320753571Y-91698866D01*
X320753571Y-91698866D02*
X320848809Y-91651247D01*
X321753571Y-92032200D02*
X321658333Y-92079819D01*
X321658333Y-92079819D02*
X321467857Y-92079819D01*
X321467857Y-92079819D02*
X321372619Y-92032200D01*
X321372619Y-92032200D02*
X321325000Y-91984580D01*
X321325000Y-91984580D02*
X321277381Y-91889342D01*
X321277381Y-91889342D02*
X321277381Y-91603628D01*
X321277381Y-91603628D02*
X321325000Y-91508390D01*
X321325000Y-91508390D02*
X321372619Y-91460771D01*
X321372619Y-91460771D02*
X321467857Y-91413152D01*
X321467857Y-91413152D02*
X321658333Y-91413152D01*
X321658333Y-91413152D02*
X321753571Y-91460771D01*
X322563095Y-92032200D02*
X322467857Y-92079819D01*
X322467857Y-92079819D02*
X322277381Y-92079819D01*
X322277381Y-92079819D02*
X322182143Y-92032200D01*
X322182143Y-92032200D02*
X322134524Y-91936961D01*
X322134524Y-91936961D02*
X322134524Y-91556009D01*
X322134524Y-91556009D02*
X322182143Y-91460771D01*
X322182143Y-91460771D02*
X322277381Y-91413152D01*
X322277381Y-91413152D02*
X322467857Y-91413152D01*
X322467857Y-91413152D02*
X322563095Y-91460771D01*
X322563095Y-91460771D02*
X322610714Y-91556009D01*
X322610714Y-91556009D02*
X322610714Y-91651247D01*
X322610714Y-91651247D02*
X322134524Y-91746485D01*
X323563095Y-92079819D02*
X322991667Y-92079819D01*
X323277381Y-92079819D02*
X323277381Y-91079819D01*
X323277381Y-91079819D02*
X323182143Y-91222676D01*
X323182143Y-91222676D02*
X323086905Y-91317914D01*
X323086905Y-91317914D02*
X322991667Y-91365533D01*
X185499434Y-111087753D02*
X185499434Y-111563944D01*
X185166101Y-110563944D02*
X185499434Y-111087753D01*
X185499434Y-111087753D02*
X185832767Y-110563944D01*
X186689910Y-111563944D02*
X186118482Y-111563944D01*
X186404196Y-111563944D02*
X186404196Y-110563944D01*
X186404196Y-110563944D02*
X186308958Y-110706801D01*
X186308958Y-110706801D02*
X186213720Y-110802039D01*
X186213720Y-110802039D02*
X186118482Y-110849658D01*
X118610149Y-91847277D02*
X118610149Y-92513944D01*
X118610149Y-91942515D02*
X118657768Y-91894896D01*
X118657768Y-91894896D02*
X118753006Y-91847277D01*
X118753006Y-91847277D02*
X118895863Y-91847277D01*
X118895863Y-91847277D02*
X118991101Y-91894896D01*
X118991101Y-91894896D02*
X119038720Y-91990134D01*
X119038720Y-91990134D02*
X119038720Y-92513944D01*
X119419673Y-91513944D02*
X120038720Y-91513944D01*
X120038720Y-91513944D02*
X119705387Y-91894896D01*
X119705387Y-91894896D02*
X119848244Y-91894896D01*
X119848244Y-91894896D02*
X119943482Y-91942515D01*
X119943482Y-91942515D02*
X119991101Y-91990134D01*
X119991101Y-91990134D02*
X120038720Y-92085372D01*
X120038720Y-92085372D02*
X120038720Y-92323467D01*
X120038720Y-92323467D02*
X119991101Y-92418705D01*
X119991101Y-92418705D02*
X119943482Y-92466325D01*
X119943482Y-92466325D02*
X119848244Y-92513944D01*
X119848244Y-92513944D02*
X119562530Y-92513944D01*
X119562530Y-92513944D02*
X119467292Y-92466325D01*
X119467292Y-92466325D02*
X119419673Y-92418705D01*
X270891101Y-72940134D02*
X270557768Y-72940134D01*
X270557768Y-73463944D02*
X270557768Y-72463944D01*
X270557768Y-72463944D02*
X271033958Y-72463944D01*
X271938720Y-73463944D02*
X271367292Y-73463944D01*
X271653006Y-73463944D02*
X271653006Y-72463944D01*
X271653006Y-72463944D02*
X271557768Y-72606801D01*
X271557768Y-72606801D02*
X271462530Y-72702039D01*
X271462530Y-72702039D02*
X271367292Y-72749658D01*
X272891101Y-73463944D02*
X272319673Y-73463944D01*
X272605387Y-73463944D02*
X272605387Y-72463944D01*
X272605387Y-72463944D02*
X272510149Y-72606801D01*
X272510149Y-72606801D02*
X272414911Y-72702039D01*
X272414911Y-72702039D02*
X272319673Y-72749658D01*
X289893482Y-91990134D02*
X290655387Y-91990134D01*
X290655387Y-92275848D02*
X289893482Y-92275848D01*
X291655386Y-92513944D02*
X291083958Y-92513944D01*
X291369672Y-92513944D02*
X291369672Y-91513944D01*
X291369672Y-91513944D02*
X291274434Y-91656801D01*
X291274434Y-91656801D02*
X291179196Y-91752039D01*
X291179196Y-91752039D02*
X291083958Y-91799658D01*
X80867291Y-72940134D02*
X80533958Y-72940134D01*
X80533958Y-73463944D02*
X80533958Y-72463944D01*
X80533958Y-72463944D02*
X81010148Y-72463944D01*
X81914910Y-73463944D02*
X81343482Y-73463944D01*
X81629196Y-73463944D02*
X81629196Y-72463944D01*
X81629196Y-72463944D02*
X81533958Y-72606801D01*
X81533958Y-72606801D02*
X81438720Y-72702039D01*
X81438720Y-72702039D02*
X81343482Y-72749658D01*
X157067291Y-72940134D02*
X156733958Y-72940134D01*
X156733958Y-73463944D02*
X156733958Y-72463944D01*
X156733958Y-72463944D02*
X157210148Y-72463944D01*
X158067291Y-72463944D02*
X157591101Y-72463944D01*
X157591101Y-72463944D02*
X157543482Y-72940134D01*
X157543482Y-72940134D02*
X157591101Y-72892515D01*
X157591101Y-72892515D02*
X157686339Y-72844896D01*
X157686339Y-72844896D02*
X157924434Y-72844896D01*
X157924434Y-72844896D02*
X158019672Y-72892515D01*
X158019672Y-72892515D02*
X158067291Y-72940134D01*
X158067291Y-72940134D02*
X158114910Y-73035372D01*
X158114910Y-73035372D02*
X158114910Y-73273467D01*
X158114910Y-73273467D02*
X158067291Y-73368705D01*
X158067291Y-73368705D02*
X158019672Y-73416325D01*
X158019672Y-73416325D02*
X157924434Y-73463944D01*
X157924434Y-73463944D02*
X157686339Y-73463944D01*
X157686339Y-73463944D02*
X157591101Y-73416325D01*
X157591101Y-73416325D02*
X157543482Y-73368705D01*
D11*
%TO.C,D43*%
X194142500Y-121295000D02*
X196382500Y-121295000D01*
X194142500Y-121415000D02*
X196382500Y-121415000D01*
X194142500Y-121535000D02*
X196382500Y-121535000D01*
X195262500Y-117245000D02*
X195262500Y-117895000D01*
X195262500Y-122785000D02*
X195262500Y-122135000D01*
X194142500Y-122135000D02*
X196382500Y-122135000D01*
X196382500Y-117895000D01*
X194142500Y-117895000D01*
X194142500Y-122135000D01*
%TO.C,W1*%
X102790625Y-111998125D02*
X116760625Y-111998125D01*
X102790625Y-125968125D02*
X102790625Y-111998125D01*
X116760625Y-111998125D02*
X116760625Y-125968125D01*
X116760625Y-125968125D02*
X102790625Y-125968125D01*
%TO.C,T1*%
X159940625Y-111998125D02*
X173910625Y-111998125D01*
X159940625Y-125968125D02*
X159940625Y-111998125D01*
X173910625Y-111998125D02*
X173910625Y-125968125D01*
X173910625Y-125968125D02*
X159940625Y-125968125D01*
%TO.C,N10*%
X193278125Y-150098125D02*
X207248125Y-150098125D01*
X193278125Y-164068125D02*
X193278125Y-150098125D01*
X207248125Y-150098125D02*
X207248125Y-164068125D01*
X207248125Y-164068125D02*
X193278125Y-164068125D01*
%TO.C,Alt2*%
X245665625Y-169148125D02*
X259635625Y-169148125D01*
X245665625Y-183118125D02*
X245665625Y-169148125D01*
X259635625Y-169148125D02*
X259635625Y-183118125D01*
X259635625Y-183118125D02*
X245665625Y-183118125D01*
%TO.C,~1*%
X55165625Y-92948125D02*
X69135625Y-92948125D01*
X55165625Y-106918125D02*
X55165625Y-92948125D01*
X69135625Y-92948125D02*
X69135625Y-106918125D01*
X69135625Y-106918125D02*
X55165625Y-106918125D01*
%TO.C,I1*%
X217090625Y-111998125D02*
X231060625Y-111998125D01*
X217090625Y-125968125D02*
X217090625Y-111998125D01*
X231060625Y-111998125D02*
X231060625Y-125968125D01*
X231060625Y-125968125D02*
X217090625Y-125968125D01*
%TO.C,PgDn1*%
X340915625Y-131048125D02*
X354885625Y-131048125D01*
X340915625Y-145018125D02*
X340915625Y-131048125D01*
X354885625Y-131048125D02*
X354885625Y-145018125D01*
X354885625Y-145018125D02*
X340915625Y-145018125D01*
%TO.C,V1*%
X155178125Y-150098125D02*
X169148125Y-150098125D01*
X155178125Y-164068125D02*
X155178125Y-150098125D01*
X169148125Y-150098125D02*
X169148125Y-164068125D01*
X169148125Y-164068125D02*
X155178125Y-164068125D01*
%TO.C,D2*%
X70317500Y-83195000D02*
X72557500Y-83195000D01*
X70317500Y-83315000D02*
X72557500Y-83315000D01*
X70317500Y-83435000D02*
X72557500Y-83435000D01*
X71437500Y-79145000D02*
X71437500Y-79795000D01*
X71437500Y-84685000D02*
X71437500Y-84035000D01*
X70317500Y-84035000D02*
X72557500Y-84035000D01*
X72557500Y-79795000D01*
X70317500Y-79795000D01*
X70317500Y-84035000D01*
%TO.C,D53*%
X289392500Y-121295000D02*
X291632500Y-121295000D01*
X289392500Y-121415000D02*
X291632500Y-121415000D01*
X289392500Y-121535000D02*
X291632500Y-121535000D01*
X290512500Y-117245000D02*
X290512500Y-117895000D01*
X290512500Y-122785000D02*
X290512500Y-122135000D01*
X289392500Y-122135000D02*
X291632500Y-122135000D01*
X291632500Y-117895000D01*
X289392500Y-117895000D01*
X289392500Y-122135000D01*
%TO.C,n4*%
X131365625Y-92948125D02*
X145335625Y-92948125D01*
X131365625Y-106918125D02*
X131365625Y-92948125D01*
X145335625Y-92948125D02*
X145335625Y-106918125D01*
X145335625Y-106918125D02*
X131365625Y-106918125D01*
%TO.C,D45*%
X213192500Y-121295000D02*
X215432500Y-121295000D01*
X213192500Y-121415000D02*
X215432500Y-121415000D01*
X213192500Y-121535000D02*
X215432500Y-121535000D01*
X214312500Y-117245000D02*
X214312500Y-117895000D01*
X214312500Y-122785000D02*
X214312500Y-122135000D01*
X213192500Y-122135000D02*
X215432500Y-122135000D01*
X215432500Y-117895000D01*
X213192500Y-117895000D01*
X213192500Y-122135000D01*
%TO.C,.1*%
X250428125Y-150098125D02*
X264398125Y-150098125D01*
X250428125Y-164068125D02*
X250428125Y-150098125D01*
X264398125Y-150098125D02*
X264398125Y-164068125D01*
X264398125Y-164068125D02*
X250428125Y-164068125D01*
%TO.C,D65*%
X132230000Y-159156875D02*
X134470000Y-159156875D01*
X132230000Y-159276875D02*
X134470000Y-159276875D01*
X132230000Y-159396875D02*
X134470000Y-159396875D01*
X133350000Y-155106875D02*
X133350000Y-155756875D01*
X133350000Y-160646875D02*
X133350000Y-159996875D01*
X132230000Y-159996875D02*
X134470000Y-159996875D01*
X134470000Y-155756875D01*
X132230000Y-155756875D01*
X132230000Y-159996875D01*
%TO.C,D91*%
X336290000Y-83160000D02*
X338530000Y-83160000D01*
X336290000Y-83280000D02*
X338530000Y-83280000D01*
X336290000Y-83400000D02*
X338530000Y-83400000D01*
X337410000Y-79110000D02*
X337410000Y-79760000D01*
X337410000Y-84650000D02*
X337410000Y-84000000D01*
X336290000Y-84000000D02*
X338530000Y-84000000D01*
X338530000Y-79760000D01*
X336290000Y-79760000D01*
X336290000Y-84000000D01*
%TO.C,Tab1*%
X59928125Y-111998125D02*
X73898125Y-111998125D01*
X59928125Y-125968125D02*
X59928125Y-111998125D01*
X73898125Y-111998125D02*
X73898125Y-125968125D01*
X73898125Y-125968125D02*
X59928125Y-125968125D01*
%TO.C,n8*%
X207565625Y-92948125D02*
X221535625Y-92948125D01*
X207565625Y-106918125D02*
X207565625Y-92948125D01*
X221535625Y-92948125D02*
X221535625Y-106918125D01*
X221535625Y-106918125D02*
X207565625Y-106918125D01*
%TO.C,D25*%
X241767500Y-102245000D02*
X244007500Y-102245000D01*
X241767500Y-102365000D02*
X244007500Y-102365000D01*
X241767500Y-102485000D02*
X244007500Y-102485000D01*
X242887500Y-98195000D02*
X242887500Y-98845000D01*
X242887500Y-103735000D02*
X242887500Y-103085000D01*
X241767500Y-103085000D02*
X244007500Y-103085000D01*
X244007500Y-98845000D01*
X241767500Y-98845000D01*
X241767500Y-103085000D01*
%TO.C,n5*%
X150415625Y-92948125D02*
X164385625Y-92948125D01*
X150415625Y-106918125D02*
X150415625Y-92948125D01*
X164385625Y-92948125D02*
X164385625Y-106918125D01*
X164385625Y-106918125D02*
X150415625Y-106918125D01*
%TO.C,D82*%
X298917500Y-178445000D02*
X301157500Y-178445000D01*
X298917500Y-178565000D02*
X301157500Y-178565000D01*
X298917500Y-178685000D02*
X301157500Y-178685000D01*
X300037500Y-174395000D02*
X300037500Y-175045000D01*
X300037500Y-179935000D02*
X300037500Y-179285000D01*
X298917500Y-179285000D02*
X301157500Y-179285000D01*
X301157500Y-175045000D01*
X298917500Y-175045000D01*
X298917500Y-179285000D01*
%TO.C,F7*%
X188515625Y-73898125D02*
X202485625Y-73898125D01*
X188515625Y-87868125D02*
X188515625Y-73898125D01*
X202485625Y-73898125D02*
X202485625Y-87868125D01*
X202485625Y-87868125D02*
X188515625Y-87868125D01*
%TO.C,D59*%
X345645000Y-109150000D02*
X346295000Y-109150000D01*
X346895000Y-108030000D02*
X346895000Y-110270000D01*
X347015000Y-108030000D02*
X347015000Y-110270000D01*
X347135000Y-108030000D02*
X347135000Y-110270000D01*
X351185000Y-109150000D02*
X350535000Y-109150000D01*
X346295000Y-108030000D02*
X350535000Y-108030000D01*
X350535000Y-110270000D01*
X346295000Y-110270000D01*
X346295000Y-108030000D01*
%TO.C,D58*%
X347445000Y-128150000D02*
X348095000Y-128150000D01*
X351495000Y-129270000D02*
X351495000Y-127030000D01*
X351615000Y-129270000D02*
X351615000Y-127030000D01*
X351735000Y-129270000D02*
X351735000Y-127030000D01*
X352985000Y-128150000D02*
X352335000Y-128150000D01*
X352335000Y-129270000D02*
X348095000Y-129270000D01*
X348095000Y-127030000D01*
X352335000Y-127030000D01*
X352335000Y-129270000D01*
%TO.C,n1*%
X74215625Y-92948125D02*
X88185625Y-92948125D01*
X74215625Y-106918125D02*
X74215625Y-92948125D01*
X88185625Y-92948125D02*
X88185625Y-106918125D01*
X88185625Y-106918125D02*
X74215625Y-106918125D01*
%TO.C,\u002C1*%
X231378125Y-150098125D02*
X245348125Y-150098125D01*
X231378125Y-164068125D02*
X231378125Y-150098125D01*
X245348125Y-150098125D02*
X245348125Y-164068125D01*
X245348125Y-164068125D02*
X231378125Y-164068125D01*
%TO.C,Q1*%
X83740625Y-111998125D02*
X97710625Y-111998125D01*
X83740625Y-125968125D02*
X83740625Y-111998125D01*
X97710625Y-111998125D02*
X97710625Y-125968125D01*
X97710625Y-125968125D02*
X83740625Y-125968125D01*
%TO.C,D72*%
X241767500Y-178445000D02*
X244007500Y-178445000D01*
X241767500Y-178565000D02*
X244007500Y-178565000D01*
X241767500Y-178685000D02*
X244007500Y-178685000D01*
X242887500Y-174395000D02*
X242887500Y-175045000D01*
X242887500Y-179935000D02*
X242887500Y-179285000D01*
X241767500Y-179285000D02*
X244007500Y-179285000D01*
X244007500Y-175045000D01*
X241767500Y-175045000D01*
X241767500Y-179285000D01*
%TO.C,Z1*%
X98028125Y-150098125D02*
X111998125Y-150098125D01*
X98028125Y-164068125D02*
X98028125Y-150098125D01*
X111998125Y-150098125D02*
X111998125Y-164068125D01*
X111998125Y-164068125D02*
X98028125Y-164068125D01*
%TO.C,/1*%
X269478125Y-150098125D02*
X283448125Y-150098125D01*
X269478125Y-164068125D02*
X269478125Y-150098125D01*
X283448125Y-150098125D02*
X283448125Y-164068125D01*
X283448125Y-164068125D02*
X269478125Y-164068125D01*
%TO.C,D87*%
X342420000Y-147300000D02*
X343070000Y-147300000D01*
X343670000Y-146180000D02*
X343670000Y-148420000D01*
X343790000Y-146180000D02*
X343790000Y-148420000D01*
X343910000Y-146180000D02*
X343910000Y-148420000D01*
X347960000Y-147300000D02*
X347310000Y-147300000D01*
X343070000Y-146180000D02*
X347310000Y-146180000D01*
X347310000Y-148420000D01*
X343070000Y-148420000D01*
X343070000Y-146180000D01*
%TO.C,D15*%
X346915000Y-90275000D02*
X347565000Y-90275000D01*
X348165000Y-89155000D02*
X348165000Y-91395000D01*
X348285000Y-89155000D02*
X348285000Y-91395000D01*
X348405000Y-89155000D02*
X348405000Y-91395000D01*
X352455000Y-90275000D02*
X351805000Y-90275000D01*
X347565000Y-89155000D02*
X351805000Y-89155000D01*
X351805000Y-91395000D01*
X347565000Y-91395000D01*
X347565000Y-89155000D01*
%TO.C,D19*%
X127467500Y-102245000D02*
X129707500Y-102245000D01*
X127467500Y-102365000D02*
X129707500Y-102365000D01*
X127467500Y-102485000D02*
X129707500Y-102485000D01*
X128587500Y-98195000D02*
X128587500Y-98845000D01*
X128587500Y-103735000D02*
X128587500Y-103085000D01*
X127467500Y-103085000D02*
X129707500Y-103085000D01*
X129707500Y-98845000D01*
X127467500Y-98845000D01*
X127467500Y-103085000D01*
%TO.C,S1*%
X107553125Y-131048125D02*
X121523125Y-131048125D01*
X107553125Y-145018125D02*
X107553125Y-131048125D01*
X121523125Y-131048125D02*
X121523125Y-145018125D01*
X121523125Y-145018125D02*
X107553125Y-145018125D01*
%TO.C,L1*%
X240903125Y-131048125D02*
X254873125Y-131048125D01*
X240903125Y-145018125D02*
X240903125Y-131048125D01*
X254873125Y-131048125D02*
X254873125Y-145018125D01*
X254873125Y-145018125D02*
X240903125Y-145018125D01*
%TO.C,Enter1*%
X309959375Y-131048125D02*
X323929375Y-131048125D01*
X309959375Y-145018125D02*
X309959375Y-131048125D01*
X323929375Y-131048125D02*
X323929375Y-145018125D01*
X323929375Y-145018125D02*
X309959375Y-145018125D01*
%TO.C,D44*%
X198905000Y-140345000D02*
X201145000Y-140345000D01*
X198905000Y-140465000D02*
X201145000Y-140465000D01*
X198905000Y-140585000D02*
X201145000Y-140585000D01*
X200025000Y-136295000D02*
X200025000Y-136945000D01*
X200025000Y-141835000D02*
X200025000Y-141185000D01*
X198905000Y-141185000D02*
X201145000Y-141185000D01*
X201145000Y-136945000D01*
X198905000Y-136945000D01*
X198905000Y-141185000D01*
%TO.C,D10*%
X241767500Y-83195000D02*
X244007500Y-83195000D01*
X241767500Y-83315000D02*
X244007500Y-83315000D01*
X241767500Y-83435000D02*
X244007500Y-83435000D01*
X242887500Y-79145000D02*
X242887500Y-79795000D01*
X242887500Y-84685000D02*
X242887500Y-84035000D01*
X241767500Y-84035000D02*
X244007500Y-84035000D01*
X244007500Y-79795000D01*
X241767500Y-79795000D01*
X241767500Y-84035000D01*
%TO.C,K1*%
X221853125Y-131048125D02*
X235823125Y-131048125D01*
X221853125Y-145018125D02*
X221853125Y-131048125D01*
X235823125Y-131048125D02*
X235823125Y-145018125D01*
X235823125Y-145018125D02*
X221853125Y-145018125D01*
%TO.C,F2*%
X93265625Y-73898125D02*
X107235625Y-73898125D01*
X93265625Y-87868125D02*
X93265625Y-73898125D01*
X107235625Y-73898125D02*
X107235625Y-87868125D01*
X107235625Y-87868125D02*
X93265625Y-87868125D01*
%TO.C,D38*%
X141755000Y-140345000D02*
X143995000Y-140345000D01*
X141755000Y-140465000D02*
X143995000Y-140465000D01*
X141755000Y-140585000D02*
X143995000Y-140585000D01*
X142875000Y-136295000D02*
X142875000Y-136945000D01*
X142875000Y-141835000D02*
X142875000Y-141185000D01*
X141755000Y-141185000D02*
X143995000Y-141185000D01*
X143995000Y-136945000D01*
X141755000Y-136945000D01*
X141755000Y-141185000D01*
%TO.C,D9*%
X222717500Y-83195000D02*
X224957500Y-83195000D01*
X222717500Y-83315000D02*
X224957500Y-83315000D01*
X222717500Y-83435000D02*
X224957500Y-83435000D01*
X223837500Y-79145000D02*
X223837500Y-79795000D01*
X223837500Y-84685000D02*
X223837500Y-84035000D01*
X222717500Y-84035000D02*
X224957500Y-84035000D01*
X224957500Y-79795000D01*
X222717500Y-79795000D01*
X222717500Y-84035000D01*
%TO.C,D31*%
X79842500Y-121295000D02*
X82082500Y-121295000D01*
X79842500Y-121415000D02*
X82082500Y-121415000D01*
X79842500Y-121535000D02*
X82082500Y-121535000D01*
X80962500Y-117245000D02*
X80962500Y-117895000D01*
X80962500Y-122785000D02*
X80962500Y-122135000D01*
X79842500Y-122135000D02*
X82082500Y-122135000D01*
X82082500Y-117895000D01*
X79842500Y-117895000D01*
X79842500Y-122135000D01*
%TO.C,D52*%
X275105000Y-140345000D02*
X277345000Y-140345000D01*
X275105000Y-140465000D02*
X277345000Y-140465000D01*
X275105000Y-140585000D02*
X277345000Y-140585000D01*
X276225000Y-136295000D02*
X276225000Y-136945000D01*
X276225000Y-141835000D02*
X276225000Y-141185000D01*
X275105000Y-141185000D02*
X277345000Y-141185000D01*
X277345000Y-136945000D01*
X275105000Y-136945000D01*
X275105000Y-141185000D01*
%TO.C,Home1*%
X340915625Y-92948125D02*
X354885625Y-92948125D01*
X340915625Y-106918125D02*
X340915625Y-92948125D01*
X354885625Y-92948125D02*
X354885625Y-106918125D01*
X354885625Y-106918125D02*
X340915625Y-106918125D01*
%TO.C,D35*%
X117942500Y-121295000D02*
X120182500Y-121295000D01*
X117942500Y-121415000D02*
X120182500Y-121415000D01*
X117942500Y-121535000D02*
X120182500Y-121535000D01*
X119062500Y-117245000D02*
X119062500Y-117895000D01*
X119062500Y-122785000D02*
X119062500Y-122135000D01*
X117942500Y-122135000D02*
X120182500Y-122135000D01*
X120182500Y-117895000D01*
X117942500Y-117895000D01*
X117942500Y-122135000D01*
%TO.C,Fn1*%
X264715625Y-169148125D02*
X278685625Y-169148125D01*
X264715625Y-183118125D02*
X264715625Y-169148125D01*
X278685625Y-169148125D02*
X278685625Y-183118125D01*
X278685625Y-183118125D02*
X264715625Y-183118125D01*
%TO.C,n0*%
X245665625Y-92948125D02*
X259635625Y-92948125D01*
X245665625Y-106918125D02*
X245665625Y-92948125D01*
X259635625Y-92948125D02*
X259635625Y-106918125D01*
X259635625Y-106918125D02*
X245665625Y-106918125D01*
%TO.C,D30*%
X126603125Y-131048125D02*
X140573125Y-131048125D01*
X126603125Y-145018125D02*
X126603125Y-131048125D01*
X140573125Y-131048125D02*
X140573125Y-145018125D01*
X140573125Y-145018125D02*
X126603125Y-145018125D01*
%TO.C,U1*%
X198040625Y-111998125D02*
X212010625Y-111998125D01*
X198040625Y-125968125D02*
X198040625Y-111998125D01*
X212010625Y-111998125D02*
X212010625Y-125968125D01*
X212010625Y-125968125D02*
X198040625Y-125968125D01*
%TO.C,Insert1*%
X302815625Y-73898125D02*
X316785625Y-73898125D01*
X302815625Y-87868125D02*
X302815625Y-73898125D01*
X316785625Y-73898125D02*
X316785625Y-87868125D01*
X316785625Y-87868125D02*
X302815625Y-87868125D01*
%TO.C,F4*%
X131365625Y-73898125D02*
X145335625Y-73898125D01*
X131365625Y-87868125D02*
X131365625Y-73898125D01*
X145335625Y-73898125D02*
X145335625Y-87868125D01*
X145335625Y-87868125D02*
X131365625Y-87868125D01*
%TO.C,D22*%
X184617500Y-102245000D02*
X186857500Y-102245000D01*
X184617500Y-102365000D02*
X186857500Y-102365000D01*
X184617500Y-102485000D02*
X186857500Y-102485000D01*
X185737500Y-98195000D02*
X185737500Y-98845000D01*
X185737500Y-103735000D02*
X185737500Y-103085000D01*
X184617500Y-103085000D02*
X186857500Y-103085000D01*
X186857500Y-98845000D01*
X184617500Y-98845000D01*
X184617500Y-103085000D01*
%TO.C,<1*%
X302815625Y-169148125D02*
X316785625Y-169148125D01*
X302815625Y-183118125D02*
X302815625Y-169148125D01*
X316785625Y-169148125D02*
X316785625Y-183118125D01*
X316785625Y-183118125D02*
X302815625Y-183118125D01*
%TO.C,F6*%
X169465625Y-73898125D02*
X183435625Y-73898125D01*
X169465625Y-87868125D02*
X169465625Y-73898125D01*
X183435625Y-73898125D02*
X183435625Y-87868125D01*
X183435625Y-87868125D02*
X169465625Y-87868125D01*
%TO.C,A2*%
X88503125Y-131048125D02*
X102473125Y-131048125D01*
X88503125Y-145018125D02*
X88503125Y-131048125D01*
X102473125Y-131048125D02*
X102473125Y-145018125D01*
X102473125Y-145018125D02*
X88503125Y-145018125D01*
%TO.C,Caps1*%
X62309375Y-131048125D02*
X76279375Y-131048125D01*
X62309375Y-145018125D02*
X62309375Y-131048125D01*
X76279375Y-131048125D02*
X76279375Y-145018125D01*
X76279375Y-145018125D02*
X62309375Y-145018125D01*
%TO.C,D56*%
X337017500Y-140345000D02*
X339257500Y-140345000D01*
X337017500Y-140465000D02*
X339257500Y-140465000D01*
X337017500Y-140585000D02*
X339257500Y-140585000D01*
X338137500Y-136295000D02*
X338137500Y-136945000D01*
X338137500Y-141835000D02*
X338137500Y-141185000D01*
X337017500Y-141185000D02*
X339257500Y-141185000D01*
X339257500Y-136945000D01*
X337017500Y-136945000D01*
X337017500Y-141185000D01*
%TO.C,>1*%
X340915625Y-169148125D02*
X354885625Y-169148125D01*
X340915625Y-183118125D02*
X340915625Y-169148125D01*
X354885625Y-169148125D02*
X354885625Y-183118125D01*
X354885625Y-183118125D02*
X340915625Y-183118125D01*
%TO.C,M1*%
X212328125Y-150098125D02*
X226298125Y-150098125D01*
X212328125Y-164068125D02*
X212328125Y-150098125D01*
X226298125Y-150098125D02*
X226298125Y-164068125D01*
X226298125Y-164068125D02*
X212328125Y-164068125D01*
%TO.C,D47*%
X232242500Y-121295000D02*
X234482500Y-121295000D01*
X232242500Y-121415000D02*
X234482500Y-121415000D01*
X232242500Y-121535000D02*
X234482500Y-121535000D01*
X233362500Y-117245000D02*
X233362500Y-117895000D01*
X233362500Y-122785000D02*
X233362500Y-122135000D01*
X232242500Y-122135000D02*
X234482500Y-122135000D01*
X234482500Y-117895000D01*
X232242500Y-117895000D01*
X232242500Y-122135000D01*
%TO.C,D34*%
X103655000Y-140345000D02*
X105895000Y-140345000D01*
X103655000Y-140465000D02*
X105895000Y-140465000D01*
X103655000Y-140585000D02*
X105895000Y-140585000D01*
X104775000Y-136295000D02*
X104775000Y-136945000D01*
X104775000Y-141835000D02*
X104775000Y-141185000D01*
X103655000Y-141185000D02*
X105895000Y-141185000D01*
X105895000Y-136945000D01*
X103655000Y-136945000D01*
X103655000Y-141185000D01*
%TO.C,D66*%
X122705000Y-178445000D02*
X124945000Y-178445000D01*
X122705000Y-178565000D02*
X124945000Y-178565000D01*
X122705000Y-178685000D02*
X124945000Y-178685000D01*
X123825000Y-174395000D02*
X123825000Y-175045000D01*
X123825000Y-179935000D02*
X123825000Y-179285000D01*
X122705000Y-179285000D02*
X124945000Y-179285000D01*
X124945000Y-175045000D01*
X122705000Y-175045000D01*
X122705000Y-179285000D01*
%TO.C,D27*%
X279867500Y-102245000D02*
X282107500Y-102245000D01*
X279867500Y-102365000D02*
X282107500Y-102365000D01*
X279867500Y-102485000D02*
X282107500Y-102485000D01*
X280987500Y-98195000D02*
X280987500Y-98845000D01*
X280987500Y-103735000D02*
X280987500Y-103085000D01*
X279867500Y-103085000D02*
X282107500Y-103085000D01*
X282107500Y-98845000D01*
X279867500Y-98845000D01*
X279867500Y-103085000D01*
%TO.C,D26*%
X260817500Y-102245000D02*
X263057500Y-102245000D01*
X260817500Y-102365000D02*
X263057500Y-102365000D01*
X260817500Y-102485000D02*
X263057500Y-102485000D01*
X261937500Y-98195000D02*
X261937500Y-98845000D01*
X261937500Y-103735000D02*
X261937500Y-103085000D01*
X260817500Y-103085000D02*
X263057500Y-103085000D01*
X263057500Y-98845000D01*
X260817500Y-98845000D01*
X260817500Y-103085000D01*
%TO.C,D32*%
X84605000Y-140345000D02*
X86845000Y-140345000D01*
X84605000Y-140465000D02*
X86845000Y-140465000D01*
X84605000Y-140585000D02*
X86845000Y-140585000D01*
X85725000Y-136295000D02*
X85725000Y-136945000D01*
X85725000Y-141835000D02*
X85725000Y-141185000D01*
X84605000Y-141185000D02*
X86845000Y-141185000D01*
X86845000Y-136945000D01*
X84605000Y-136945000D01*
X84605000Y-141185000D01*
%TO.C,D36*%
X122705000Y-140345000D02*
X124945000Y-140345000D01*
X122705000Y-140465000D02*
X124945000Y-140465000D01*
X122705000Y-140585000D02*
X124945000Y-140585000D01*
X123825000Y-136295000D02*
X123825000Y-136945000D01*
X123825000Y-141835000D02*
X123825000Y-141185000D01*
X122705000Y-141185000D02*
X124945000Y-141185000D01*
X124945000Y-136945000D01*
X122705000Y-136945000D01*
X122705000Y-141185000D01*
%TO.C,D29*%
X337017500Y-102245000D02*
X339257500Y-102245000D01*
X337017500Y-102365000D02*
X339257500Y-102365000D01*
X337017500Y-102485000D02*
X339257500Y-102485000D01*
X338137500Y-98195000D02*
X338137500Y-98845000D01*
X338137500Y-103735000D02*
X338137500Y-103085000D01*
X337017500Y-103085000D02*
X339257500Y-103085000D01*
X339257500Y-98845000D01*
X337017500Y-98845000D01*
X337017500Y-103085000D01*
%TO.C,O1*%
X236140625Y-111998125D02*
X250110625Y-111998125D01*
X236140625Y-125968125D02*
X236140625Y-111998125D01*
X250110625Y-111998125D02*
X250110625Y-125968125D01*
X250110625Y-125968125D02*
X236140625Y-125968125D01*
%TO.C,D37*%
X136992500Y-121295000D02*
X139232500Y-121295000D01*
X136992500Y-121415000D02*
X139232500Y-121415000D01*
X136992500Y-121535000D02*
X139232500Y-121535000D01*
X138112500Y-117245000D02*
X138112500Y-117895000D01*
X138112500Y-122785000D02*
X138112500Y-122135000D01*
X136992500Y-122135000D02*
X139232500Y-122135000D01*
X139232500Y-117895000D01*
X136992500Y-117895000D01*
X136992500Y-122135000D01*
%TO.C,P1*%
X255235000Y-112045000D02*
X269205000Y-112045000D01*
X255235000Y-126015000D02*
X255235000Y-112045000D01*
X269205000Y-112045000D02*
X269205000Y-126015000D01*
X269205000Y-126015000D02*
X255235000Y-126015000D01*
%TO.C,D4*%
X127467500Y-83195000D02*
X129707500Y-83195000D01*
X127467500Y-83315000D02*
X129707500Y-83315000D01*
X127467500Y-83435000D02*
X129707500Y-83435000D01*
X128587500Y-79145000D02*
X128587500Y-79795000D01*
X128587500Y-84685000D02*
X128587500Y-84035000D01*
X127467500Y-84035000D02*
X129707500Y-84035000D01*
X129707500Y-79795000D01*
X127467500Y-79795000D01*
X127467500Y-84035000D01*
%TO.C,D40*%
X160805000Y-140345000D02*
X163045000Y-140345000D01*
X160805000Y-140465000D02*
X163045000Y-140465000D01*
X160805000Y-140585000D02*
X163045000Y-140585000D01*
X161925000Y-136295000D02*
X161925000Y-136945000D01*
X161925000Y-141835000D02*
X161925000Y-141185000D01*
X160805000Y-141185000D02*
X163045000Y-141185000D01*
X163045000Y-136945000D01*
X160805000Y-136945000D01*
X160805000Y-141185000D01*
%TO.C,D39*%
X156042500Y-121295000D02*
X158282500Y-121295000D01*
X156042500Y-121415000D02*
X158282500Y-121415000D01*
X156042500Y-121535000D02*
X158282500Y-121535000D01*
X157162500Y-117245000D02*
X157162500Y-117895000D01*
X157162500Y-122785000D02*
X157162500Y-122135000D01*
X156042500Y-122135000D02*
X158282500Y-122135000D01*
X158282500Y-117895000D01*
X156042500Y-117895000D01*
X156042500Y-122135000D01*
%TO.C,D75*%
X227480000Y-159395000D02*
X229720000Y-159395000D01*
X227480000Y-159515000D02*
X229720000Y-159515000D01*
X227480000Y-159635000D02*
X229720000Y-159635000D01*
X228600000Y-155345000D02*
X228600000Y-155995000D01*
X228600000Y-160885000D02*
X228600000Y-160235000D01*
X227480000Y-160235000D02*
X229720000Y-160235000D01*
X229720000Y-155995000D01*
X227480000Y-155995000D01*
X227480000Y-160235000D01*
%TO.C,D73*%
X208430000Y-159395000D02*
X210670000Y-159395000D01*
X208430000Y-159515000D02*
X210670000Y-159515000D01*
X208430000Y-159635000D02*
X210670000Y-159635000D01*
X209550000Y-155345000D02*
X209550000Y-155995000D01*
X209550000Y-160885000D02*
X209550000Y-160235000D01*
X208430000Y-160235000D02*
X210670000Y-160235000D01*
X210670000Y-155995000D01*
X208430000Y-155995000D01*
X208430000Y-160235000D01*
%TO.C,n2*%
X93265625Y-92948125D02*
X107235625Y-92948125D01*
X93265625Y-106918125D02*
X93265625Y-92948125D01*
X107235625Y-92948125D02*
X107235625Y-106918125D01*
X107235625Y-106918125D02*
X93265625Y-106918125D01*
%TO.C,n7*%
X188515625Y-92948125D02*
X202485625Y-92948125D01*
X188515625Y-106918125D02*
X188515625Y-92948125D01*
X202485625Y-92948125D02*
X202485625Y-106918125D01*
X202485625Y-106918125D02*
X188515625Y-106918125D01*
%TO.C,F9*%
X226615625Y-73898125D02*
X240585625Y-73898125D01*
X226615625Y-87868125D02*
X226615625Y-73898125D01*
X240585625Y-73898125D02*
X240585625Y-87868125D01*
X240585625Y-87868125D02*
X226615625Y-87868125D01*
%TO.C,;1*%
X259953125Y-131048125D02*
X273923125Y-131048125D01*
X259953125Y-145018125D02*
X259953125Y-131048125D01*
X273923125Y-131048125D02*
X273923125Y-145018125D01*
X273923125Y-145018125D02*
X259953125Y-145018125D01*
%TO.C,D11*%
X260817500Y-83195000D02*
X263057500Y-83195000D01*
X260817500Y-83315000D02*
X263057500Y-83315000D01*
X260817500Y-83435000D02*
X263057500Y-83435000D01*
X261937500Y-79145000D02*
X261937500Y-79795000D01*
X261937500Y-84685000D02*
X261937500Y-84035000D01*
X260817500Y-84035000D02*
X263057500Y-84035000D01*
X263057500Y-79795000D01*
X260817500Y-79795000D01*
X260817500Y-84035000D01*
%TO.C,D14*%
X318205625Y-83195000D02*
X320445625Y-83195000D01*
X318205625Y-83315000D02*
X320445625Y-83315000D01*
X318205625Y-83435000D02*
X320445625Y-83435000D01*
X319325625Y-79145000D02*
X319325625Y-79795000D01*
X319325625Y-84685000D02*
X319325625Y-84035000D01*
X318205625Y-84035000D02*
X320445625Y-84035000D01*
X320445625Y-79795000D01*
X318205625Y-79795000D01*
X318205625Y-84035000D01*
%TO.C,-1*%
X264715625Y-92948125D02*
X278685625Y-92948125D01*
X264715625Y-106918125D02*
X264715625Y-92948125D01*
X278685625Y-92948125D02*
X278685625Y-106918125D01*
X278685625Y-106918125D02*
X264715625Y-106918125D01*
%TO.C,D17*%
X89367500Y-102245000D02*
X91607500Y-102245000D01*
X89367500Y-102365000D02*
X91607500Y-102365000D01*
X89367500Y-102485000D02*
X91607500Y-102485000D01*
X90487500Y-98195000D02*
X90487500Y-98845000D01*
X90487500Y-103735000D02*
X90487500Y-103085000D01*
X89367500Y-103085000D02*
X91607500Y-103085000D01*
X91607500Y-98845000D01*
X89367500Y-98845000D01*
X89367500Y-103085000D01*
%TO.C,D55*%
X308442500Y-121295000D02*
X310682500Y-121295000D01*
X308442500Y-121415000D02*
X310682500Y-121415000D01*
X308442500Y-121535000D02*
X310682500Y-121535000D01*
X309562500Y-117245000D02*
X309562500Y-117895000D01*
X309562500Y-122785000D02*
X309562500Y-122135000D01*
X308442500Y-122135000D02*
X310682500Y-122135000D01*
X310682500Y-117895000D01*
X308442500Y-117895000D01*
X308442500Y-122135000D01*
%TO.C,Alt1*%
X105171875Y-169148125D02*
X119141875Y-169148125D01*
X105171875Y-183118125D02*
X105171875Y-169148125D01*
X119141875Y-169148125D02*
X119141875Y-183118125D01*
X119141875Y-183118125D02*
X105171875Y-183118125D01*
%TO.C,D85*%
X337017500Y-159395000D02*
X339257500Y-159395000D01*
X337017500Y-159515000D02*
X339257500Y-159515000D01*
X337017500Y-159635000D02*
X339257500Y-159635000D01*
X338137500Y-155345000D02*
X338137500Y-155995000D01*
X338137500Y-160885000D02*
X338137500Y-160235000D01*
X337017500Y-160235000D02*
X339257500Y-160235000D01*
X339257500Y-155995000D01*
X337017500Y-155995000D01*
X337017500Y-160235000D01*
%TO.C,C1*%
X136128125Y-150098125D02*
X150098125Y-150098125D01*
X136128125Y-164068125D02*
X136128125Y-150098125D01*
X150098125Y-150098125D02*
X150098125Y-164068125D01*
X150098125Y-164068125D02*
X136128125Y-164068125D01*
%TO.C,D83*%
X317967500Y-159395000D02*
X320207500Y-159395000D01*
X317967500Y-159515000D02*
X320207500Y-159515000D01*
X317967500Y-159635000D02*
X320207500Y-159635000D01*
X319087500Y-155345000D02*
X319087500Y-155995000D01*
X319087500Y-160885000D02*
X319087500Y-160235000D01*
X317967500Y-160235000D02*
X320207500Y-160235000D01*
X320207500Y-155995000D01*
X317967500Y-155995000D01*
X317967500Y-160235000D01*
%TO.C,E1*%
X121840625Y-111998125D02*
X135810625Y-111998125D01*
X121840625Y-125968125D02*
X121840625Y-111998125D01*
X135810625Y-111998125D02*
X135810625Y-125968125D01*
X135810625Y-125968125D02*
X121840625Y-125968125D01*
%TO.C,D79*%
X265580000Y-159395000D02*
X267820000Y-159395000D01*
X265580000Y-159515000D02*
X267820000Y-159515000D01*
X265580000Y-159635000D02*
X267820000Y-159635000D01*
X266700000Y-155345000D02*
X266700000Y-155995000D01*
X266700000Y-160885000D02*
X266700000Y-160235000D01*
X265580000Y-160235000D02*
X267820000Y-160235000D01*
X267820000Y-155995000D01*
X265580000Y-155995000D01*
X265580000Y-160235000D01*
%TO.C,End1*%
X340915625Y-150098125D02*
X354885625Y-150098125D01*
X340915625Y-164068125D02*
X340915625Y-150098125D01*
X354885625Y-150098125D02*
X354885625Y-164068125D01*
X354885625Y-164068125D02*
X340915625Y-164068125D01*
%TO.C,D57*%
X337017500Y-121295000D02*
X339257500Y-121295000D01*
X337017500Y-121415000D02*
X339257500Y-121415000D01*
X337017500Y-121535000D02*
X339257500Y-121535000D01*
X338137500Y-117245000D02*
X338137500Y-117895000D01*
X338137500Y-122785000D02*
X338137500Y-122135000D01*
X337017500Y-122135000D02*
X339257500Y-122135000D01*
X339257500Y-117895000D01*
X337017500Y-117895000D01*
X337017500Y-122135000D01*
%TO.C,Win1*%
X81359375Y-169148125D02*
X95329375Y-169148125D01*
X81359375Y-183118125D02*
X81359375Y-169148125D01*
X95329375Y-169148125D02*
X95329375Y-183118125D01*
X95329375Y-183118125D02*
X81359375Y-183118125D01*
%TO.C,D67*%
X151280000Y-159395000D02*
X153520000Y-159395000D01*
X151280000Y-159515000D02*
X153520000Y-159515000D01*
X151280000Y-159635000D02*
X153520000Y-159635000D01*
X152400000Y-155345000D02*
X152400000Y-155995000D01*
X152400000Y-160885000D02*
X152400000Y-160235000D01*
X151280000Y-160235000D02*
X153520000Y-160235000D01*
X153520000Y-155995000D01*
X151280000Y-155995000D01*
X151280000Y-160235000D01*
%TO.C,Del1*%
X321865625Y-73898125D02*
X335835625Y-73898125D01*
X321865625Y-87868125D02*
X321865625Y-73898125D01*
X335835625Y-73898125D02*
X335835625Y-87868125D01*
X335835625Y-87868125D02*
X321865625Y-87868125D01*
%TO.C,^1*%
X321865625Y-150098125D02*
X335835625Y-150098125D01*
X321865625Y-164068125D02*
X321865625Y-150098125D01*
X335835625Y-150098125D02*
X335835625Y-164068125D01*
X335835625Y-164068125D02*
X321865625Y-164068125D01*
%TO.C,'1*%
X279003125Y-131048125D02*
X292973125Y-131048125D01*
X279003125Y-145018125D02*
X279003125Y-131048125D01*
X292973125Y-131048125D02*
X292973125Y-145018125D01*
X292973125Y-145018125D02*
X279003125Y-145018125D01*
%TO.C,D7*%
X184617500Y-83195000D02*
X186857500Y-83195000D01*
X184617500Y-83315000D02*
X186857500Y-83315000D01*
X184617500Y-83435000D02*
X186857500Y-83435000D01*
X185737500Y-79145000D02*
X185737500Y-79795000D01*
X185737500Y-84685000D02*
X185737500Y-84035000D01*
X184617500Y-84035000D02*
X186857500Y-84035000D01*
X186857500Y-79795000D01*
X184617500Y-79795000D01*
X184617500Y-84035000D01*
%TO.C,D48*%
X237005000Y-140345000D02*
X239245000Y-140345000D01*
X237005000Y-140465000D02*
X239245000Y-140465000D01*
X237005000Y-140585000D02*
X239245000Y-140585000D01*
X238125000Y-136295000D02*
X238125000Y-136945000D01*
X238125000Y-141835000D02*
X238125000Y-141185000D01*
X237005000Y-141185000D02*
X239245000Y-141185000D01*
X239245000Y-136945000D01*
X237005000Y-136945000D01*
X237005000Y-141185000D01*
%TO.C,]1*%
X293290625Y-111998125D02*
X307260625Y-111998125D01*
X293290625Y-125968125D02*
X293290625Y-111998125D01*
X307260625Y-111998125D02*
X307260625Y-125968125D01*
X307260625Y-125968125D02*
X293290625Y-125968125D01*
%TO.C,D24*%
X222717500Y-102245000D02*
X224957500Y-102245000D01*
X222717500Y-102365000D02*
X224957500Y-102365000D01*
X222717500Y-102485000D02*
X224957500Y-102485000D01*
X223837500Y-98195000D02*
X223837500Y-98845000D01*
X223837500Y-103735000D02*
X223837500Y-103085000D01*
X222717500Y-103085000D02*
X224957500Y-103085000D01*
X224957500Y-98845000D01*
X222717500Y-98845000D01*
X222717500Y-103085000D01*
%TO.C,D64*%
X98892500Y-178445000D02*
X101132500Y-178445000D01*
X98892500Y-178565000D02*
X101132500Y-178565000D01*
X98892500Y-178685000D02*
X101132500Y-178685000D01*
X100012500Y-174395000D02*
X100012500Y-175045000D01*
X100012500Y-179935000D02*
X100012500Y-179285000D01*
X98892500Y-179285000D02*
X101132500Y-179285000D01*
X101132500Y-175045000D01*
X98892500Y-175045000D01*
X98892500Y-179285000D01*
%TO.C,D28*%
X298917500Y-102245000D02*
X301157500Y-102245000D01*
X298917500Y-102365000D02*
X301157500Y-102365000D01*
X298917500Y-102485000D02*
X301157500Y-102485000D01*
X300037500Y-98195000D02*
X300037500Y-98845000D01*
X300037500Y-103735000D02*
X300037500Y-103085000D01*
X298917500Y-103085000D02*
X301157500Y-103085000D01*
X301157500Y-98845000D01*
X298917500Y-98845000D01*
X298917500Y-103085000D01*
%TO.C,Esc1*%
X55165625Y-73898125D02*
X69135625Y-73898125D01*
X55165625Y-87868125D02*
X55165625Y-73898125D01*
X69135625Y-73898125D02*
X69135625Y-87868125D01*
X69135625Y-87868125D02*
X55165625Y-87868125D01*
%TO.C,Ctrl2*%
X283765625Y-169148125D02*
X297735625Y-169148125D01*
X283765625Y-183118125D02*
X283765625Y-169148125D01*
X297735625Y-169148125D02*
X297735625Y-183118125D01*
X297735625Y-183118125D02*
X283765625Y-183118125D01*
%TO.C,D84*%
X317967500Y-178445000D02*
X320207500Y-178445000D01*
X317967500Y-178565000D02*
X320207500Y-178565000D01*
X317967500Y-178685000D02*
X320207500Y-178685000D01*
X319087500Y-174395000D02*
X319087500Y-175045000D01*
X319087500Y-179935000D02*
X319087500Y-179285000D01*
X317967500Y-179285000D02*
X320207500Y-179285000D01*
X320207500Y-175045000D01*
X317967500Y-175045000D01*
X317967500Y-179285000D01*
%TO.C,D21*%
X165567500Y-102245000D02*
X167807500Y-102245000D01*
X165567500Y-102365000D02*
X167807500Y-102365000D01*
X165567500Y-102485000D02*
X167807500Y-102485000D01*
X166687500Y-98195000D02*
X166687500Y-98845000D01*
X166687500Y-103735000D02*
X166687500Y-103085000D01*
X165567500Y-103085000D02*
X167807500Y-103085000D01*
X167807500Y-98845000D01*
X165567500Y-98845000D01*
X165567500Y-103085000D01*
%TO.C,\u005C1*%
X317103125Y-111998125D02*
X331073125Y-111998125D01*
X317103125Y-125968125D02*
X317103125Y-111998125D01*
X331073125Y-111998125D02*
X331073125Y-125968125D01*
X331073125Y-125968125D02*
X317103125Y-125968125D01*
%TO.C,D49*%
X251292500Y-121295000D02*
X253532500Y-121295000D01*
X251292500Y-121415000D02*
X253532500Y-121415000D01*
X251292500Y-121535000D02*
X253532500Y-121535000D01*
X252412500Y-117245000D02*
X252412500Y-117895000D01*
X252412500Y-122785000D02*
X252412500Y-122135000D01*
X251292500Y-122135000D02*
X253532500Y-122135000D01*
X253532500Y-117895000D01*
X251292500Y-117895000D01*
X251292500Y-122135000D01*
%TO.C,D42*%
X179855000Y-140345000D02*
X182095000Y-140345000D01*
X179855000Y-140465000D02*
X182095000Y-140465000D01*
X179855000Y-140585000D02*
X182095000Y-140585000D01*
X180975000Y-136295000D02*
X180975000Y-136945000D01*
X180975000Y-141835000D02*
X180975000Y-141185000D01*
X179855000Y-141185000D02*
X182095000Y-141185000D01*
X182095000Y-136945000D01*
X179855000Y-136945000D01*
X179855000Y-141185000D01*
%TO.C,[1*%
X274240625Y-111998125D02*
X288210625Y-111998125D01*
X274240625Y-125968125D02*
X274240625Y-111998125D01*
X288210625Y-111998125D02*
X288210625Y-125968125D01*
X288210625Y-125968125D02*
X274240625Y-125968125D01*
%TO.C,F10*%
X245665625Y-73898125D02*
X259635625Y-73898125D01*
X245665625Y-87868125D02*
X245665625Y-73898125D01*
X259635625Y-73898125D02*
X259635625Y-87868125D01*
X259635625Y-87868125D02*
X245665625Y-87868125D01*
%TO.C,R1*%
X140890625Y-111998125D02*
X154860625Y-111998125D01*
X140890625Y-125968125D02*
X140890625Y-111998125D01*
X154860625Y-111998125D02*
X154860625Y-125968125D01*
X154860625Y-125968125D02*
X140890625Y-125968125D01*
%TO.C,D6*%
X165567500Y-83195000D02*
X167807500Y-83195000D01*
X165567500Y-83315000D02*
X167807500Y-83315000D01*
X165567500Y-83435000D02*
X167807500Y-83435000D01*
X166687500Y-79145000D02*
X166687500Y-79795000D01*
X166687500Y-84685000D02*
X166687500Y-84035000D01*
X165567500Y-84035000D02*
X167807500Y-84035000D01*
X167807500Y-79795000D01*
X165567500Y-79795000D01*
X165567500Y-84035000D01*
%TO.C,D46*%
X217955000Y-140345000D02*
X220195000Y-140345000D01*
X217955000Y-140465000D02*
X220195000Y-140465000D01*
X217955000Y-140585000D02*
X220195000Y-140585000D01*
X219075000Y-136295000D02*
X219075000Y-136945000D01*
X219075000Y-141835000D02*
X219075000Y-141185000D01*
X217955000Y-141185000D02*
X220195000Y-141185000D01*
X220195000Y-136945000D01*
X217955000Y-136945000D01*
X217955000Y-141185000D01*
%TO.C,D78*%
X260817500Y-178445000D02*
X263057500Y-178445000D01*
X260817500Y-178565000D02*
X263057500Y-178565000D01*
X260817500Y-178685000D02*
X263057500Y-178685000D01*
X261937500Y-174395000D02*
X261937500Y-175045000D01*
X261937500Y-179935000D02*
X261937500Y-179285000D01*
X260817500Y-179285000D02*
X263057500Y-179285000D01*
X263057500Y-175045000D01*
X260817500Y-175045000D01*
X260817500Y-179285000D01*
%TO.C,D16*%
X70317500Y-102245000D02*
X72557500Y-102245000D01*
X70317500Y-102365000D02*
X72557500Y-102365000D01*
X70317500Y-102485000D02*
X72557500Y-102485000D01*
X71437500Y-98195000D02*
X71437500Y-98845000D01*
X71437500Y-103735000D02*
X71437500Y-103085000D01*
X70317500Y-103085000D02*
X72557500Y-103085000D01*
X72557500Y-98845000D01*
X70317500Y-98845000D01*
X70317500Y-103085000D01*
%TO.C,Shift2*%
X295671875Y-150098125D02*
X309641875Y-150098125D01*
X295671875Y-164068125D02*
X295671875Y-150098125D01*
X309641875Y-150098125D02*
X309641875Y-164068125D01*
X309641875Y-164068125D02*
X295671875Y-164068125D01*
%TO.C,D13*%
X298917500Y-83195000D02*
X301157500Y-83195000D01*
X298917500Y-83315000D02*
X301157500Y-83315000D01*
X298917500Y-83435000D02*
X301157500Y-83435000D01*
X300037500Y-79145000D02*
X300037500Y-79795000D01*
X300037500Y-84685000D02*
X300037500Y-84035000D01*
X298917500Y-84035000D02*
X301157500Y-84035000D01*
X301157500Y-79795000D01*
X298917500Y-79795000D01*
X298917500Y-84035000D01*
%TO.C,D8*%
X203667500Y-83195000D02*
X205907500Y-83195000D01*
X203667500Y-83315000D02*
X205907500Y-83315000D01*
X203667500Y-83435000D02*
X205907500Y-83435000D01*
X204787500Y-79145000D02*
X204787500Y-79795000D01*
X204787500Y-84685000D02*
X204787500Y-84035000D01*
X203667500Y-84035000D02*
X205907500Y-84035000D01*
X205907500Y-79795000D01*
X203667500Y-79795000D01*
X203667500Y-84035000D01*
%TO.C,F3*%
X112315625Y-73898125D02*
X126285625Y-73898125D01*
X112315625Y-87868125D02*
X112315625Y-73898125D01*
X126285625Y-73898125D02*
X126285625Y-87868125D01*
X126285625Y-87868125D02*
X112315625Y-87868125D01*
%TO.C,D60*%
X336890000Y-128650000D02*
X337540000Y-128650000D01*
X340940000Y-129770000D02*
X340940000Y-127530000D01*
X341060000Y-129770000D02*
X341060000Y-127530000D01*
X341180000Y-129770000D02*
X341180000Y-127530000D01*
X342430000Y-128650000D02*
X341780000Y-128650000D01*
X341780000Y-129770000D02*
X337540000Y-129770000D01*
X337540000Y-127530000D01*
X341780000Y-127530000D01*
X341780000Y-129770000D01*
%TO.C,Vol1*%
X340100625Y-76783125D02*
X340700625Y-76783125D01*
X340400625Y-77083125D02*
X340100625Y-76783125D01*
X340700625Y-76783125D02*
X340400625Y-77083125D01*
X341800625Y-74983125D02*
X341800625Y-86783125D01*
X345900625Y-74983125D02*
X341800625Y-74983125D01*
X345900625Y-86783125D02*
X341800625Y-86783125D01*
X347400625Y-80883125D02*
X348400625Y-80883125D01*
X347900625Y-80383125D02*
X347900625Y-81383125D01*
X349900625Y-74983125D02*
X354000625Y-74983125D01*
X354000625Y-74983125D02*
X354000625Y-77383125D01*
X354000625Y-79583125D02*
X354000625Y-82183125D01*
X354000625Y-84383125D02*
X354000625Y-86783125D01*
X354000625Y-86783125D02*
X349900625Y-86783125D01*
X350900625Y-80883125D02*
G75*
G02*
X344900625Y-80883125I-3000000J0D01*
G01*
X344900625Y-80883125D02*
G75*
G02*
X350900625Y-80883125I3000000J0D01*
G01*
%TO.C,Ctrl1*%
X57546875Y-169148125D02*
X71516875Y-169148125D01*
X57546875Y-183118125D02*
X57546875Y-169148125D01*
X71516875Y-169148125D02*
X71516875Y-183118125D01*
X71516875Y-183118125D02*
X57546875Y-183118125D01*
%TO.C,D54*%
X294155000Y-140345000D02*
X296395000Y-140345000D01*
X294155000Y-140465000D02*
X296395000Y-140465000D01*
X294155000Y-140585000D02*
X296395000Y-140585000D01*
X295275000Y-136295000D02*
X295275000Y-136945000D01*
X295275000Y-141835000D02*
X295275000Y-141185000D01*
X294155000Y-141185000D02*
X296395000Y-141185000D01*
X296395000Y-136945000D01*
X294155000Y-136945000D01*
X294155000Y-141185000D01*
%TO.C,D20*%
X146517500Y-102245000D02*
X148757500Y-102245000D01*
X146517500Y-102365000D02*
X148757500Y-102365000D01*
X146517500Y-102485000D02*
X148757500Y-102485000D01*
X147637500Y-98195000D02*
X147637500Y-98845000D01*
X147637500Y-103735000D02*
X147637500Y-103085000D01*
X146517500Y-103085000D02*
X148757500Y-103085000D01*
X148757500Y-98845000D01*
X146517500Y-98845000D01*
X146517500Y-103085000D01*
%TO.C,D33*%
X98892500Y-121295000D02*
X101132500Y-121295000D01*
X98892500Y-121415000D02*
X101132500Y-121415000D01*
X98892500Y-121535000D02*
X101132500Y-121535000D01*
X100012500Y-117245000D02*
X100012500Y-117895000D01*
X100012500Y-122785000D02*
X100012500Y-122135000D01*
X98892500Y-122135000D02*
X101132500Y-122135000D01*
X101132500Y-117895000D01*
X98892500Y-117895000D01*
X98892500Y-122135000D01*
%TO.C,F12*%
X283765625Y-73898125D02*
X297735625Y-73898125D01*
X283765625Y-87868125D02*
X283765625Y-73898125D01*
X297735625Y-73898125D02*
X297735625Y-87868125D01*
X297735625Y-87868125D02*
X283765625Y-87868125D01*
%TO.C,D71*%
X189380000Y-159395000D02*
X191620000Y-159395000D01*
X189380000Y-159515000D02*
X191620000Y-159515000D01*
X189380000Y-159635000D02*
X191620000Y-159635000D01*
X190500000Y-155345000D02*
X190500000Y-155995000D01*
X190500000Y-160885000D02*
X190500000Y-160235000D01*
X189380000Y-160235000D02*
X191620000Y-160235000D01*
X191620000Y-155995000D01*
X189380000Y-155995000D01*
X189380000Y-160235000D01*
%TO.C,D18*%
X108417500Y-102245000D02*
X110657500Y-102245000D01*
X108417500Y-102365000D02*
X110657500Y-102365000D01*
X108417500Y-102485000D02*
X110657500Y-102485000D01*
X109537500Y-98195000D02*
X109537500Y-98845000D01*
X109537500Y-103735000D02*
X109537500Y-103085000D01*
X108417500Y-103085000D02*
X110657500Y-103085000D01*
X110657500Y-98845000D01*
X108417500Y-98845000D01*
X108417500Y-103085000D01*
%TO.C,V2*%
X321865625Y-169148125D02*
X335835625Y-169148125D01*
X321865625Y-183118125D02*
X321865625Y-169148125D01*
X335835625Y-169148125D02*
X335835625Y-183118125D01*
X335835625Y-183118125D02*
X321865625Y-183118125D01*
%TO.C,D81*%
X284630000Y-159395000D02*
X286870000Y-159395000D01*
X284630000Y-159515000D02*
X286870000Y-159515000D01*
X284630000Y-159635000D02*
X286870000Y-159635000D01*
X285750000Y-155345000D02*
X285750000Y-155995000D01*
X285750000Y-160885000D02*
X285750000Y-160235000D01*
X284630000Y-160235000D02*
X286870000Y-160235000D01*
X286870000Y-155995000D01*
X284630000Y-155995000D01*
X284630000Y-160235000D01*
%TO.C,H9*%
X183753125Y-131048125D02*
X197723125Y-131048125D01*
X183753125Y-145018125D02*
X183753125Y-131048125D01*
X197723125Y-131048125D02*
X197723125Y-145018125D01*
X197723125Y-145018125D02*
X183753125Y-145018125D01*
%TO.C,D61*%
X94130000Y-159395000D02*
X96370000Y-159395000D01*
X94130000Y-159515000D02*
X96370000Y-159515000D01*
X94130000Y-159635000D02*
X96370000Y-159635000D01*
X95250000Y-155345000D02*
X95250000Y-155995000D01*
X95250000Y-160885000D02*
X95250000Y-160235000D01*
X94130000Y-160235000D02*
X96370000Y-160235000D01*
X96370000Y-155995000D01*
X94130000Y-155995000D01*
X94130000Y-160235000D01*
%TO.C,G1*%
X164703125Y-131048125D02*
X178673125Y-131048125D01*
X164703125Y-145018125D02*
X164703125Y-131048125D01*
X178673125Y-131048125D02*
X178673125Y-145018125D01*
X178673125Y-145018125D02*
X164703125Y-145018125D01*
%TO.C,F13*%
X145653125Y-131048125D02*
X159623125Y-131048125D01*
X145653125Y-145018125D02*
X145653125Y-131048125D01*
X159623125Y-131048125D02*
X159623125Y-145018125D01*
X159623125Y-145018125D02*
X145653125Y-145018125D01*
%TO.C,D23*%
X203667500Y-102245000D02*
X205907500Y-102245000D01*
X203667500Y-102365000D02*
X205907500Y-102365000D01*
X203667500Y-102485000D02*
X205907500Y-102485000D01*
X204787500Y-98195000D02*
X204787500Y-98845000D01*
X204787500Y-103735000D02*
X204787500Y-103085000D01*
X203667500Y-103085000D02*
X205907500Y-103085000D01*
X205907500Y-98845000D01*
X203667500Y-98845000D01*
X203667500Y-103085000D01*
%TO.C,n9*%
X226615625Y-92948125D02*
X240585625Y-92948125D01*
X226615625Y-106918125D02*
X226615625Y-92948125D01*
X240585625Y-92948125D02*
X240585625Y-106918125D01*
X240585625Y-106918125D02*
X226615625Y-106918125D01*
%TO.C,PgUp1*%
X340915625Y-111998125D02*
X354885625Y-111998125D01*
X340915625Y-125968125D02*
X340915625Y-111998125D01*
X354885625Y-111998125D02*
X354885625Y-125968125D01*
X354885625Y-125968125D02*
X340915625Y-125968125D01*
%TO.C,B1*%
X174228125Y-150098125D02*
X188198125Y-150098125D01*
X174228125Y-164068125D02*
X174228125Y-150098125D01*
X188198125Y-150098125D02*
X188198125Y-164068125D01*
X188198125Y-164068125D02*
X174228125Y-164068125D01*
%TO.C,D51*%
X270342500Y-121295000D02*
X272582500Y-121295000D01*
X270342500Y-121415000D02*
X272582500Y-121415000D01*
X270342500Y-121535000D02*
X272582500Y-121535000D01*
X271462500Y-117245000D02*
X271462500Y-117895000D01*
X271462500Y-122785000D02*
X271462500Y-122135000D01*
X270342500Y-122135000D02*
X272582500Y-122135000D01*
X272582500Y-117895000D01*
X270342500Y-117895000D01*
X270342500Y-122135000D01*
%TO.C,D12*%
X279867500Y-83195000D02*
X282107500Y-83195000D01*
X279867500Y-83315000D02*
X282107500Y-83315000D01*
X279867500Y-83435000D02*
X282107500Y-83435000D01*
X280987500Y-79145000D02*
X280987500Y-79795000D01*
X280987500Y-84685000D02*
X280987500Y-84035000D01*
X279867500Y-84035000D02*
X282107500Y-84035000D01*
X282107500Y-79795000D01*
X279867500Y-79795000D01*
X279867500Y-84035000D01*
%TO.C,Space1*%
X176609375Y-169148125D02*
X190579375Y-169148125D01*
X176609375Y-183118125D02*
X176609375Y-169148125D01*
X190579375Y-169148125D02*
X190579375Y-183118125D01*
X190579375Y-183118125D02*
X176609375Y-183118125D01*
%TO.C,D86*%
X337017500Y-178445000D02*
X339257500Y-178445000D01*
X337017500Y-178565000D02*
X339257500Y-178565000D01*
X337017500Y-178685000D02*
X339257500Y-178685000D01*
X338137500Y-174395000D02*
X338137500Y-175045000D01*
X338137500Y-179935000D02*
X338137500Y-179285000D01*
X337017500Y-179285000D02*
X339257500Y-179285000D01*
X339257500Y-175045000D01*
X337017500Y-175045000D01*
X337017500Y-179285000D01*
%TO.C,D50*%
X256055000Y-140345000D02*
X258295000Y-140345000D01*
X256055000Y-140465000D02*
X258295000Y-140465000D01*
X256055000Y-140585000D02*
X258295000Y-140585000D01*
X257175000Y-136295000D02*
X257175000Y-136945000D01*
X257175000Y-141835000D02*
X257175000Y-141185000D01*
X256055000Y-141185000D02*
X258295000Y-141185000D01*
X258295000Y-136945000D01*
X256055000Y-136945000D01*
X256055000Y-141185000D01*
%TO.C,Shift1*%
X67071875Y-150098125D02*
X81041875Y-150098125D01*
X67071875Y-164068125D02*
X67071875Y-150098125D01*
X81041875Y-150098125D02*
X81041875Y-164068125D01*
X81041875Y-164068125D02*
X67071875Y-164068125D01*
%TO.C,D80*%
X279867500Y-178445000D02*
X282107500Y-178445000D01*
X279867500Y-178565000D02*
X282107500Y-178565000D01*
X279867500Y-178685000D02*
X282107500Y-178685000D01*
X280987500Y-174395000D02*
X280987500Y-175045000D01*
X280987500Y-179935000D02*
X280987500Y-179285000D01*
X279867500Y-179285000D02*
X282107500Y-179285000D01*
X282107500Y-175045000D01*
X279867500Y-175045000D01*
X279867500Y-179285000D01*
%TO.C,n6*%
X169465625Y-92948125D02*
X183435625Y-92948125D01*
X169465625Y-106918125D02*
X169465625Y-92948125D01*
X183435625Y-92948125D02*
X183435625Y-106918125D01*
X183435625Y-106918125D02*
X169465625Y-106918125D01*
%TO.C,X1*%
X117078125Y-150098125D02*
X131048125Y-150098125D01*
X117078125Y-164068125D02*
X117078125Y-150098125D01*
X131048125Y-150098125D02*
X131048125Y-164068125D01*
X131048125Y-164068125D02*
X117078125Y-164068125D01*
%TO.C,J1*%
X202803125Y-131048125D02*
X216773125Y-131048125D01*
X202803125Y-145018125D02*
X202803125Y-131048125D01*
X216773125Y-131048125D02*
X216773125Y-145018125D01*
X216773125Y-145018125D02*
X202803125Y-145018125D01*
%TO.C,D41*%
X175092500Y-121295000D02*
X177332500Y-121295000D01*
X175092500Y-121415000D02*
X177332500Y-121415000D01*
X175092500Y-121535000D02*
X177332500Y-121535000D01*
X176212500Y-117245000D02*
X176212500Y-117895000D01*
X176212500Y-122785000D02*
X176212500Y-122135000D01*
X175092500Y-122135000D02*
X177332500Y-122135000D01*
X177332500Y-117895000D01*
X175092500Y-117895000D01*
X175092500Y-122135000D01*
%TO.C,D88*%
X345595000Y-166525000D02*
X346245000Y-166525000D01*
X346845000Y-165405000D02*
X346845000Y-167645000D01*
X346965000Y-165405000D02*
X346965000Y-167645000D01*
X347085000Y-165405000D02*
X347085000Y-167645000D01*
X351135000Y-166525000D02*
X350485000Y-166525000D01*
X346245000Y-165405000D02*
X350485000Y-165405000D01*
X350485000Y-167645000D01*
X346245000Y-167645000D01*
X346245000Y-165405000D01*
%TO.C,F8*%
X207565625Y-73898125D02*
X221535625Y-73898125D01*
X207565625Y-87868125D02*
X207565625Y-73898125D01*
X221535625Y-73898125D02*
X221535625Y-87868125D01*
X221535625Y-87868125D02*
X207565625Y-87868125D01*
%TO.C,D5*%
X146517500Y-83195000D02*
X148757500Y-83195000D01*
X146517500Y-83315000D02*
X148757500Y-83315000D01*
X146517500Y-83435000D02*
X148757500Y-83435000D01*
X147637500Y-79145000D02*
X147637500Y-79795000D01*
X147637500Y-84685000D02*
X147637500Y-84035000D01*
X146517500Y-84035000D02*
X148757500Y-84035000D01*
X148757500Y-79795000D01*
X146517500Y-79795000D01*
X146517500Y-84035000D01*
%TO.C,Backspace1*%
X312340625Y-92948125D02*
X326310625Y-92948125D01*
X312340625Y-106918125D02*
X312340625Y-92948125D01*
X326310625Y-92948125D02*
X326310625Y-106918125D01*
X326310625Y-106918125D02*
X312340625Y-106918125D01*
%TO.C,Y1*%
X178990625Y-111998125D02*
X192960625Y-111998125D01*
X178990625Y-125968125D02*
X178990625Y-111998125D01*
X192960625Y-111998125D02*
X192960625Y-125968125D01*
X192960625Y-125968125D02*
X178990625Y-125968125D01*
%TO.C,n3*%
X112315625Y-92948125D02*
X126285625Y-92948125D01*
X112315625Y-106918125D02*
X112315625Y-92948125D01*
X126285625Y-92948125D02*
X126285625Y-106918125D01*
X126285625Y-106918125D02*
X112315625Y-106918125D01*
%TO.C,D77*%
X246530000Y-159395000D02*
X248770000Y-159395000D01*
X246530000Y-159515000D02*
X248770000Y-159515000D01*
X246530000Y-159635000D02*
X248770000Y-159635000D01*
X247650000Y-155345000D02*
X247650000Y-155995000D01*
X247650000Y-160885000D02*
X247650000Y-160235000D01*
X246530000Y-160235000D02*
X248770000Y-160235000D01*
X248770000Y-155995000D01*
X246530000Y-155995000D01*
X246530000Y-160235000D01*
%TO.C,F11*%
X264715625Y-73898125D02*
X278685625Y-73898125D01*
X264715625Y-87868125D02*
X264715625Y-73898125D01*
X278685625Y-73898125D02*
X278685625Y-87868125D01*
X278685625Y-87868125D02*
X264715625Y-87868125D01*
%TO.C,D1*%
X89367500Y-83195000D02*
X91607500Y-83195000D01*
X89367500Y-83315000D02*
X91607500Y-83315000D01*
X89367500Y-83435000D02*
X91607500Y-83435000D01*
X90487500Y-79145000D02*
X90487500Y-79795000D01*
X90487500Y-84685000D02*
X90487500Y-84035000D01*
X89367500Y-84035000D02*
X91607500Y-84035000D01*
X91607500Y-79795000D01*
X89367500Y-79795000D01*
X89367500Y-84035000D01*
%TO.C,D62*%
X75080000Y-178445000D02*
X77320000Y-178445000D01*
X75080000Y-178565000D02*
X77320000Y-178565000D01*
X75080000Y-178685000D02*
X77320000Y-178685000D01*
X76200000Y-174395000D02*
X76200000Y-175045000D01*
X76200000Y-179935000D02*
X76200000Y-179285000D01*
X75080000Y-179285000D02*
X77320000Y-179285000D01*
X77320000Y-175045000D01*
X75080000Y-175045000D01*
X75080000Y-179285000D01*
%TO.C,D3*%
X108417500Y-83195000D02*
X110657500Y-83195000D01*
X108417500Y-83315000D02*
X110657500Y-83315000D01*
X108417500Y-83435000D02*
X110657500Y-83435000D01*
X109537500Y-79145000D02*
X109537500Y-79795000D01*
X109537500Y-84685000D02*
X109537500Y-84035000D01*
X108417500Y-84035000D02*
X110657500Y-84035000D01*
X110657500Y-79795000D01*
X108417500Y-79795000D01*
X108417500Y-84035000D01*
%TO.C,D63*%
X113180000Y-159156875D02*
X115420000Y-159156875D01*
X113180000Y-159276875D02*
X115420000Y-159276875D01*
X113180000Y-159396875D02*
X115420000Y-159396875D01*
X114300000Y-155106875D02*
X114300000Y-155756875D01*
X114300000Y-160646875D02*
X114300000Y-159996875D01*
X113180000Y-159996875D02*
X115420000Y-159996875D01*
X115420000Y-155756875D01*
X113180000Y-155756875D01*
X113180000Y-159996875D01*
%TO.C,=1*%
X283765625Y-92948125D02*
X297735625Y-92948125D01*
X283765625Y-106918125D02*
X283765625Y-92948125D01*
X297735625Y-92948125D02*
X297735625Y-106918125D01*
X297735625Y-106918125D02*
X283765625Y-106918125D01*
%TO.C,F1*%
X74215625Y-73898125D02*
X88185625Y-73898125D01*
X74215625Y-87868125D02*
X74215625Y-73898125D01*
X88185625Y-73898125D02*
X88185625Y-87868125D01*
X88185625Y-87868125D02*
X74215625Y-87868125D01*
%TO.C,F5*%
X150415625Y-73898125D02*
X164385625Y-73898125D01*
X150415625Y-87868125D02*
X150415625Y-73898125D01*
X164385625Y-73898125D02*
X164385625Y-87868125D01*
X164385625Y-87868125D02*
X150415625Y-87868125D01*
%TO.C,D69*%
X170330000Y-159395000D02*
X172570000Y-159395000D01*
X170330000Y-159515000D02*
X172570000Y-159515000D01*
X170330000Y-159635000D02*
X172570000Y-159635000D01*
X171450000Y-155345000D02*
X171450000Y-155995000D01*
X171450000Y-160885000D02*
X171450000Y-160235000D01*
X170330000Y-160235000D02*
X172570000Y-160235000D01*
X172570000Y-155995000D01*
X170330000Y-155995000D01*
X170330000Y-160235000D01*
%TD*%
M02*
