M48
; DRILL file {KiCad 9.0.6} date 2026-03-31T23:30:07+1300
; FORMAT={-:-/ absolute / metric / decimal}
; #@! TF.CreationDate,2026-03-31T23:30:07+13:00
; #@! TF.GenerationSoftware,Kicad,Pcbnew,9.0.6
; #@! TF.FileFunction,Plated,1,2,PTH
FMAT,2
METRIC
; #@! TA.AperFunction,Plated,PTH,ViaDrill
T1C0.300
; #@! TA.AperFunction,Plated,PTH,ComponentDrill
T2C0.800
; #@! TA.AperFunction,Plated,PTH,ComponentDrill
T3C1.000
; #@! TA.AperFunction,Plated,PTH,ComponentDrill
T4C1.500
%
G90
G05
T1
X121.841Y-86.325
X140.891Y-86.325
X159.941Y-86.325
X178.991Y-86.325
X198.44Y-86.49
X217.091Y-86.67
X236.141Y-86.68
T2
X71.438Y-78.105
X71.438Y-85.725
X71.438Y-97.155
X71.438Y-104.775
X76.2Y-173.355
X76.2Y-180.975
X80.962Y-116.205
X80.962Y-123.825
X85.725Y-135.255
X85.725Y-142.875
X90.487Y-78.105
X90.487Y-85.725
X90.487Y-97.155
X90.487Y-104.775
X95.25Y-154.305
X95.25Y-161.925
X100.012Y-116.205
X100.012Y-123.825
X100.012Y-173.355
X100.012Y-180.975
X104.775Y-135.255
X104.775Y-142.875
X109.537Y-78.105
X109.537Y-85.725
X109.537Y-97.155
X109.537Y-104.775
X114.3Y-154.067
X114.3Y-161.687
X119.062Y-116.205
X119.062Y-123.825
X123.825Y-135.255
X123.825Y-142.875
X123.825Y-173.355
X123.825Y-180.975
X128.588Y-78.105
X128.588Y-85.725
X128.588Y-97.155
X128.588Y-104.775
X133.35Y-154.067
X133.35Y-161.687
X138.112Y-116.205
X138.112Y-123.825
X142.875Y-135.255
X142.875Y-142.875
X147.637Y-78.105
X147.637Y-85.725
X147.637Y-97.155
X147.637Y-104.775
X152.4Y-154.305
X152.4Y-161.925
X157.162Y-116.205
X157.162Y-123.825
X161.925Y-135.255
X161.925Y-142.875
X166.688Y-78.105
X166.688Y-85.725
X166.688Y-97.155
X166.688Y-104.775
X171.45Y-154.305
X171.45Y-161.925
X176.213Y-116.205
X176.213Y-123.825
X180.975Y-135.255
X180.975Y-142.875
X185.737Y-78.105
X185.737Y-85.725
X185.737Y-97.155
X185.737Y-104.775
X190.5Y-154.305
X190.5Y-161.925
X195.262Y-116.205
X195.262Y-123.825
X200.025Y-135.255
X200.025Y-142.875
X204.787Y-78.105
X204.787Y-85.725
X204.787Y-97.155
X204.787Y-104.775
X209.55Y-154.305
X209.55Y-161.925
X214.312Y-116.205
X214.312Y-123.825
X219.075Y-135.255
X219.075Y-142.875
X223.837Y-78.105
X223.837Y-85.725
X223.837Y-97.155
X223.837Y-104.775
X228.6Y-154.305
X228.6Y-161.925
X233.362Y-116.205
X233.362Y-123.825
X238.125Y-135.255
X238.125Y-142.875
X242.887Y-78.105
X242.887Y-85.725
X242.887Y-97.155
X242.887Y-104.775
X242.887Y-173.355
X242.887Y-180.975
X247.65Y-154.305
X247.65Y-161.925
X252.412Y-116.205
X252.412Y-123.825
X257.175Y-135.255
X257.175Y-142.875
X261.938Y-78.105
X261.938Y-85.725
X261.938Y-97.155
X261.938Y-104.775
X261.938Y-173.355
X261.938Y-180.975
X266.7Y-154.305
X266.7Y-161.925
X271.462Y-116.205
X271.462Y-123.825
X276.225Y-135.255
X276.225Y-142.875
X280.988Y-78.105
X280.988Y-85.725
X280.988Y-97.155
X280.988Y-104.775
X280.988Y-173.355
X280.988Y-180.975
X285.75Y-154.305
X285.75Y-161.925
X290.512Y-116.205
X290.512Y-123.825
X295.275Y-135.255
X295.275Y-142.875
X300.037Y-78.105
X300.037Y-85.725
X300.037Y-97.155
X300.037Y-104.775
X300.037Y-173.355
X300.037Y-180.975
X309.562Y-116.205
X309.562Y-123.825
X319.087Y-154.305
X319.087Y-161.925
X319.087Y-173.355
X319.087Y-180.975
X319.326Y-78.105
X319.326Y-85.725
X335.85Y-128.65
X337.41Y-78.07
X337.41Y-85.69
X338.137Y-97.155
X338.137Y-104.775
X338.137Y-116.205
X338.137Y-123.825
X338.137Y-135.255
X338.137Y-142.875
X338.137Y-154.305
X338.137Y-161.925
X338.137Y-173.355
X338.137Y-180.975
X341.38Y-147.3
X343.47Y-128.65
X344.555Y-166.525
X344.605Y-109.15
X345.875Y-90.275
X346.405Y-128.15
X349.0Y-147.3
X352.175Y-166.525
X352.225Y-109.15
X353.495Y-90.275
X354.025Y-128.15
T3
X55.18Y-90.76
X55.18Y-108.54
X57.72Y-90.76
X57.72Y-108.54
X60.26Y-90.76
X60.26Y-108.54
X62.8Y-90.76
X62.8Y-108.54
X65.34Y-90.76
X65.34Y-108.54
X67.88Y-90.76
X67.88Y-108.54
X70.42Y-90.76
X70.42Y-108.54
X72.96Y-90.76
X72.96Y-108.54
X75.5Y-90.76
X75.5Y-108.54
X78.04Y-90.76
X78.04Y-108.54
X80.58Y-90.76
X80.58Y-108.54
X83.12Y-90.76
X83.12Y-108.54
X85.66Y-90.76
X85.66Y-108.54
X88.2Y-90.76
X88.2Y-108.54
X90.74Y-90.76
X90.74Y-108.54
X93.28Y-90.76
X93.28Y-108.54
X95.82Y-90.76
X95.82Y-108.54
X98.36Y-90.76
X98.36Y-108.54
X100.9Y-90.76
X100.9Y-108.54
X103.44Y-90.76
X103.44Y-108.54
X340.401Y-78.383
X340.401Y-80.883
X340.401Y-83.383
X354.901Y-78.383
X354.901Y-83.383
T4
X58.341Y-78.343
X58.341Y-97.393
X60.722Y-173.593
X63.103Y-116.443
X64.691Y-75.803
X64.691Y-94.853
X65.484Y-135.493
X67.072Y-171.053
X69.453Y-113.903
X70.247Y-154.543
X71.834Y-132.953
X76.597Y-152.003
X77.391Y-78.343
X77.391Y-97.393
X83.741Y-75.803
X83.741Y-94.853
X84.534Y-173.593
X86.916Y-116.443
X90.884Y-171.053
X91.678Y-135.493
X93.266Y-113.903
X96.441Y-78.343
X96.441Y-97.393
X98.028Y-132.953
X101.203Y-154.543
X102.791Y-75.803
X102.791Y-94.853
X105.966Y-116.443
X107.553Y-152.003
X108.347Y-173.593
X110.728Y-135.493
X112.316Y-113.903
X114.697Y-171.053
X115.491Y-78.343
X115.491Y-97.393
X117.078Y-132.953
X120.253Y-154.543
X121.841Y-75.803
X121.841Y-94.853
X125.016Y-116.443
X126.603Y-152.003
X129.778Y-135.493
X131.366Y-113.903
X134.541Y-78.343
X134.541Y-97.393
X136.128Y-132.953
X139.303Y-154.543
X140.891Y-75.803
X140.891Y-94.853
X144.066Y-116.443
X145.653Y-152.003
X148.828Y-135.493
X150.416Y-113.903
X153.591Y-78.343
X153.591Y-97.393
X155.178Y-132.953
X158.353Y-154.543
X159.941Y-75.803
X159.941Y-94.853
X163.116Y-116.443
X164.703Y-152.003
X167.878Y-135.493
X169.466Y-113.903
X172.641Y-78.343
X172.641Y-97.393
X174.228Y-132.953
X177.403Y-154.543
X178.991Y-75.803
X178.991Y-94.853
X179.784Y-173.593
X182.166Y-116.443
X183.753Y-152.003
X186.134Y-171.053
X186.928Y-135.493
X188.516Y-113.903
X191.691Y-78.343
X191.691Y-97.393
X193.278Y-132.953
X196.453Y-154.543
X198.041Y-75.803
X198.041Y-94.853
X201.216Y-116.443
X202.803Y-152.003
X205.978Y-135.493
X207.566Y-113.903
X210.741Y-78.343
X210.741Y-97.393
X212.328Y-132.953
X215.503Y-154.543
X217.091Y-75.803
X217.091Y-94.853
X220.266Y-116.443
X221.853Y-152.003
X225.028Y-135.493
X226.616Y-113.903
X229.791Y-78.343
X229.791Y-97.393
X231.378Y-132.953
X234.553Y-154.543
X236.141Y-75.803
X236.141Y-94.853
X239.316Y-116.443
X240.903Y-152.003
X244.078Y-135.493
X245.666Y-113.903
X248.841Y-78.343
X248.841Y-97.393
X248.841Y-173.593
X250.428Y-132.953
X253.603Y-154.543
X255.191Y-75.803
X255.191Y-94.853
X255.191Y-171.053
X258.41Y-116.49
X259.953Y-152.003
X263.128Y-135.493
X264.76Y-113.95
X267.891Y-78.343
X267.891Y-97.393
X267.891Y-173.593
X269.478Y-132.953
X272.653Y-154.543
X274.241Y-75.803
X274.241Y-94.853
X274.241Y-171.053
X277.416Y-116.443
X279.003Y-152.003
X282.178Y-135.493
X283.766Y-113.903
X286.941Y-78.343
X286.941Y-97.393
X286.941Y-173.593
X288.528Y-132.953
X293.291Y-75.803
X293.291Y-94.853
X293.291Y-171.053
X296.466Y-116.443
X298.847Y-154.543
X302.816Y-113.903
X305.197Y-152.003
X305.991Y-78.343
X305.991Y-173.593
X312.341Y-75.803
X312.341Y-171.053
X313.134Y-135.493
X315.516Y-97.393
X319.484Y-132.953
X320.278Y-116.443
X321.866Y-94.853
X325.041Y-78.343
X325.041Y-154.543
X325.041Y-173.593
X326.628Y-113.903
X331.391Y-75.803
X331.391Y-152.003
X331.391Y-171.053
X344.091Y-97.393
X344.091Y-116.443
X344.091Y-135.493
X344.091Y-154.543
X344.091Y-173.593
X350.441Y-94.853
X350.441Y-113.903
X350.441Y-132.953
X350.441Y-152.003
X350.441Y-171.053
T4
G00X347.251Y-75.283
M15
G01X348.551Y-75.283
M16
G05
G00X347.251Y-86.483
M15
G01X348.551Y-86.483
M16
G05
M30
