M48
; DRILL file {KiCad 9.0.6} date 2026-03-31T23:30:07+1300
; FORMAT={-:-/ absolute / metric / decimal}
; #@! TF.CreationDate,2026-03-31T23:30:07+13:00
; #@! TF.GenerationSoftware,Kicad,Pcbnew,9.0.6
; #@! TF.FileFunction,NonPlated,1,2,NPTH
FMAT,2
METRIC
; #@! TA.AperFunction,NonPlated,NPTH,ComponentDrill
T1C1.700
; #@! TA.AperFunction,NonPlated,NPTH,ComponentDrill
T2C3.050
; #@! TA.AperFunction,NonPlated,NPTH,ComponentDrill
T3C4.000
%
G90
G05
T1
X57.071Y-80.883
X57.071Y-99.933
X59.452Y-176.133
X61.833Y-118.983
X64.214Y-138.033
X67.231Y-80.883
X67.231Y-99.933
X68.977Y-157.083
X69.612Y-176.133
X71.993Y-118.983
X74.374Y-138.033
X76.121Y-80.883
X76.121Y-99.933
X79.137Y-157.083
X83.264Y-176.133
X85.646Y-118.983
X86.281Y-80.883
X86.281Y-99.933
X90.408Y-138.033
X93.424Y-176.133
X95.171Y-80.883
X95.171Y-99.933
X95.806Y-118.983
X99.933Y-157.083
X100.568Y-138.033
X104.696Y-118.983
X105.331Y-80.883
X105.331Y-99.933
X107.077Y-176.133
X109.458Y-138.033
X110.093Y-157.083
X114.221Y-80.883
X114.221Y-99.933
X114.856Y-118.983
X117.237Y-176.133
X118.983Y-157.083
X119.618Y-138.033
X123.746Y-118.983
X124.381Y-80.883
X124.381Y-99.933
X128.508Y-138.033
X129.143Y-157.083
X133.271Y-80.883
X133.271Y-99.933
X133.906Y-118.983
X138.033Y-157.083
X138.668Y-138.033
X142.796Y-118.983
X143.431Y-80.883
X143.431Y-99.933
X147.558Y-138.033
X148.193Y-157.083
X152.321Y-80.883
X152.321Y-99.933
X152.956Y-118.983
X157.083Y-157.083
X157.718Y-138.033
X161.846Y-118.983
X162.481Y-80.883
X162.481Y-99.933
X166.608Y-138.033
X167.243Y-157.083
X171.371Y-80.883
X171.371Y-99.933
X172.006Y-118.983
X176.133Y-157.083
X176.768Y-138.033
X178.514Y-176.133
X180.896Y-118.983
X181.531Y-80.883
X181.531Y-99.933
X185.658Y-138.033
X186.293Y-157.083
X188.674Y-176.133
X190.421Y-80.883
X190.421Y-99.933
X191.056Y-118.983
X195.183Y-157.083
X195.818Y-138.033
X199.946Y-118.983
X200.581Y-80.883
X200.581Y-99.933
X204.708Y-138.033
X205.343Y-157.083
X209.471Y-80.883
X209.471Y-99.933
X210.106Y-118.983
X214.233Y-157.083
X214.868Y-138.033
X218.996Y-118.983
X219.631Y-80.883
X219.631Y-99.933
X223.758Y-138.033
X224.393Y-157.083
X228.521Y-80.883
X228.521Y-99.933
X229.156Y-118.983
X233.283Y-157.083
X233.918Y-138.033
X238.046Y-118.983
X238.681Y-80.883
X238.681Y-99.933
X242.808Y-138.033
X243.443Y-157.083
X247.571Y-80.883
X247.571Y-99.933
X247.571Y-176.133
X248.206Y-118.983
X252.333Y-157.083
X252.968Y-138.033
X257.14Y-119.03
X257.731Y-80.883
X257.731Y-99.933
X257.731Y-176.133
X261.858Y-138.033
X262.493Y-157.083
X266.621Y-80.883
X266.621Y-99.933
X266.621Y-176.133
X267.3Y-119.03
X271.383Y-157.083
X272.018Y-138.033
X276.146Y-118.983
X276.781Y-80.883
X276.781Y-99.933
X276.781Y-176.133
X280.908Y-138.033
X281.543Y-157.083
X285.671Y-80.883
X285.671Y-99.933
X285.671Y-176.133
X286.306Y-118.983
X291.068Y-138.033
X295.196Y-118.983
X295.831Y-80.883
X295.831Y-99.933
X295.831Y-176.133
X297.577Y-157.083
X304.721Y-80.883
X304.721Y-176.133
X305.356Y-118.983
X307.737Y-157.083
X311.864Y-138.033
X314.246Y-99.933
X314.881Y-80.883
X314.881Y-176.133
X319.008Y-118.983
X322.024Y-138.033
X323.771Y-80.883
X323.771Y-157.083
X323.771Y-176.133
X324.406Y-99.933
X329.168Y-118.983
X333.931Y-80.883
X333.931Y-157.083
X333.931Y-176.133
X342.821Y-99.933
X342.821Y-118.983
X342.821Y-138.033
X342.821Y-157.083
X342.821Y-176.133
X352.981Y-99.933
X352.981Y-118.983
X352.981Y-138.033
X352.981Y-157.083
X352.981Y-176.133
T2
X62.157Y-150.083
X85.957Y-150.083
X133.594Y-169.133
X233.594Y-169.133
X305.044Y-131.033
X307.426Y-92.933
X328.844Y-131.033
X331.226Y-92.933
T3
X62.151Y-80.883
X62.151Y-99.933
X62.157Y-165.323
X64.532Y-176.133
X66.913Y-118.983
X69.294Y-138.033
X74.057Y-157.083
X81.201Y-80.883
X81.201Y-99.933
X85.957Y-165.323
X88.344Y-176.133
X90.726Y-118.983
X95.488Y-138.033
X100.251Y-80.883
X100.251Y-99.933
X105.013Y-157.083
X109.776Y-118.983
X112.157Y-176.133
X114.538Y-138.033
X119.301Y-80.883
X119.301Y-99.933
X124.063Y-157.083
X128.826Y-118.983
X133.588Y-138.033
X133.594Y-184.373
X138.351Y-80.883
X138.351Y-99.933
X143.113Y-157.083
X147.876Y-118.983
X152.638Y-138.033
X157.401Y-80.883
X157.401Y-99.933
X162.163Y-157.083
X166.926Y-118.983
X171.688Y-138.033
X176.451Y-80.883
X176.451Y-99.933
X181.213Y-157.083
X183.594Y-176.133
X185.976Y-118.983
X190.738Y-138.033
X195.501Y-80.883
X195.501Y-99.933
X200.263Y-157.083
X205.026Y-118.983
X209.788Y-138.033
X214.551Y-80.883
X214.551Y-99.933
X219.313Y-157.083
X224.076Y-118.983
X228.838Y-138.033
X233.594Y-184.373
X233.601Y-80.883
X233.601Y-99.933
X238.363Y-157.083
X243.126Y-118.983
X247.888Y-138.033
X252.651Y-80.883
X252.651Y-99.933
X252.651Y-176.133
X257.413Y-157.083
X262.22Y-119.03
X266.938Y-138.033
X271.701Y-80.883
X271.701Y-99.933
X271.701Y-176.133
X276.463Y-157.083
X281.226Y-118.983
X285.988Y-138.033
X290.751Y-80.883
X290.751Y-99.933
X290.751Y-176.133
X300.276Y-118.983
X302.657Y-157.083
X305.044Y-146.273
X307.426Y-108.173
X309.801Y-80.883
X309.801Y-176.133
X316.944Y-138.033
X319.326Y-99.933
X324.088Y-118.983
X328.844Y-146.273
X328.851Y-80.883
X328.851Y-157.083
X328.851Y-176.133
X331.226Y-108.173
X347.901Y-99.933
X347.901Y-118.983
X347.901Y-138.033
X347.901Y-157.083
X347.901Y-176.133
M30
